<?xml version="1.0" encoding="UTF-8" standalone="no"?>
<!DOCTYPE svg PUBLIC "-//W3C//DTD SVG 1.1//EN" "http://www.w3.org/Graphics/SVG/1.1/DTD/svg11.dtd">
<svg width="100%" height="100%" viewBox="0 0 643 167" version="1.1" xmlns="http://www.w3.org/2000/svg" xmlns:xlink="http://www.w3.org/1999/xlink" xml:space="preserve" style="fill-rule:evenodd;clip-rule:evenodd;stroke-linejoin:round;stroke-miterlimit:1.41421;">
    <g transform="matrix(1.43441,0,0,1.43441,-1.14036,-0.490572)">
        <path d="M176.536,53.698L157.599,53.698L157.599,40.975C157.599,37.278 157.384,34.967 156.985,34.043C156.585,33.135 155.695,32.673 154.313,32.673C152.746,32.673 151.763,33.227 151.333,34.336C150.918,35.46 150.704,37.863 150.704,41.56L150.704,75.493C150.704,79.052 150.918,81.362 151.333,82.44C151.763,83.534 152.7,84.073 154.174,84.073C155.587,84.073 156.509,83.534 156.939,82.44C157.369,81.362 157.599,78.82 157.599,74.816L157.599,65.666L176.536,65.666L176.536,68.5C176.536,76.048 175.998,81.408 174.939,84.566C173.879,87.723 171.513,90.496 167.874,92.868C164.234,95.24 159.734,96.442 154.405,96.442C148.845,96.442 144.268,95.425 140.675,93.407C137.081,91.389 134.685,88.602 133.518,85.044C132.351,81.47 131.767,76.11 131.767,68.947L131.767,47.613C131.767,42.346 131.951,38.402 132.304,35.769C132.673,33.135 133.733,30.593 135.529,28.16C137.311,25.726 139.784,23.8 142.948,22.399C146.111,21.012 149.751,20.304 153.852,20.304C159.442,20.304 164.05,21.397 167.674,23.554C171.299,25.726 173.679,28.421 174.831,31.656C175.968,34.891 176.536,39.927 176.536,46.751L176.536,53.698ZM199.389,57.545L182.017,57.545L182.017,53.452C182.017,48.747 182.564,45.109 183.643,42.552C184.737,39.996 186.911,37.722 190.179,35.762C193.447,33.802 197.685,32.829 202.907,32.829C209.178,32.829 213.885,33.943 217.059,36.154C220.249,38.381 222.157,41.11 222.798,44.34C223.439,47.571 223.752,54.221 223.752,64.304L223.752,96.132L205.754,96.132L205.754,89.475C204.628,91.655 203.158,93.286 201.375,94.368C199.593,95.466 197.466,95.999 194.98,95.999C191.743,95.999 188.772,95.09 186.067,93.27C183.377,91.452 182.017,87.452 182.017,81.304L182.017,76.286C182.017,71.722 182.736,68.617 184.175,66.971C185.613,65.308 189.163,63.379 194.855,61.184C200.922,58.784 204.174,57.185 204.612,56.353C205.034,55.522 205.253,53.844 205.253,51.303C205.253,48.12 205.003,46.034 204.534,45.078C204.065,44.105 203.283,43.619 202.173,43.619C200.922,43.619 200.14,44.026 199.843,44.842C199.53,45.658 199.389,47.759 199.389,51.162L199.389,57.545ZM205.253,65.904C202.282,68.084 200.562,69.903 200.093,71.377C199.624,72.851 199.389,74.968 199.389,77.713C199.389,80.865 199.593,82.904 199.999,83.83C200.406,84.755 201.234,85.21 202.454,85.21C203.611,85.21 204.362,84.849 204.721,84.127C205.065,83.406 205.253,81.508 205.253,78.45L205.253,65.904ZM267.91,53.405L251.507,53.405L251.507,50.112C251.507,47.289 251.35,45.501 251.022,44.748C250.71,43.995 249.912,43.619 248.63,43.619C247.582,43.619 246.8,43.964 246.284,44.654C245.768,45.344 245.502,46.379 245.502,47.759C245.502,49.625 245.643,51.006 245.893,51.868C246.159,52.746 246.941,53.703 248.239,54.738C249.537,55.789 252.195,57.31 256.229,59.286C261.608,61.92 265.127,64.414 266.815,66.735C268.488,69.072 269.333,72.444 269.333,76.898C269.333,81.853 268.692,85.602 267.409,88.126C266.127,90.651 263.969,92.596 260.967,93.961C257.965,95.325 254.337,95.999 250.084,95.999C245.393,95.999 241.359,95.262 238.012,93.804C234.666,92.329 232.367,90.337 231.116,87.828C229.866,85.319 229.24,81.508 229.24,76.427L229.24,73.495L245.643,73.495L245.643,77.353C245.643,80.63 245.846,82.763 246.268,83.735C246.675,84.723 247.488,85.21 248.708,85.21C250.021,85.21 250.944,84.88 251.46,84.221C251.976,83.563 252.242,82.167 252.242,80.065C252.242,77.149 251.913,75.329 251.241,74.592C250.537,73.855 246.941,71.691 240.467,68.068C235.026,65.01 231.711,62.234 230.522,59.725C229.334,57.231 228.74,54.267 228.74,50.833C228.74,45.971 229.381,42.38 230.663,40.059C231.945,37.753 234.119,35.966 237.199,34.711C240.264,33.457 243.829,32.829 247.895,32.829C251.913,32.829 255.353,33.346 258.168,34.366C260.998,35.401 263.172,36.75 264.673,38.428C266.19,40.121 267.112,41.674 267.425,43.117C267.753,44.56 267.91,46.818 267.91,49.876L267.91,53.405Z" style="fill:rgb(227,6,19);fill-rule:nonzero;"/>
        <path d="M293.211,20.305L293.211,37.346C294.814,35.843 296.561,34.724 298.434,33.973C300.308,33.222 302.324,32.854 304.467,32.854C307.754,32.854 310.547,33.701 312.85,35.38C315.168,37.074 316.581,39.009 317.089,41.215C317.596,43.42 317.851,47.433 317.851,53.267L317.851,96.124L299.069,96.124L299.069,52.388C299.069,48.759 298.879,46.442 298.529,45.402C298.18,44.38 297.371,43.852 296.132,43.852C294.989,43.852 294.211,44.396 293.814,45.45C293.401,46.505 293.211,48.615 293.211,51.781L293.211,96.124L274.413,96.124L274.413,20.305L293.211,20.305Z" style="fill:rgb(227,6,19);fill-rule:nonzero;"/>
        <path d="M324.883,20.283L344.427,20.283C350.587,20.283 355.271,20.763 358.446,21.739C361.621,22.699 364.193,24.666 366.146,27.61C368.099,30.569 369.067,35.32 369.067,41.878C369.067,46.325 368.384,49.412 367.003,51.155C365.622,52.915 362.907,54.259 358.842,55.186C363.367,56.226 366.432,57.938 368.051,60.321C369.654,62.72 370.464,66.383 370.464,71.31L370.464,78.348C370.464,83.467 369.893,87.258 368.718,89.737C367.559,92.201 365.701,93.881 363.161,94.792C360.621,95.704 355.413,96.152 347.539,96.152L324.883,96.152L324.883,20.283ZM344.475,33.256L344.475,50.132C345.301,50.099 345.951,50.084 346.428,50.084C348.348,50.084 349.571,49.604 350.095,48.66C350.619,47.7 350.889,44.981 350.889,40.486C350.889,38.103 350.667,36.439 350.238,35.495C349.793,34.536 349.238,33.928 348.539,33.688C347.841,33.432 346.475,33.288 344.475,33.256ZM344.475,61.937L344.475,83.163C347.222,83.083 348.984,82.635 349.746,81.851C350.508,81.084 350.889,79.148 350.889,76.093L350.889,69.023C350.889,65.776 350.54,63.808 349.857,63.12C349.174,62.432 347.38,62.032 344.475,61.937ZM396.279,20.283L396.279,30.169L376.926,30.169L376.926,20.283L396.279,20.283ZM396.279,33.96L396.279,96.152L376.926,96.152L376.926,33.96L396.279,33.96ZM422.379,20.283L422.379,96.152L403.026,96.152L403.026,20.283L422.379,20.283ZM448.479,20.283L448.479,96.152L429.126,96.152L429.126,20.283L448.479,20.283Z" style="fill:white;fill-rule:nonzero;"/>
        <path d="M82.078,19.218C82.03,19.186 81.982,19.156 81.934,19.125L81.877,19.089L81.877,19.09C80.98,18.539 79.926,18.222 78.797,18.222C75.539,18.222 72.898,20.864 72.898,24.121C72.898,26.233 74.008,28.085 75.676,29.127L75.676,29.128C87.015,36.415 94.528,49.141 94.528,63.618C94.528,86.239 76.183,104.585 53.561,104.585C30.939,104.585 12.594,86.239 12.594,63.618C12.594,49.141 20.107,36.415 31.446,29.128L31.446,29.127C33.114,28.085 34.225,26.233 34.225,24.121C34.225,20.864 31.583,18.222 28.325,18.222C27.197,18.222 26.142,18.539 25.245,19.09L25.244,19.089L25.188,19.125C25.139,19.156 25.092,19.186 25.044,19.218C10.458,28.607 0.795,44.986 0.795,63.618C0.795,92.755 24.424,116.384 53.561,116.384C82.698,116.384 106.327,92.755 106.327,63.618C106.327,44.986 96.664,28.607 82.078,19.218Z" style="fill:white;"/>
        <path d="M53.561,0.342C62.587,0.342 69.906,7.661 69.906,16.687C69.906,25.712 62.587,33.031 53.561,33.031C44.536,33.031 37.216,25.712 37.216,16.687C37.216,7.661 44.536,0.342 53.561,0.342Z" style="fill:rgb(227,6,19);"/>
        <path d="M65.463,60.94L55.394,60.94L55.394,54.195C55.394,52.235 55.28,51.01 55.068,50.52C54.855,50.038 54.382,49.793 53.647,49.793C52.814,49.793 52.291,50.087 52.062,50.675C51.842,51.271 51.728,52.545 51.728,54.505L51.728,72.495C51.728,74.381 51.842,75.606 52.062,76.178C52.291,76.758 52.789,77.044 53.573,77.044C54.324,77.044 54.815,76.758 55.043,76.178C55.272,75.606 55.394,74.259 55.394,72.136L55.394,67.285L65.463,67.285L65.463,68.788C65.463,72.789 65.177,75.631 64.614,77.305C64.05,78.979 62.793,80.449 60.857,81.707C58.922,82.964 56.529,83.601 53.696,83.601C50.739,83.601 48.306,83.062 46.395,81.992C44.484,80.923 43.21,79.445 42.59,77.558C41.969,75.663 41.659,72.822 41.659,69.024L41.659,57.714C41.659,54.921 41.757,52.831 41.945,51.435C42.141,50.038 42.704,48.691 43.66,47.4C44.607,46.11 45.921,45.089 47.604,44.346C49.286,43.611 51.221,43.236 53.402,43.236C56.374,43.236 58.824,43.816 60.751,44.959C62.678,46.11 63.944,47.539 64.557,49.254C65.161,50.969 65.463,53.639 65.463,57.257L65.463,60.94Z" style="fill:white;fill-rule:nonzero;"/>
    </g>
</svg>