<svg xmlns="http://www.w3.org/2000/svg" xmlns:xlink="http://www.w3.org/1999/xlink" version="1.1" id="Layer_1" x="0px" y="0px" viewBox="0 0 273 85.4" style="enable-background:new 0 0 273 85.4;" xml:space="preserve" width="273"  height="85.4" >
<style type="text/css">
	.st0{fill:hsl(var(--accent-foreground));}
	.st1{fill:#04AB61;}
	.st2{fill-rule:evenodd;clip-rule:evenodd;fill:#FBB016;}
	.st3{fill:#FBB016;}
</style>
<style type="text/css">
    :root {
        --accent-foreground: 24 9.8% 10%;
    }

    @media (prefers-color-scheme: dark) {
        :root {
            --accent-foreground: 24 9.8% 90%;
        }
    }
</style>
<g>
	<g>
		<path class="st0" d="M78.2,43.7c-1.9-1.6-4.5-2.4-7.9-2.4h-5.5h-2.6H59v29.5h5.8v-8.5h4.1c2,0,3.8-0.3,5.3-0.9    c1.5-0.6,2.7-1.5,3.7-2.6c1-1.1,1.7-2.3,2.2-3.7c0.5-1.4,0.7-2.9,0.7-4.4C80.9,47.6,80,45.3,78.2,43.7z M74.4,54.1    c-0.4,1-1.1,1.8-2,2.5c-0.9,0.6-2.1,0.9-3.6,0.9h-4V46.3h5.4c1.4,0,2.6,0.3,3.5,1c0.9,0.7,1.4,1.8,1.4,3.4    C75.1,52,74.9,53.1,74.4,54.1z"/>
		<path class="st0" d="M104.1,64.8c0-0.9,0-1.6,0-2.2v-5.2c0-2-0.3-3.6-0.8-4.8c-0.5-1.3-1.3-2.2-2.2-2.9c-1-0.7-2.1-1.2-3.4-1.4    c-1.3-0.3-2.7-0.4-4.2-0.4c-1.2,0-2.5,0.1-3.7,0.3c-1.2,0.2-2.3,0.4-3.3,0.8v4.6h0.4c0.7-0.3,1.5-0.6,2.6-0.8    c1.1-0.2,2.2-0.4,3.3-0.4c1.3,0,2.3,0.1,3.2,0.4c0.8,0.2,1.5,0.7,1.9,1.4c0.4,0.7,0.7,1.8,0.7,3.2v0.4c-0.4-0.1-0.8-0.2-1.2-0.3    c-0.9-0.2-1.9-0.3-3.1-0.3c-1.9,0-3.6,0.3-5.1,0.8c-1.4,0.5-2.6,1.3-3.4,2.3c-0.8,1-1.2,2.4-1.2,4c0,2.5,0.9,4.3,2.6,5.5    c1.7,1.1,4.3,1.7,7.7,1.7c1,0,2.1-0.1,3.2-0.2c1.1-0.1,2.2-0.3,3.3-0.6c1.1-0.3,2.1-0.6,3-0.9l0.1-0.3c-0.1-0.5-0.2-1.1-0.2-2    C104.1,66.5,104.1,65.7,104.1,64.8z M97.5,67.1c-0.9,0.2-1.8,0.2-2.7,0.2c-1.6,0-2.8-0.2-3.6-0.7c-0.8-0.5-1.3-1.3-1.3-2.4    c0-1.2,0.4-2,1.3-2.5c0.9-0.5,2.2-0.7,4-0.7c0.8,0,1.6,0.1,2.5,0.2c0.3,0.1,0.6,0.1,0.9,0.2v1.6c0,0.7,0,1.2,0,1.7    c0,0.4,0.1,0.8,0.1,1.2c0,0.3,0.1,0.6,0.2,0.9C98.3,66.9,97.9,67,97.5,67.1z"/>
		<polygon class="st0" points="119,64.1 113.8,48.4 107.7,48.4 107.7,48.9 116.2,71.3 112.6,79.9 112.6,80.3 118.3,80.3 130.5,48.9     130.5,48.4 124.7,48.4   "/>
		<path class="st0" d="M165.6,49.8c-1-0.7-2-1.2-3.2-1.5c-1.2-0.3-2.5-0.4-3.8-0.4c-1.4,0-2.7,0.2-4.1,0.5c-1.2,0.3-2.3,0.6-3.3,1.1    c-0.8-0.5-1.7-0.9-2.7-1.1c-1.2-0.3-2.4-0.5-3.7-0.5c-1.1,0-2.3,0.1-3.5,0.3c-1.2,0.2-2.4,0.4-3.5,0.7c-1.1,0.3-2.1,0.6-2.9,0.9    l-0.1,0.3c0.1,0.5,0.2,1.2,0.2,2c0.1,0.8,0.1,1.7,0.1,2.5c0,0.8,0,1.5,0,2.1v14h5.7V55.9c0-0.8,0-1.6-0.1-2.3    c0-0.2-0.1-0.4-0.1-0.5c0.3-0.1,0.7-0.2,1.1-0.3c0.8-0.2,1.7-0.3,2.5-0.3c1,0,1.8,0.2,2.6,0.5c0.8,0.3,1.4,0.9,1.8,1.7    c0.4,0.8,0.7,1.9,0.7,3.4v12.7h5.7V57.9c0-1.9-0.3-3.5-0.8-4.7c0.5-0.2,1-0.3,1.5-0.4c0.7-0.2,1.4-0.2,2.1-0.2    c1.1,0,2,0.2,2.8,0.5c0.8,0.3,1.4,0.9,1.8,1.7c0.4,0.8,0.6,1.9,0.6,3.4v12.7h5.7V57.9c0-2.1-0.3-3.8-0.8-5    C167.3,51.6,166.6,50.6,165.6,49.8z"/>
		<path class="st0" d="M191.7,49.5c-1.6-1-3.6-1.6-6.1-1.6c-2.2,0-4.2,0.5-5.8,1.4c-1.6,0.9-2.9,2.3-3.8,4c-0.9,1.7-1.4,3.8-1.4,6.2    c0,2,0.3,3.8,0.9,5.2c0.6,1.5,1.5,2.7,2.6,3.6c1.1,0.9,2.5,1.6,4.1,2.1c1.6,0.5,3.4,0.7,5.5,0.7c1.5,0,2.8-0.1,3.9-0.3    c1.1-0.2,2.1-0.5,2.8-0.8v-4.6H194c-0.6,0.3-1.4,0.6-2.4,0.9c-1,0.2-2.2,0.4-3.5,0.4c-1.5,0-2.8-0.2-4-0.6c-1.1-0.4-2-1.1-2.7-2    c-0.5-0.7-0.8-1.6-0.9-2.7h15.4l0-1.4c0.1-2.4-0.2-4.4-0.9-6.2C194.4,51.9,193.3,50.5,191.7,49.5z M190.3,57.6h-9.8    c0.1-1,0.3-1.9,0.6-2.6c0.5-1,1.1-1.7,1.8-2.1c0.8-0.4,1.7-0.7,2.7-0.7c1.6,0,2.8,0.4,3.5,1.3c0.8,0.9,1.2,2.1,1.2,3.8V57.6z"/>
		<path class="st0" d="M219.2,49.9c-1-0.7-2.2-1.2-3.4-1.5c-1.3-0.3-2.6-0.5-4-0.5c-1.1,0-2.3,0.1-3.5,0.3c-1.2,0.2-2.4,0.4-3.5,0.7    c-1.1,0.3-2.1,0.6-2.9,0.9l-0.1,0.3c0.1,0.5,0.2,1.2,0.2,2c0.1,0.8,0.1,1.7,0.1,2.5c0,0.8,0,1.5,0,2.1v14h5.7V55.9    c0-0.8,0-1.6-0.1-2.3c0-0.2-0.1-0.4-0.1-0.5c0.3-0.1,0.7-0.2,1.1-0.3c0.8-0.2,1.7-0.3,2.5-0.3c1.1,0,2.1,0.2,2.9,0.5    c0.8,0.3,1.4,0.9,1.9,1.7c0.4,0.8,0.7,1.9,0.7,3.4v12.7h5.7V57.9c0-2-0.3-3.7-0.9-5C221,51.6,220.3,50.6,219.2,49.9z"/>
		<path class="st0" d="M241.5,66.3c-0.5,0.1-1,0.2-1.5,0.2c-1.4,0-2.4-0.3-3-0.9s-1-1.6-1-3V53h6.1v-4.6H236v-5.8h-5.7v5.8h-3.6V53    h3.6v10c0,1.9,0.3,3.4,1,4.6c0.7,1.2,1.7,2,3.1,2.6c1.4,0.6,3,0.9,5,0.9c0.8,0,1.6-0.1,2.2-0.2c0.7-0.1,1.2-0.3,1.7-0.5v-4.6h-0.4    C242.5,66.1,242,66.2,241.5,66.3z"/>
		<path class="st0" d="M261.7,58.7c-1-0.5-2.2-0.8-3.5-1l-1.9-0.3c-1.2-0.2-2.2-0.5-2.8-0.8c-0.6-0.3-0.9-0.8-0.9-1.5    c0-0.9,0.4-1.6,1.3-1.9c0.9-0.4,2.1-0.6,3.6-0.6c1,0,2,0.1,3,0.2c1,0.2,2,0.5,3,0.9h0.3v-4.7c-0.9-0.3-1.9-0.5-2.9-0.6    c-1-0.2-2.1-0.2-3.2-0.2c-2.5,0-4.6,0.3-6.1,1c-1.5,0.6-2.7,1.5-3.4,2.6c-0.7,1.1-1.1,2.3-1.1,3.6c0,1.9,0.6,3.3,1.8,4.2    c1.2,0.9,2.9,1.6,5,2l1.9,0.3c1.3,0.2,2.3,0.5,2.9,0.8c0.6,0.3,0.9,0.8,0.9,1.6c0,0.6-0.2,1.1-0.5,1.4c-0.3,0.4-0.7,0.6-1.2,0.7    c-0.5,0.1-1,0.2-1.5,0.3c-0.5,0-1.1,0-1.5,0c-1.3,0-2.7-0.1-4-0.5c-1.3-0.3-2.5-0.7-3.4-1.1h-0.3V70c1,0.3,2.2,0.6,3.5,0.8    c1.3,0.2,2.6,0.3,3.9,0.3c3.6,0,6.2-0.6,8-1.8c1.8-1.2,2.7-3,2.7-5.4c0-1.3-0.3-2.4-0.9-3.3C263.6,59.9,262.8,59.2,261.7,58.7z"/>
		<path class="st0" d="M88.5,35.1c2.3,1.2,5.2,1.8,8.7,1.8c1.4,0,2.6-0.1,3.7-0.3c1.1-0.2,2-0.5,2.8-0.9v-5.2h-0.4    c-0.7,0.4-1.6,0.7-2.6,1c-1,0.2-2.1,0.3-3.2,0.3c-2.2,0-4-0.4-5.5-1.2c-1.5-0.8-2.6-1.9-3.4-3.4c-0.8-1.5-1.1-3.4-1.1-5.6    s0.4-4,1.1-5.5c0.8-1.5,1.9-2.7,3.4-3.5c1.5-0.8,3.3-1.2,5.5-1.2c1.1,0,2.2,0.1,3.2,0.4c1,0.2,1.9,0.5,2.6,0.9h0.4V7.7    c-0.7-0.4-1.7-0.6-2.8-0.9c-1.1-0.2-2.3-0.3-3.7-0.3c-3.4,0-6.3,0.6-8.7,1.9c-2.3,1.3-4.1,3-5.3,5.3c-1.2,2.3-1.8,4.9-1.8,8    c0,3.1,0.6,5.9,1.8,8.2C84.5,32.2,86.2,33.9,88.5,35.1z"/>
		<path class="st0" d="M111.4,35.3c1.7,1.1,4.3,1.7,7.7,1.7c1,0,2.1-0.1,3.2-0.2c1.1-0.1,2.2-0.3,3.3-0.6c1.1-0.3,2.1-0.6,3-0.9    l0.1-0.3c-0.1-0.5-0.2-1.1-0.2-2c-0.1-0.8-0.1-1.7-0.1-2.5c0-0.9,0-1.6,0-2.2v-5.2c0-2-0.3-3.6-0.8-4.8c-0.5-1.3-1.3-2.2-2.2-2.9    c-1-0.7-2.1-1.2-3.4-1.4c-1.3-0.3-2.7-0.4-4.2-0.4c-1.2,0-2.5,0.1-3.7,0.3c-1.2,0.2-2.3,0.4-3.3,0.8v4.6h0.4    c0.7-0.3,1.5-0.6,2.6-0.8c1.1-0.2,2.2-0.4,3.3-0.4c1.3,0,2.3,0.1,3.2,0.4c0.8,0.2,1.5,0.7,1.9,1.4c0.4,0.7,0.7,1.8,0.7,3.2v0.4    c-0.4-0.1-0.8-0.2-1.2-0.3c-0.9-0.2-1.9-0.3-3.1-0.3c-1.9,0-3.6,0.3-5.1,0.8c-1.4,0.5-2.6,1.3-3.4,2.3c-0.8,1-1.2,2.4-1.2,4    C108.8,32.4,109.7,34.2,111.4,35.3z M115.4,27.3c0.9-0.5,2.2-0.7,4-0.7c0.8,0,1.6,0.1,2.5,0.2c0.3,0.1,0.6,0.1,0.9,0.2v1.6    c0,0.7,0,1.2,0,1.7c0,0.4,0.1,0.8,0.1,1.2c0,0.3,0.1,0.6,0.2,0.9c-0.4,0.1-0.8,0.3-1.2,0.4c-0.9,0.2-1.8,0.2-2.7,0.2    c-1.6,0-2.8-0.2-3.6-0.7c-0.8-0.5-1.3-1.3-1.3-2.4C114.2,28.6,114.6,27.8,115.4,27.3z"/>
		<path class="st0" d="M145.2,32c-0.5,0.1-1,0.2-1.5,0.3c-0.5,0-1.1,0-1.5,0c-1.3,0-2.7-0.2-4-0.5c-1.3-0.3-2.5-0.7-3.4-1.1h-0.3    v4.8c1,0.3,2.2,0.6,3.5,0.8s2.6,0.3,3.9,0.3c3.6,0,6.2-0.6,8-1.8c1.8-1.2,2.7-3,2.7-5.4c0-1.3-0.3-2.4-0.9-3.3    c-0.6-0.9-1.5-1.6-2.5-2.1c-1-0.5-2.2-0.8-3.5-1l-1.9-0.3c-1.2-0.2-2.2-0.5-2.8-0.8c-0.6-0.3-0.9-0.8-0.9-1.5    c0-0.9,0.4-1.6,1.3-1.9c0.9-0.4,2.1-0.6,3.6-0.6c1,0,2,0.1,3,0.2c1,0.2,2,0.5,3,0.9h0.3v-4.7c-0.9-0.3-1.9-0.5-2.9-0.6    c-1-0.2-2.1-0.2-3.2-0.2c-2.5,0-4.6,0.3-6.1,1c-1.5,0.6-2.7,1.5-3.4,2.6c-0.7,1.1-1.1,2.3-1.1,3.6c0,1.9,0.6,3.3,1.8,4.2    c1.2,0.9,2.9,1.6,5,2l1.9,0.3c1.3,0.2,2.3,0.5,2.9,0.8c0.6,0.3,0.9,0.8,0.9,1.6c0,0.6-0.2,1.1-0.5,1.4    C146.1,31.6,145.7,31.9,145.2,32z"/>
		<path class="st0" d="M178.5,36.5V23.6c0-1.9-0.2-3.5-0.7-4.7c-0.5-1.3-1.2-2.3-2-3.1c-0.8-0.8-1.9-1.4-3-1.7    c-1.1-0.4-2.4-0.5-3.7-0.5c-1.3,0-2.5,0.1-3.5,0.4c-0.5,0.1-1,0.3-1.5,0.5V5.3h-6l-0.1,0.3c0.1,0.5,0.2,1.1,0.2,2    c0.1,0.8,0.1,1.7,0.1,2.5c0,0.8,0,1.5,0,2.1v24.2h5.7V18.9c0,0,0.1,0,0.1,0c0.5-0.1,1.1-0.3,1.7-0.4c0.6-0.1,1.2-0.2,1.8-0.2    c1,0,1.9,0.2,2.7,0.5c0.8,0.3,1.4,0.9,1.8,1.7c0.4,0.8,0.7,1.9,0.7,3.4v12.6H178.5z"/>
		<path class="st0" d="M196,5.1c-2,0-3.7,0.3-5.1,1c-1.4,0.7-2.5,1.7-3.2,3c-0.7,1.3-1.1,3-1.1,5H183v4.6h3.6v17.8h5.7V18.7h5.7    v-4.6h-5.7c0-1.6,0.3-2.7,0.9-3.4c0.6-0.8,1.7-1.1,3.1-1.1c0.6,0,1.1,0.1,1.5,0.2c0.4,0.1,0.8,0.2,1.1,0.3h0.4V5.6    c-0.4-0.2-0.9-0.3-1.5-0.4C197.4,5.1,196.7,5.1,196,5.1z"/>
		<path class="st0" d="M202.3,20.1c0,0.8,0,1.5,0,2.1v14.3h5.7V21.6c0-1.2-0.1-2.1-0.2-2.8c0.3-0.1,0.6-0.1,1-0.2    c0.8-0.1,1.7-0.2,2.6-0.2c0.5,0,1,0,1.5,0.1c0.5,0,1,0.1,1.4,0.2h0.4V14c-0.6-0.1-1.1-0.1-1.7-0.2c-0.6,0-1.1,0-1.6,0    c-1.1,0-2.3,0.1-3.4,0.2c-1.1,0.1-2.2,0.3-3.2,0.5c-1,0.2-1.9,0.5-2.7,0.7l-0.1,0.3c0.1,0.5,0.2,1.2,0.2,2    C202.2,18.4,202.3,19.2,202.3,20.1z"/>
		<path class="st0" d="M235,36.6c1.1-0.2,2.1-0.5,2.8-0.8v-4.6h-0.4c-0.6,0.3-1.4,0.6-2.4,0.9c-1,0.2-2.2,0.4-3.5,0.4    c-1.5,0-2.8-0.2-4-0.6c-1.1-0.4-2-1.1-2.7-2c-0.5-0.7-0.8-1.6-0.9-2.7h15.4l0-1.4c0.1-2.4-0.2-4.4-0.9-6.2    c-0.7-1.8-1.8-3.3-3.4-4.3c-1.6-1-3.6-1.6-6.1-1.6c-2.2,0-4.2,0.5-5.8,1.4c-1.6,0.9-2.9,2.3-3.8,4c-0.9,1.7-1.4,3.8-1.4,6.2    c0,2,0.3,3.8,0.9,5.2c0.6,1.5,1.5,2.7,2.6,3.6c1.1,0.9,2.5,1.6,4.1,2.1c1.6,0.5,3.4,0.7,5.5,0.7C232.6,36.9,233.9,36.8,235,36.6z     M226.4,18.5c0.8-0.4,1.7-0.7,2.7-0.7c1.6,0,2.8,0.4,3.5,1.3c0.8,0.9,1.2,2.1,1.2,3.8v0.2H224c0.1-1,0.3-1.9,0.6-2.6    C225,19.6,225.6,18.9,226.4,18.5z"/>
		<path class="st0" d="M264.6,19.4c-0.7-1.8-1.8-3.3-3.4-4.3c-1.6-1-3.6-1.6-6.1-1.6c-2.2,0-4.2,0.5-5.8,1.4c-1.6,0.9-2.9,2.3-3.8,4    c-0.9,1.7-1.4,3.8-1.4,6.2c0,2,0.3,3.8,0.9,5.2c0.6,1.5,1.5,2.7,2.6,3.6c1.1,0.9,2.5,1.6,4.1,2.1c1.6,0.5,3.4,0.7,5.5,0.7    c1.5,0,2.8-0.1,3.9-0.3c1.1-0.2,2.1-0.5,2.8-0.8v-4.6h-0.4c-0.6,0.3-1.4,0.6-2.4,0.9c-1,0.2-2.2,0.4-3.5,0.4c-1.5,0-2.8-0.2-4-0.6    c-1.1-0.4-2-1.1-2.7-2c-0.5-0.7-0.8-1.6-0.9-2.7h15.4l0-1.4C265.6,23.3,265.3,21.2,264.6,19.4z M259.9,23.2h-9.8    c0.1-1,0.3-1.9,0.6-2.6c0.5-1,1.1-1.7,1.8-2.1c0.8-0.4,1.7-0.7,2.7-0.7c1.6,0,2.8,0.4,3.5,1.3c0.8,0.9,1.2,2.1,1.2,3.8V23.2z"/>
	</g>
	<path class="st1" d="M32.8,5.5C26.9,5.5,22,10.3,22,16.2l0,0h39.9c5.9,0,10.8-4.8,10.8-10.8l0,0H32.8z"/>
	<path class="st1" d="M22,16.2c0-5.9,4.8-10.8,10.8-10.8l0,0v39.9c0,5.9-4.8,10.8-10.8,10.8l0,0V16.2z"/>
	<path class="st2" d="M36.2,19.8v10.8h12.5c5.9,0,10.8-4.8,10.8-10.8l0,0H36.2z"/>
	<path class="st3" d="M7.5,30.6c0-5.9,4.8-10.8,10.8-10.8l0,0v39.9c0,5.9-4.8,10.8-10.8,10.8l0,0V30.6z"/>
</g>
</svg>