<svg xmlns:xlink="http://www.w3.org/1999/xlink"  xmlns="http://www.w3.org/2000/svg" width="1322" height="467" viewBox="0 0 1322 467" fill="none">
<path d="M233.333 466.667C362.2 466.667 466.667 362.2 466.667 233.333C466.667 104.467 362.2 0 233.333 0C104.467 0 0 104.467 0 233.333C0 362.2 104.467 466.667 233.333 466.667Z" fill="#EA001B"/>
<path d="M566.667 466.667C695.533 466.667 800 362.2 800 233.333C800 104.467 695.533 0 566.667 0C437.8 0 333.333 104.467 333.333 233.333C333.333 362.2 437.8 466.667 566.667 466.667Z" fill="#FFA200" fill-opacity="0.8"/>
<path d="M818.415 172.676C817.82 219.593 860.226 245.776 892.172 261.342C924.995 277.314 936.019 287.556 935.894 301.838C935.643 323.699 909.711 333.345 885.438 333.721C843.094 334.378 818.477 322.289 798.903 313.144L783.65 384.521C803.287 393.572 839.649 401.465 877.358 401.809C965.867 401.809 1023.78 358.119 1024.09 290.375C1024.43 204.403 905.17 199.642 905.984 161.213C906.266 149.562 917.384 137.129 941.751 133.965C953.809 132.368 987.101 131.147 1024.84 148.529L1039.66 79.4695C1019.36 72.0781 993.271 65 960.793 65C877.483 65 818.885 109.286 818.415 172.676ZM1182 70.9506C1165.84 70.9506 1152.22 80.3778 1146.14 94.8474L1019.7 396.735H1108.15L1125.75 348.096H1233.84L1244.05 396.735H1322L1253.97 70.9506H1182ZM1194.37 158.958L1219.9 281.292H1149.99L1194.37 158.958ZM711.177 70.9506L641.46 396.735H725.74L795.426 70.9506H711.177ZM586.494 70.9506L498.769 292.692L463.284 104.149C459.118 83.1026 442.675 70.9506 424.416 70.9506H281.004L279 80.4091C308.44 86.7983 341.889 97.1024 362.153 108.127C374.556 114.861 378.095 120.749 382.166 136.753L449.378 396.735H538.45L675.003 70.9506H586.494Z" fill="url(#paint0_linear_240_90)"/>
<defs>
<linearGradient id="paint0_linear_240_90" x1="48230.1" y1="1077.51" x2="49205" y2="-33513.3" gradientUnits="userSpaceOnUse">
<stop stop-color="#222357"/>
<stop offset="1" stop-color="#254AA5"/>
</linearGradient>
</defs>
</svg>