<svg xmlns:xlink="http://www.w3.org/1999/xlink" xmlns="http://www.w3.org/2000/svg" width="154" height="28" viewBox="0 0 154 28" style="enable-background:new 0 0 154 28" xml:space="preserve"><g style="opacity:.9"><path style="fill-rule:evenodd;clip-rule:evenodd;fill:black" d="m385.6 673.9-10.3-6.9-10.4-6.8-1.6 7.8 1.9 1.3 7 4.6-9 4.6-2.4 1.3-1.6 7.8 13.2-6.8z" transform="translate(-352 -660)"/><path style="fill-rule:evenodd;clip-rule:evenodd;fill:#FF0000" d="m369.8 673.9-7-4.6-7-4.6-1.9 9.2-1.9 9.3 8.9-4.7z" transform="translate(-352 -660)"/><path d="m360.2 660.3-1.5 5.5h7.9l1.5-5.5h4.5l-3.8 14.4h-4.4l1.5-5.6H358l-1.5 5.6H352l3.8-14.4h4.4zm26.2 0c1.8 0 3.1.3 3.7 1 .6.7.8 1.7.4 3.1l-1.6 6.1c-.4 1.4-1 2.4-2 3.1-1 .7-2.4 1-4.3 1h-6.4c-1.8 0-3.1-.3-3.7-1-.6-.7-.8-1.7-.4-3.1l1.6-6.1c.4-1.4 1-2.4 2-3.1 1-.7 2.4-1 4.3-1h6.4zm24.2 0-.9 3.3h-6.1l-2.9 11.1h-4.5l2.9-11.1H393l.9-3.3h16.7zm13.8 0c1.8 0 3.1.3 3.7 1 .6.7.8 1.7.4 3.1l-.3 1.1c-.4 1.4-1 2.4-2 3.1-1 .7-2.4 1-4.3 1h-7.1l-1.3 5H409l3.8-14.4h11.6zm19 0c1.8 0 3.1.3 3.7 1 .6.7.8 1.7.4 3.1l-2.7 10.3h-4.4l1.5-5.6H434l-1.5 5.6H428l2.7-10.3c.4-1.4 1-2.4 2-3.1 1-.7 2.4-1 4.3-1h6.4zm11.9 0-1 3.9c-.1.4-.2.7-.2 1 0 .3.1.5.2.7.1.2.4.3.7.4.3.1.7.1 1.3.1h2.8c.5 0 1 0 1.3-.1.4-.1.6-.2.9-.4.2-.2.4-.4.6-.7.1-.3.3-.6.4-1l1-3.9h4.4l-1.4 5.3c-.4 1.4-1 2.4-2 3.1-1 .7-2.4 1-4.2 1h-1l-1.3 5h-4.5l1.3-5h-1c-1.8 0-3.1-.3-3.7-1-.6-.7-.8-1.7-.4-3.1l1.4-5.3h4.4zm-71.5 3.2H381c-1 0-1.8.2-2.2.5-.4.4-.7.9-.9 1.7l-.9 3.4c-.1.4-.2.7-.2 1 0 .3.1.5.2.7.1.2.4.3.7.4.3.1.7.1 1.3.1h2.8c.5 0 1 0 1.3-.1.4-.1.6-.2.9-.4.2-.2.4-.4.6-.7.1-.3.3-.6.4-1l.9-3.4c.1-.4.1-.7.1-1 0-.3-.1-.5-.2-.7-.1-.2-.4-.3-.7-.4-.4 0-.8-.1-1.3-.1zm38.2 0h-5.7l-.7 2.9h5.7c.4 0 .8 0 1.1-.1.3 0 .5-.1.7-.2.2-.1.3-.3.5-.4.1-.2.2-.4.3-.7.1-.3.1-.6.1-.8 0-.2-.1-.3-.2-.4-.1-.1-.3-.2-.6-.2s-.7-.1-1.2-.1zm18.8 0H438c-1 0-1.8.2-2.2.5-.4.4-.7.9-.9 1.7h7.9c.1-.4.1-.7.1-1 0-.3-.1-.5-.2-.7-.1-.2-.4-.3-.7-.4-.3 0-.7-.1-1.2-.1z" style="fill:black" transform="translate(-314 -652)"/></g></svg>