<svg xmlns:xlink="http://www.w3.org/1999/xlink" width="28" height="40" viewBox="0 0 28 40" fill="none" xmlns="http://www.w3.org/2000/svg"><path d="M28 13.9079C28 10.728 26.9035 7.64403 24.8928 5.16961C22.8822 2.69519 20.079 0.97969 16.9499 0.308802C8.20359 -1.55368 0 5.25343 0 14.1379V27.5674C2.14334 28.7634 4.43401 29.6778 6.8145 30.2876L6.92077 30.314V30.2819C6.92077 25.9198 10.0899 22.3834 14.0009 22.3834C17.912 22.3834 21.0792 25.9198 21.0792 30.2819V30.314L21.1874 30.2876C23.5674 29.6782 25.8575 28.7638 28 27.5674V13.9079ZM13.9307 21.5954C12.8955 21.595 11.8837 21.2897 11.0231 20.718C10.1626 20.1463 9.4921 19.334 9.09637 18.3837C8.70064 17.4334 8.59749 16.3879 8.79996 15.3794C9.00243 14.3709 9.50142 13.4447 10.2338 12.7179C10.9662 11.9912 11.8992 11.4965 12.9146 11.2965C13.9301 11.0964 14.9824 11.2 15.9386 11.5942C16.8947 11.9883 17.7118 12.6553 18.2863 13.5107C18.8609 14.3662 19.1671 15.3717 19.1664 16.4C19.1661 17.0827 19.0305 17.7586 18.7672 18.3892C18.504 19.0198 18.1182 19.5927 17.632 20.0752C17.1458 20.5576 16.5687 20.9402 15.9336 21.201C15.2985 21.4619 14.618 21.5959 13.9307 21.5954Z" fill="#2F82FF"></path><path d="M19.4643 33.2941C15.8658 34.0931 12.1342 34.0931 8.53568 33.2941C7.92464 33.1584 7.29271 32.9981 6.63802 32.8115C4.32518 32.1435 2.09774 31.2124 0 30.0366L0 33.9086C0.73819 34.7418 5.73853 39.9994 14.0009 39.9994C22.2634 39.9994 27.2618 34.7418 28 33.9086V30.0366C25.9012 31.213 23.6725 32.1441 21.3582 32.8115C20.7073 32.9981 20.0754 33.1584 19.4643 33.2941Z" fill="#FFE600"></path></svg>