<svg width="683" height="210" viewBox="0 0 683 210" fill="none" xmlns="http://www.w3.org/2000/svg">
<path d="M79.3 45.2974H121.7C130.9 45.2974 138.4 48.0941 144.3 53.5877C150.2 59.0813 153.1 65.8734 153.1 73.8641C153.1 83.5529 149.7 91.6435 142.9 98.2358C136.1 104.828 127.5 108.124 117.1 108.124H97.3L94 126.703H65L79.3 45.2974ZM101.4 84.7515H114.1C116.7 84.7515 118.9 83.8525 120.7 82.0546C122.5 80.2567 123.4 78.0593 123.4 75.4623C123.4 73.3647 122.7 71.6667 121.4 70.3682C120 69.0697 118.2 68.4704 115.9 68.4704H104.4L101.4 84.7515Z" fill="url(#paint0_linear_166_158)"/>
<path d="M206.6 126.603L205.2 111.52H180.2L173.4 126.603H144.3L181.3 45.1975H227.3L235.1 126.603H206.6ZM198 69.6691L188.5 91.1441H204.2L202.7 69.6691H198Z" fill="url(#paint1_linear_166_158)"/>
<path d="M296.8 45.2974H325.9L287.6 97.5366L282.5 126.603H253.4L258.5 97.5366L238.6 45.2974H267.7L276.8 73.165H278L296.8 45.2974Z" fill="url(#paint2_linear_166_158)"/>
<path d="M380.7 83.6528H382.1V71.9664L386.8 45.1975H415.9L401.6 126.603H370.2L353.6 88.2474H352.2V99.3346L347.4 126.603H318.3L332.6 45.1975H364L380.7 83.6528Z" fill="url(#paint3_linear_166_158)"/>
<path d="M463 129C449.6 129 438.9 125.304 430.8 117.913C422.8 110.521 418.8 101.033 418.8 89.446C418.8 76.561 423.5 65.5738 432.9 56.5842C442.3 47.4948 453.9 43 467.7 43C481.1 43 491.9 46.6957 499.9 54.0871C507.9 61.4785 511.9 70.9675 511.9 82.554C511.9 95.439 507.2 106.426 497.8 115.416C488.4 124.405 476.8 129 463 129ZM463.6 104.528C468.6 104.528 472.9 102.531 476.4 98.6353C479.9 94.7398 481.6 89.5459 481.6 82.9535C481.6 78.0592 480.3 74.2636 477.6 71.4669C475 68.6702 471.4 67.2718 467 67.2718C462 67.2718 457.7 69.2695 454.2 73.1649C450.7 77.0604 449 82.2544 449 88.8467C449 93.741 450.3 97.5366 453 100.333C455.6 103.13 459.2 104.528 463.6 104.528Z" fill="url(#paint4_linear_166_158)"/>
<path d="M566.5 45.2974H598.5V91.8432H599.7L614.4 45.2974H642.3L611.6 126.603H576.3V82.4542H575.1L559.7 126.603H521.6V45.2974H548.8V91.8432H550L566.5 45.2974Z" fill="url(#paint5_linear_166_158)"/>
<rect x="33" y="144.297" width="616" height="3.66279" rx="1.8314" fill="url(#paint6_linear_166_158)"/>
<path d="M119.257 165.973L109.681 188.401H104.569L114.217 166.549H101.905V162.229H119.257V165.973ZM143.876 166.513H132.212V172.669C132.716 172.045 133.436 171.541 134.372 171.157C135.308 170.749 136.304 170.545 137.36 170.545C139.28 170.545 140.852 170.965 142.076 171.805C143.3 172.645 144.188 173.725 144.74 175.045C145.292 176.341 145.568 177.733 145.568 179.221C145.568 181.981 144.776 184.201 143.192 185.881C141.632 187.561 139.4 188.401 136.496 188.401C133.76 188.401 131.576 187.717 129.944 186.349C128.312 184.981 127.388 183.193 127.172 180.985H132.068C132.284 181.945 132.764 182.713 133.508 183.289C134.276 183.865 135.248 184.153 136.424 184.153C137.84 184.153 138.908 183.709 139.628 182.821C140.348 181.933 140.708 180.757 140.708 179.293C140.708 177.805 140.336 176.677 139.592 175.909C138.872 175.117 137.804 174.721 136.388 174.721C135.38 174.721 134.54 174.973 133.868 175.477C133.196 175.981 132.716 176.653 132.428 177.493H127.604V162.085H143.876V166.513ZM172.768 177.781H165.964V184.765H161.212V177.781H154.408V173.389H161.212V166.405H165.964V173.389H172.768V177.781ZM213.02 171.049C213.02 172.393 212.696 173.653 212.048 174.829C211.424 176.005 210.428 176.953 209.06 177.673C207.716 178.393 206.012 178.753 203.948 178.753H199.736V188.401H194.696V163.273H203.948C205.892 163.273 207.548 163.609 208.916 164.281C210.284 164.953 211.304 165.877 211.976 167.053C212.672 168.229 213.02 169.561 213.02 171.049ZM203.732 174.685C205.124 174.685 206.156 174.373 206.828 173.749C207.5 173.101 207.836 172.201 207.836 171.049C207.836 168.601 206.468 167.377 203.732 167.377H199.736V174.685H203.732ZM219.262 178.357C219.262 176.341 219.658 174.553 220.45 172.993C221.266 171.433 222.358 170.233 223.726 169.393C225.118 168.553 226.666 168.133 228.37 168.133C229.858 168.133 231.154 168.433 232.258 169.033C233.386 169.633 234.286 170.389 234.958 171.301V168.457H240.034V188.401H234.958V185.485C234.31 186.421 233.41 187.201 232.258 187.825C231.13 188.425 229.822 188.725 228.334 188.725C226.654 188.725 225.118 188.293 223.726 187.429C222.358 186.565 221.266 185.353 220.45 183.793C219.658 182.209 219.262 180.397 219.262 178.357ZM234.958 178.429C234.958 177.205 234.718 176.161 234.238 175.297C233.758 174.409 233.11 173.737 232.294 173.281C231.478 172.801 230.602 172.561 229.666 172.561C228.73 172.561 227.866 172.789 227.074 173.245C226.282 173.701 225.634 174.373 225.13 175.261C224.65 176.125 224.41 177.157 224.41 178.357C224.41 179.557 224.65 180.613 225.13 181.525C225.634 182.413 226.282 183.097 227.074 183.577C227.89 184.057 228.754 184.297 229.666 184.297C230.602 184.297 231.478 184.069 232.294 183.613C233.11 183.133 233.758 182.461 234.238 181.597C234.718 180.709 234.958 179.653 234.958 178.429ZM267.996 168.457L255.648 197.833H250.284L254.604 187.897L246.612 168.457H252.264L257.412 182.389L262.632 168.457H267.996ZM299.441 168.169C301.889 168.169 303.857 168.925 305.345 170.437C306.857 171.925 307.613 174.013 307.613 176.701V188.401H302.573V177.385C302.573 175.825 302.177 174.637 301.385 173.821C300.593 172.981 299.513 172.561 298.145 172.561C296.777 172.561 295.685 172.981 294.869 173.821C294.077 174.637 293.681 175.825 293.681 177.385V188.401H288.641V177.385C288.641 175.825 288.245 174.637 287.453 173.821C286.661 172.981 285.581 172.561 284.213 172.561C282.821 172.561 281.717 172.981 280.901 173.821C280.109 174.637 279.713 175.825 279.713 177.385V188.401H274.673V168.457H279.713V170.869C280.361 170.029 281.189 169.369 282.197 168.889C283.229 168.409 284.357 168.169 285.581 168.169C287.141 168.169 288.533 168.505 289.757 169.177C290.981 169.825 291.929 170.761 292.601 171.985C293.249 170.833 294.185 169.909 295.409 169.213C296.657 168.517 298.001 168.169 299.441 168.169ZM334.896 177.997C334.896 178.717 334.848 179.365 334.752 179.941H320.172C320.292 181.381 320.796 182.509 321.684 183.325C322.572 184.141 323.664 184.549 324.96 184.549C326.832 184.549 328.164 183.745 328.956 182.137H334.392C333.816 184.057 332.712 185.641 331.08 186.889C329.448 188.113 327.444 188.725 325.068 188.725C323.148 188.725 321.42 188.305 319.884 187.465C318.372 186.601 317.184 185.389 316.32 183.829C315.48 182.269 315.06 180.469 315.06 178.429C315.06 176.365 315.48 174.553 316.32 172.993C317.16 171.433 318.336 170.233 319.848 169.393C321.36 168.553 323.1 168.133 325.068 168.133C326.964 168.133 328.656 168.541 330.144 169.357C331.656 170.173 332.82 171.337 333.636 172.849C334.476 174.337 334.896 176.053 334.896 177.997ZM329.676 176.557C329.652 175.261 329.184 174.229 328.272 173.461C327.36 172.669 326.244 172.273 324.924 172.273C323.676 172.273 322.62 172.657 321.756 173.425C320.916 174.169 320.4 175.213 320.208 176.557H329.676ZM353.587 168.169C355.963 168.169 357.883 168.925 359.347 170.437C360.811 171.925 361.543 174.013 361.543 176.701V188.401H356.503V177.385C356.503 175.801 356.107 174.589 355.315 173.749C354.523 172.885 353.443 172.453 352.075 172.453C350.683 172.453 349.579 172.885 348.763 173.749C347.971 174.589 347.575 175.801 347.575 177.385V188.401H342.535V168.457H347.575V170.941C348.247 170.077 349.099 169.405 350.131 168.925C351.187 168.421 352.339 168.169 353.587 168.169ZM376.164 172.597V182.245C376.164 182.917 376.32 183.409 376.632 183.721C376.968 184.009 377.52 184.153 378.288 184.153H380.628V188.401H377.46C373.212 188.401 371.088 186.337 371.088 182.209V172.597H368.712V168.457H371.088V163.525H376.164V168.457H380.628V172.597H376.164ZM428.147 163.273V188.401H423.107V172.057L416.375 188.401H412.559L405.791 172.057V188.401H400.751V163.273H406.475L414.467 181.957L422.459 163.273H428.147ZM455.63 177.997C455.63 178.717 455.582 179.365 455.486 179.941H440.906C441.026 181.381 441.53 182.509 442.418 183.325C443.306 184.141 444.398 184.549 445.694 184.549C447.566 184.549 448.898 183.745 449.69 182.137H455.126C454.55 184.057 453.446 185.641 451.814 186.889C450.182 188.113 448.178 188.725 445.802 188.725C443.882 188.725 442.154 188.305 440.618 187.465C439.106 186.601 437.918 185.389 437.054 183.829C436.214 182.269 435.794 180.469 435.794 178.429C435.794 176.365 436.214 174.553 437.054 172.993C437.894 171.433 439.07 170.233 440.582 169.393C442.094 168.553 443.834 168.133 445.802 168.133C447.698 168.133 449.39 168.541 450.878 169.357C452.39 170.173 453.554 171.337 454.37 172.849C455.21 174.337 455.63 176.053 455.63 177.997ZM450.41 176.557C450.386 175.261 449.918 174.229 449.006 173.461C448.094 172.669 446.978 172.273 445.658 172.273C444.41 172.273 443.354 172.657 442.49 173.425C441.65 174.169 441.134 175.213 440.942 176.557H450.41ZM469.136 172.597V182.245C469.136 182.917 469.292 183.409 469.604 183.721C469.94 184.009 470.492 184.153 471.26 184.153H473.6V188.401H470.432C466.184 188.401 464.06 186.337 464.06 182.209V172.597H461.684V168.457H464.06V163.525H469.136V168.457H473.6V172.597H469.136ZM492.417 168.169C493.929 168.169 495.273 168.505 496.449 169.177C497.625 169.825 498.537 170.797 499.185 172.093C499.857 173.365 500.193 174.901 500.193 176.701V188.401H495.153V177.385C495.153 175.801 494.757 174.589 493.965 173.749C493.173 172.885 492.093 172.453 490.725 172.453C489.333 172.453 488.229 172.885 487.413 173.749C486.621 174.589 486.225 175.801 486.225 177.385V188.401H481.185V161.761H486.225V170.941C486.873 170.077 487.737 169.405 488.817 168.925C489.897 168.421 491.097 168.169 492.417 168.169ZM517.802 188.725C515.882 188.725 514.154 188.305 512.618 187.465C511.082 186.601 509.87 185.389 508.982 183.829C508.118 182.269 507.686 180.469 507.686 178.429C507.686 176.389 508.13 174.589 509.018 173.029C509.93 171.469 511.166 170.269 512.726 169.429C514.286 168.565 516.026 168.133 517.946 168.133C519.866 168.133 521.606 168.565 523.166 169.429C524.726 170.269 525.95 171.469 526.838 173.029C527.75 174.589 528.206 176.389 528.206 178.429C528.206 180.469 527.738 182.269 526.802 183.829C525.89 185.389 524.642 186.601 523.058 187.465C521.498 188.305 519.746 188.725 517.802 188.725ZM517.802 184.333C518.714 184.333 519.566 184.117 520.358 183.685C521.174 183.229 521.822 182.557 522.302 181.669C522.782 180.781 523.022 179.701 523.022 178.429C523.022 176.533 522.518 175.081 521.51 174.073C520.526 173.041 519.314 172.525 517.874 172.525C516.434 172.525 515.222 173.041 514.238 174.073C513.278 175.081 512.798 176.533 512.798 178.429C512.798 180.325 513.266 181.789 514.202 182.821C515.162 183.829 516.362 184.333 517.802 184.333ZM534.567 178.357C534.567 176.341 534.963 174.553 535.755 172.993C536.571 171.433 537.675 170.233 539.067 169.393C540.459 168.553 542.007 168.133 543.711 168.133C545.007 168.133 546.243 168.421 547.419 168.997C548.595 169.549 549.531 170.293 550.227 171.229V161.761H555.339V188.401H550.227V185.449C549.603 186.433 548.727 187.225 547.599 187.825C546.471 188.425 545.163 188.725 543.675 188.725C541.995 188.725 540.459 188.293 539.067 187.429C537.675 186.565 536.571 185.353 535.755 183.793C534.963 182.209 534.567 180.397 534.567 178.357ZM550.263 178.429C550.263 177.205 550.023 176.161 549.543 175.297C549.063 174.409 548.415 173.737 547.599 173.281C546.783 172.801 545.907 172.561 544.971 172.561C544.035 172.561 543.171 172.789 542.379 173.245C541.587 173.701 540.939 174.373 540.435 175.261C539.955 176.125 539.715 177.157 539.715 178.357C539.715 179.557 539.955 180.613 540.435 181.525C540.939 182.413 541.587 183.097 542.379 183.577C543.195 184.057 544.059 184.297 544.971 184.297C545.907 184.297 546.783 184.069 547.599 183.613C548.415 183.133 549.063 182.461 549.543 181.597C550.023 180.709 550.263 179.653 550.263 178.429ZM571.854 188.725C570.222 188.725 568.758 188.437 567.462 187.861C566.166 187.261 565.134 186.457 564.366 185.449C563.622 184.441 563.214 183.325 563.142 182.101H568.218C568.314 182.869 568.686 183.505 569.334 184.009C570.006 184.513 570.834 184.765 571.818 184.765C572.778 184.765 573.522 184.573 574.05 184.189C574.602 183.805 574.878 183.313 574.878 182.713C574.878 182.065 574.542 181.585 573.87 181.273C573.222 180.937 572.178 180.577 570.738 180.193C569.25 179.833 568.026 179.461 567.066 179.077C566.13 178.693 565.314 178.105 564.618 177.313C563.946 176.521 563.61 175.453 563.61 174.109C563.61 173.005 563.922 171.997 564.546 171.085C565.194 170.173 566.106 169.453 567.282 168.925C568.482 168.397 569.886 168.133 571.494 168.133C573.87 168.133 575.766 168.733 577.182 169.933C578.598 171.109 579.378 172.705 579.522 174.721H574.698C574.626 173.929 574.29 173.305 573.69 172.849C573.114 172.369 572.334 172.129 571.35 172.129C570.438 172.129 569.73 172.297 569.226 172.633C568.746 172.969 568.506 173.437 568.506 174.037C568.506 174.709 568.842 175.225 569.514 175.585C570.186 175.921 571.23 176.269 572.646 176.629C574.086 176.989 575.274 177.361 576.21 177.745C577.146 178.129 577.95 178.729 578.622 179.545C579.318 180.337 579.678 181.393 579.702 182.713C579.702 183.865 579.378 184.897 578.73 185.809C578.106 186.721 577.194 187.441 575.994 187.969C574.818 188.473 573.438 188.725 571.854 188.725Z" fill="#B08DFF"/>
<defs>
<linearGradient id="paint0_linear_166_158" x1="104.806" y1="40.3603" x2="116.392" y2="202.754" gradientUnits="userSpaceOnUse">
<stop stop-color="#7749E6"/>
<stop offset="1" stop-color="#442675"/>
</linearGradient>
<linearGradient id="paint1_linear_166_158" x1="183.133" y1="34.772" x2="194.719" y2="197.166" gradientUnits="userSpaceOnUse">
<stop stop-color="#7749E6"/>
<stop offset="1" stop-color="#442675"/>
</linearGradient>
<linearGradient id="paint2_linear_166_158" x1="280.998" y1="27.7897" x2="292.584" y2="190.183" gradientUnits="userSpaceOnUse">
<stop stop-color="#7749E6"/>
<stop offset="1" stop-color="#442675"/>
</linearGradient>
<linearGradient id="paint3_linear_166_158" x1="362.529" y1="21.9729" x2="374.115" y2="184.367" gradientUnits="userSpaceOnUse">
<stop stop-color="#7749E6"/>
<stop offset="1" stop-color="#442675"/>
</linearGradient>
<linearGradient id="paint4_linear_166_158" x1="460.273" y1="14.9993" x2="471.859" y2="177.393" gradientUnits="userSpaceOnUse">
<stop stop-color="#7749E6"/>
<stop offset="1" stop-color="#442675"/>
</linearGradient>
<linearGradient id="paint5_linear_166_158" x1="576.284" y1="6.72242" x2="587.87" y2="169.116" gradientUnits="userSpaceOnUse">
<stop stop-color="#7749E6"/>
<stop offset="1" stop-color="#442675"/>
</linearGradient>
<linearGradient id="paint6_linear_166_158" x1="332.166" y1="143.508" x2="332.169" y2="150.861" gradientUnits="userSpaceOnUse">
<stop stop-color="#7749E6"/>
<stop offset="1" stop-color="#442675"/>
</linearGradient>
</defs>
</svg>
