<svg width="1377" height="421" viewBox="0 0 1377 421" fill="none" xmlns="http://www.w3.org/2000/svg">
<g filter="url(#filter0_i_68_16)">
<ellipse cx="208" cy="214" rx="42" ry="45" fill="#2D6BCF"/>
</g>
<path d="M247.5 214C247.5 237.637 229.656 256.5 208 256.5C186.344 256.5 168.5 237.637 168.5 214C168.5 190.363 186.344 171.5 208 171.5C229.656 171.5 247.5 190.363 247.5 214Z" stroke="black" stroke-opacity="0.12" stroke-width="5"/>
<g filter="url(#filter1_i_68_16)">
<path d="M0 160.567L23.1395 202.673L70.3442 262.324L89.7814 282.375L112.458 298.415C112.458 298.415 149.481 327.99 156.423 328.491C163.365 328.992 199 332 199 332V312.952L149.481 267.838L112.458 227.737L89.7814 193.651L70.3442 146.532L64.3279 134L0 160.567Z" fill="#2D6BCF"/>
</g>
<path d="M114.018 296.462L113.961 296.416L113.902 296.374L91.4148 280.468L72.2266 260.674L25.2298 201.286L3.53643 161.811L63.0973 137.213L68.06 147.55L87.4703 194.604L87.5639 194.831L87.6999 195.035L110.377 229.121L110.487 229.287L110.621 229.433L147.645 269.534L147.718 269.613L147.798 269.686L196.5 314.056V329.281C195.666 329.21 194.666 329.126 193.533 329.031C190.083 328.741 185.411 328.35 180.522 327.942C170.754 327.128 160.092 326.25 156.603 325.998C156.299 325.976 155.372 325.694 153.678 324.829C152.104 324.024 150.164 322.876 147.972 321.474C143.593 318.675 138.366 314.969 133.32 311.252C128.281 307.541 123.454 303.842 119.885 301.07C118.101 299.684 116.633 298.531 115.611 297.725C115.318 297.493 115.061 297.29 114.844 297.118C114.684 296.991 114.546 296.881 114.431 296.79C114.295 296.682 114.192 296.6 114.122 296.545L114.044 296.482L114.025 296.467L114.02 296.463L114.019 296.462C114.019 296.462 114.018 296.462 112.458 298.415L114.018 296.462Z" stroke="black" stroke-opacity="0.12" stroke-width="5"/>
<g filter="url(#filter2_i_68_16)">
<path d="M196.659 332.781L154 359.851L182.285 417L223.553 388.426L265.285 349.324L301.916 311.225L318.145 286.661L320 260.593L307.017 225L301.916 231.517L252.302 288.666L196.659 332.781Z" fill="#2D6BCF"/>
</g>
<path d="M196.659 332.781L154 359.851L182.285 417L223.553 388.426L265.285 349.324L301.916 311.225L318.145 286.661L320 260.593L307.017 225L301.916 231.517L252.302 288.666L196.659 332.781Z" stroke="black" stroke-opacity="0.12" stroke-width="5"/>
<g filter="url(#filter3_i_68_16)">
<path d="M107.47 141.092L94 185.537V196.523C94 202.016 107.47 215 107.47 215L111.65 210.506C111.65 210.506 140.447 166.56 143.698 160.568C146.949 154.576 198.505 105.137 198.505 105.137C211.51 96.1486 237.892 78.171 239.378 78.171C240.864 78.171 277 58.196 277 58.196C277 58.196 251.454 6.76002 248.668 3.26467C245.881 -0.230684 199.991 32.0287 198.505 33.2272C197.019 34.4257 165.063 63.6891 149.272 78.171L107.47 141.092Z" fill="#2D6BCF"/>
</g>
<path d="M107.47 141.092L94 185.537V196.523C94 202.016 107.47 215 107.47 215L111.65 210.506C111.65 210.506 140.447 166.56 143.698 160.568C146.949 154.576 198.505 105.137 198.505 105.137C211.51 96.1486 237.892 78.171 239.378 78.171C240.864 78.171 277 58.196 277 58.196C277 58.196 251.454 6.76002 248.668 3.26467C245.881 -0.230684 199.991 32.0287 198.505 33.2272C197.019 34.4257 165.063 63.6891 149.272 78.171L107.47 141.092Z" stroke="black" stroke-opacity="0.12" stroke-width="5"/>
<g filter="url(#filter4_i_68_16)">
<path d="M276.075 165.5L211 105.5V99.5L228.198 95L244.003 92L292.809 117L357.884 187L396 252.5L338.827 282L317.445 228.5L276.075 165.5Z" fill="#2D6BCF"/>
</g>
<path d="M276.075 165.5L211 105.5V99.5L228.198 95L244.003 92L292.809 117L357.884 187L396 252.5L338.827 282L317.445 228.5L276.075 165.5Z" stroke="black" stroke-opacity="0.12" stroke-width="5"/>
<g filter="url(#filter5_i_68_16)">
<path d="M560.9 286.6C544.1 286.6 528 284.4 512.6 280C497.2 275.4 484.8 269.5 475.4 262.3L491.9 225.7C500.9 232.1 511.5 237.4 523.7 241.6C536.1 245.6 548.6 247.6 561.2 247.6C570.8 247.6 578.5 246.7 584.3 244.9C590.3 242.9 594.7 240.2 597.5 236.8C600.3 233.4 601.7 229.5 601.7 225.1C601.7 219.5 599.5 215.1 595.1 211.9C590.7 208.5 584.9 205.8 577.7 203.8C570.5 201.6 562.5 199.6 553.7 197.8C545.1 195.8 536.4 193.4 527.6 190.6C519 187.8 511.1 184.2 503.9 179.8C496.7 175.4 490.8 169.6 486.2 162.4C481.8 155.2 479.6 146 479.6 134.8C479.6 122.8 482.8 111.9 489.2 102.1C495.8 92.1 505.6 84.2 518.6 78.4C531.8 72.4 548.3 69.4 568.1 69.4C581.3 69.4 594.3 71 607.1 74.2C619.9 77.2 631.2 81.8 641 88L626 124.9C616.2 119.3 606.4 115.2 596.6 112.6C586.8 109.8 577.2 108.4 567.8 108.4C558.4 108.4 550.7 109.5 544.7 111.7C538.7 113.9 534.4 116.8 531.8 120.4C529.2 123.8 527.9 127.8 527.9 132.4C527.9 137.8 530.1 142.2 534.5 145.6C538.9 148.8 544.7 151.4 551.9 153.4C559.1 155.4 567 157.4 575.6 159.4C584.4 161.4 593.1 163.7 601.7 166.3C610.5 168.9 618.5 172.4 625.7 176.8C632.9 181.2 638.7 187 643.1 194.2C647.7 201.4 650 210.5 650 221.5C650 233.3 646.7 244.1 640.1 253.9C633.5 263.7 623.6 271.6 610.4 277.6C597.4 283.6 580.9 286.6 560.9 286.6ZM742.009 285.4C723.609 285.4 707.409 281.8 693.409 274.6C679.609 267.4 668.909 257.6 661.309 245.2C653.709 232.6 649.909 218.3 649.909 202.3C649.909 186.1 653.609 171.8 661.009 159.4C668.609 146.8 678.909 137 691.909 130C704.909 122.8 719.609 119.2 736.009 119.2C751.809 119.2 766.009 122.6 778.609 129.4C791.409 136 801.509 145.6 808.909 158.2C816.309 170.6 820.009 185.5 820.009 202.9C820.009 204.7 819.909 206.8 819.709 209.2C819.509 211.4 819.309 213.5 819.109 215.5H688.009V188.2H794.509L776.509 196.3C776.509 187.9 774.809 180.6 771.409 174.4C768.009 168.2 763.309 163.4 757.309 160C751.309 156.4 744.309 154.6 736.309 154.6C728.309 154.6 721.209 156.4 715.009 160C709.009 163.4 704.309 168.3 700.909 174.7C697.509 180.9 695.809 188.3 695.809 196.9V204.1C695.809 212.9 697.709 220.7 701.509 227.5C705.509 234.1 711.009 239.2 718.009 242.8C725.209 246.2 733.609 247.9 743.209 247.9C751.809 247.9 759.309 246.6 765.709 244C772.309 241.4 778.309 237.5 783.709 232.3L808.609 259.3C801.209 267.7 791.909 274.2 780.709 278.8C769.509 283.2 756.609 285.4 742.009 285.4ZM836.466 283V73H927.366C946.166 73 962.366 76.1 975.966 82.3C989.566 88.3 1000.07 97 1007.47 108.4C1014.87 119.8 1018.57 133.4 1018.57 149.2C1018.57 164.8 1014.87 178.3 1007.47 189.7C1000.07 201.1 989.566 209.9 975.966 216.1C962.366 222.1 946.166 225.1 927.366 225.1H863.466L885.066 203.2V283H836.466ZM885.066 208.6L863.466 185.5H924.666C939.666 185.5 950.866 182.3 958.266 175.9C965.666 169.5 969.366 160.6 969.366 149.2C969.366 137.6 965.666 128.6 958.266 122.2C950.866 115.8 939.666 112.6 924.666 112.6H863.466L885.066 89.5V208.6ZM1129.5 283V251.5L1126.5 244.6V188.2C1126.5 178.2 1123.4 170.4 1117.2 164.8C1111.2 159.2 1101.9 156.4 1089.3 156.4C1080.7 156.4 1072.2 157.8 1063.8 160.6C1055.6 163.2 1048.6 166.8 1042.8 171.4L1026 138.7C1034.8 132.5 1045.4 127.7 1057.8 124.3C1070.2 120.9 1082.8 119.2 1095.6 119.2C1120.2 119.2 1139.3 125 1152.9 136.6C1166.5 148.2 1173.3 166.3 1173.3 190.9V283H1129.5ZM1080.3 285.4C1067.7 285.4 1056.9 283.3 1047.9 279.1C1038.9 274.7 1032 268.8 1027.2 261.4C1022.4 254 1020 245.7 1020 236.5C1020 226.9 1022.3 218.5 1026.9 211.3C1031.7 204.1 1039.2 198.5 1049.4 194.5C1059.6 190.3 1072.9 188.2 1089.3 188.2H1132.2V215.5H1094.4C1083.4 215.5 1075.8 217.3 1071.6 220.9C1067.6 224.5 1065.6 229 1065.6 234.4C1065.6 240.4 1067.9 245.2 1072.5 248.8C1077.3 252.2 1083.8 253.9 1092 253.9C1099.8 253.9 1106.8 252.1 1113 248.5C1119.2 244.7 1123.7 239.2 1126.5 232L1133.7 253.6C1130.3 264 1124.1 271.9 1115.1 277.3C1106.1 282.7 1094.5 285.4 1080.3 285.4ZM1215.13 343.6C1206.73 343.6 1198.43 342.3 1190.23 339.7C1182.03 337.1 1175.33 333.5 1170.12 328.9L1187.23 295.6C1190.83 298.8 1194.93 301.3 1199.53 303.1C1204.33 304.9 1209.03 305.8 1213.63 305.8C1220.23 305.8 1225.43 304.2 1229.23 301C1233.23 298 1236.83 292.9 1240.03 285.7L1248.43 265.9L1252.03 260.8L1309.93 121.6H1354.93L1282.03 292.9C1276.83 305.9 1270.83 316.1 1264.03 323.5C1257.43 330.9 1250.03 336.1 1241.83 339.1C1233.83 342.1 1224.93 343.6 1215.13 343.6ZM1242.73 289.3L1170.72 121.6H1219.03L1274.83 256.6L1242.73 289.3Z" fill="#1B5ABF"/>
</g>
<defs>
<filter id="filter0_i_68_16" x="166" y="169" width="84" height="94" filterUnits="userSpaceOnUse" color-interpolation-filters="sRGB">
<feFlood flood-opacity="0" result="BackgroundImageFix"/>
<feBlend mode="normal" in="SourceGraphic" in2="BackgroundImageFix" result="shape"/>
<feColorMatrix in="SourceAlpha" type="matrix" values="0 0 0 0 0 0 0 0 0 0 0 0 0 0 0 0 0 0 127 0" result="hardAlpha"/>
<feOffset dy="4"/>
<feGaussianBlur stdDeviation="2"/>
<feComposite in2="hardAlpha" operator="arithmetic" k2="-1" k3="1"/>
<feColorMatrix type="matrix" values="0 0 0 0 0 0 0 0 0 0 0 0 0 0 0 0 0 0 0.25 0"/>
<feBlend mode="normal" in2="shape" result="effect1_innerShadow_68_16"/>
</filter>
<filter id="filter1_i_68_16" x="0" y="134" width="199" height="199" filterUnits="userSpaceOnUse" color-interpolation-filters="sRGB">
<feFlood flood-opacity="0" result="BackgroundImageFix"/>
<feBlend mode="normal" in="SourceGraphic" in2="BackgroundImageFix" result="shape"/>
<feColorMatrix in="SourceAlpha" type="matrix" values="0 0 0 0 0 0 0 0 0 0 0 0 0 0 0 0 0 0 127 0" result="hardAlpha"/>
<feOffset dy="4"/>
<feGaussianBlur stdDeviation="0.5"/>
<feComposite in2="hardAlpha" operator="arithmetic" k2="-1" k3="1"/>
<feColorMatrix type="matrix" values="0 0 0 0 0 0 0 0 0 0 0 0 0 0 0 0 0 0 0.25 0"/>
<feBlend mode="normal" in2="shape" result="effect1_innerShadow_68_16"/>
</filter>
<filter id="filter2_i_68_16" x="150.762" y="219.914" width="171.77" height="201.789" filterUnits="userSpaceOnUse" color-interpolation-filters="sRGB">
<feFlood flood-opacity="0" result="BackgroundImageFix"/>
<feBlend mode="normal" in="SourceGraphic" in2="BackgroundImageFix" result="shape"/>
<feColorMatrix in="SourceAlpha" type="matrix" values="0 0 0 0 0 0 0 0 0 0 0 0 0 0 0 0 0 0 127 0" result="hardAlpha"/>
<feOffset dy="4"/>
<feGaussianBlur stdDeviation="0.5"/>
<feComposite in2="hardAlpha" operator="arithmetic" k2="-1" k3="1"/>
<feColorMatrix type="matrix" values="0 0 0 0 0 0 0 0 0 0 0 0 0 0 0 0 0 0 0.25 0"/>
<feBlend mode="normal" in2="shape" result="effect1_innerShadow_68_16"/>
</filter>
<filter id="filter3_i_68_16" x="91.5" y="0.500488" width="188.803" height="219.066" filterUnits="userSpaceOnUse" color-interpolation-filters="sRGB">
<feFlood flood-opacity="0" result="BackgroundImageFix"/>
<feBlend mode="normal" in="SourceGraphic" in2="BackgroundImageFix" result="shape"/>
<feColorMatrix in="SourceAlpha" type="matrix" values="0 0 0 0 0 0 0 0 0 0 0 0 0 0 0 0 0 0 127 0" result="hardAlpha"/>
<feOffset dy="4"/>
<feGaussianBlur stdDeviation="0.5"/>
<feComposite in2="hardAlpha" operator="arithmetic" k2="-1" k3="1"/>
<feColorMatrix type="matrix" values="0 0 0 0 0 0 0 0 0 0 0 0 0 0 0 0 0 0 0.25 0"/>
<feBlend mode="normal" in2="shape" result="effect1_innerShadow_68_16"/>
</filter>
<filter id="filter4_i_68_16" x="208.5" y="89.3838" width="190.984" height="197.1" filterUnits="userSpaceOnUse" color-interpolation-filters="sRGB">
<feFlood flood-opacity="0" result="BackgroundImageFix"/>
<feBlend mode="normal" in="SourceGraphic" in2="BackgroundImageFix" result="shape"/>
<feColorMatrix in="SourceAlpha" type="matrix" values="0 0 0 0 0 0 0 0 0 0 0 0 0 0 0 0 0 0 127 0" result="hardAlpha"/>
<feOffset dy="4"/>
<feGaussianBlur stdDeviation="0.5"/>
<feComposite in2="hardAlpha" operator="arithmetic" k2="-1" k3="1"/>
<feColorMatrix type="matrix" values="0 0 0 0 0 0 0 0 0 0 0 0 0 0 0 0 0 0 0.25 0"/>
<feBlend mode="normal" in2="shape" result="effect1_innerShadow_68_16"/>
</filter>
<filter id="filter5_i_68_16" x="475.4" y="69.3999" width="879.525" height="275.2" filterUnits="userSpaceOnUse" color-interpolation-filters="sRGB">
<feFlood flood-opacity="0" result="BackgroundImageFix"/>
<feBlend mode="normal" in="SourceGraphic" in2="BackgroundImageFix" result="shape"/>
<feColorMatrix in="SourceAlpha" type="matrix" values="0 0 0 0 0 0 0 0 0 0 0 0 0 0 0 0 0 0 127 0" result="hardAlpha"/>
<feOffset dy="4"/>
<feGaussianBlur stdDeviation="0.5"/>
<feComposite in2="hardAlpha" operator="arithmetic" k2="-1" k3="1"/>
<feColorMatrix type="matrix" values="0 0 0 0 0 0 0 0 0 0 0 0 0 0 0 0 0 0 0.25 0"/>
<feBlend mode="normal" in2="shape" result="effect1_innerShadow_68_16"/>
</filter>
</defs>
</svg>
