<svg xmlns="http://www.w3.org/2000/svg" xmlns:xlink="http://www.w3.org/1999/xlink" version="1.1" id="Layer_1" x="0px" y="0px" viewBox="0 0 320 126" style="enable-background:new 0 0 320 126;" xml:space="preserve" width="320"  height="126" >
<style type="text/css">
	.st0{fill:#FDFF00;}
</style>
<style type="text/css">
    :root {
        --accent-foreground: 24 9.8% 10%;
    }

    @media (prefers-color-scheme: dark) {
        :root {
            --accent-foreground: 24 9.8% 90%;
        }
    }
</style>
<g fill="hsl(var(--accent-foreground))">
	<path d="M29.9,46.8H18.1v35.3h-5.9V46.8H0.5v-5.9h29.4V46.8z"/>
	<path d="M62.3,82.2H47.6c-6.5,0-11.7-5.3-11.8-11.8v-5.9c0-6.5,5.3-11.7,11.8-11.8h5.9c6.5,0,11.7,5.3,11.8,11.8v5.9H41.7   c0,3.2,2.6,5.9,5.9,5.9h14.7V82.2z M59.4,64.5c0-3.2-2.6-5.9-5.9-5.9h-5.9c-3.2,0-5.9,2.6-5.9,5.9H59.4z"/>
	<path d="M77,52.7V55c1.3-1.6,3.3-2.3,5.9-2.3h8.8c5.9,0,8.8,2.9,8.8,8.8v2.9h-5.9v-2.9c0.2-1.4-0.8-2.7-2.2-2.9c-0.3,0-0.5,0-0.8,0   h-8.8c-3.9,0-5.9,2-5.9,5.9v17.7H71V52.7H77z"/>
	<path d="M135.9,82.2H130V61.5c0.2-1.4-0.8-2.7-2.2-2.9c-0.2,0-0.5,0-0.7,0h-2.9v23.6h-5.9V58.6h-5.9v23.6h-5.9V52.7H130   c3.9,0,5.9,2,5.9,5.9V82.2z"/>
	<path d="M165.4,82.2h-17.7v-5.9h5.9V58.6h-5.9v-5.9h11.8v23.5h5.9V82.2z M159.5,43.9c0,0.8-0.3,1.5-0.9,2.1c-1.2,1.1-3,1.1-4.2,0   c-0.6-0.5-0.9-1.3-0.9-2.1c0-1.6,1.3-2.9,2.9-2.9S159.5,42.2,159.5,43.9z"/>
	<path d="M183,52.7v1.5c1.8-1,3.8-1.5,5.9-1.5h5.9c6.5,0,11.8,5.2,11.8,11.7c0,0,0,0,0,0.1v17.7h-5.9V64.5c-0.1-3.2-2.7-5.8-5.9-5.9   h-5.9c-3.2,0.1-5.8,2.7-5.9,5.9v17.7h-5.9V52.7H183z"/>
	<path d="M241.9,82.2h-20.6c-5.9,0-8.8-2.9-8.8-8.8s2.9-8.8,8.8-8.8H236c-0.1-3.2-2.7-5.8-5.9-5.9h-14.7v-5.9h14.7   c6.5,0,11.7,5.3,11.8,11.8V82.2z M236,70.4h-17.7v5.9H236V70.4z"/>
	<path d="M274.3,82.2h-23.6v-5.9h8.8V46.8h-8.8v-5.9h14.7v35.3h8.8L274.3,82.2z"/>
	<path d="M290.4,67.6c0,4,3.3,7.3,7.3,7.3h7.3c4,0,7.3-3.3,7.3-7.3s-3.3-7.3-7.3-7.3h-7.3V53h7.3c4,0,7.3-3.2,7.3-7.3   c0-1.9-0.8-3.8-2.1-5.2c-1.3-1.4-3.2-2.2-5.1-2.2h-7.3c-4,0-7.3,3.3-7.3,7.3h-7.3c0-8,6.5-14.6,14.5-14.6l0,0h7.3   c8.1,0,14.6,6.5,14.6,14.6l0,0c0,4.4-2.1,8-6.2,10.9c4.1,2.9,6.2,6.6,6.2,10.9c0,8-6.5,14.6-14.5,14.6l0,0h-7.3   c-8,0-14.6-6.5-14.6-14.5v-0.1h7.2V67.6z"/>
	<polygon class="st0" points="106.7,24.1 141.1,0 141.1,18.3 106.7,42.4  "/>
</g>
</svg>