<svg xmlns:xlink="http://www.w3.org/1999/xlink" width="107" height="32" fill="none" xmlns="http://www.w3.org/2000/svg"><path d="M14.34 2.924a.358.358 0 00-.36.358v12.47c0 2.5-.556 4.073-1.403 5.02-.84.94-2.018 1.323-3.402 1.323-1.365 0-2.526-.382-3.354-1.32-.835-.948-1.385-2.523-1.385-5.024v-4.113a.358.358 0 00-.358-.358l-1.659.005-.318.002c-.124 0-.248-.003-.55-.007l-.233-.003a.359.359 0 00-.363.359v4.05c0 3.455.864 5.84 2.36 7.36 1.497 1.522 3.57 2.117 5.86 2.117 2.291 0 4.356-.595 5.845-2.117 1.488-1.52 2.342-3.941 2.342-7.36V3.283a.358.358 0 00-.358-.358H14.34zM1.075 7.723a.357.357 0 01-.12-.267V3.282c0-.198.16-.358.358-.358h2.765c.198 0 .358.16.358.358v4.175a.357.357 0 01-.119.267v.087h-.183a.36.36 0 01-.056.005c-.963 0-1.405.002-1.662.003h-.311c-.132 0-.263 0-.596-.003l-.198-.001a.36.36 0 01-.06-.006h-.176v-.086zM24.392 10.345c1.446-1.311 3.087-2.33 5.239-2.33 1.778 0 3.129.56 4.021 1.7.88 1.122 1.267 2.747 1.267 4.78v9.923c0 .198-.16.359-.358.359H31.83a.358.358 0 01-.358-.359V14.85c0-1.443-.232-2.395-.663-2.982-.412-.56-1.052-.849-2.043-.849-1.478 0-2.506.708-4.073 2.211v11.19c0 .197-.16.358-.358.358h-2.732a.358.358 0 01-.358-.359V8.76c0-.197.16-.358.358-.358h2.265c.184 0 .338.139.357.322l.168 1.622zM39.825 8.401a.358.358 0 00-.358.358v15.66c0 .197.16.358.358.358h2.732c.197 0 .358-.16.358-.359V8.76a.358.358 0 00-.358-.358h-2.732zM48.953 4.02a.358.358 0 00-.357.33l-.31 4.072-2.22.141a.358.358 0 00-.336.358v1.997c0 .198.16.358.358.358h2.04v8.31c0 1.58.296 2.981 1.093 3.991.81 1.027 2.087 1.586 3.896 1.586 1.059 0 2.202-.305 3.108-.597a.358.358 0 00.237-.433l-.533-1.998a.359.359 0 00-.469-.244c-.533.193-1.213.397-1.71.397-.86 0-1.36-.248-1.663-.648-.32-.42-.477-1.081-.477-2.023v-8.34h4.006c.198 0 .358-.16.358-.359V8.76a.358.358 0 00-.358-.358H51.61V4.378a.358.358 0 00-.358-.358h-2.299z" fill="#121212"/><path fill-rule="evenodd" clip-rule="evenodd" d="M67.042 8.015c-1.839 0-3.56.877-4.98 1.95l-.16-1.251a.358.358 0 00-.356-.313H59.28a.358.358 0 00-.359.358v22.265c0 .198.16.358.359.358h2.731c.198 0 .358-.16.358-.358V25.73l-.049-2.023c1.344.904 2.72 1.456 4.122 1.456 3.934 0 7.354-3.327 7.354-8.8 0-2.482-.568-4.567-1.712-6.04-1.153-1.485-2.861-2.31-5.043-2.31zM62.37 20.766v-7.879c1.526-1.3 2.773-1.933 3.973-1.933 1.427 0 2.376.532 2.985 1.433.625.926.921 2.284.921 3.976 0 1.876-.477 3.348-1.242 4.341-.759.987-1.813 1.52-3.03 1.52-.94 0-2.24-.388-3.607-1.458zM83.367 8.015c-2.696 0-5.03 1.134-6.553 2.084a.358.358 0 00-.12.484l1.066 1.836a.358.358 0 00.507.119c1.243-.822 2.87-1.616 4.633-1.616 1.233 0 1.946.44 2.37 1.06.39.574.564 1.346.597 2.193-3.293.375-5.731.984-7.366 1.94-.85.496-1.493 1.092-1.923 1.806-.43.716-.632 1.529-.632 2.438 0 1.493.544 2.705 1.472 3.54.923.831 2.196 1.264 3.616 1.264 1.968 0 3.707-.911 5.178-2.016l.164 1.316c.022.18.175.314.355.314h2.266c.197 0 .358-.16.358-.359v-9.601c0-1.992-.425-3.697-1.409-4.91-.995-1.226-2.516-1.892-4.58-1.892zm2.506 12.405c-1.488 1.267-2.644 1.9-4.039 1.9-.75 0-1.378-.175-1.81-.515-.42-.33-.697-.848-.697-1.64 0-.44.102-.827.321-1.175.22-.35.573-.682 1.106-.986 1.022-.585 2.657-1.044 5.12-1.364v3.78z" fill="#121212"/><path d="M90.958 8.52h-.09l.034.084a.358.358 0 00-.008.292l6.446 15.571-.326 1.031c-.65 1.885-1.729 3.105-3.324 3.105-.343 0-.798-.114-1.133-.211a.358.358 0 00-.447.256l-.533 2.094a.358.358 0 00.225.425 5.895 5.895 0 002.021.343c1.732 0 3.055-.628 4.086-1.668 1.019-1.028 1.74-2.446 2.314-4.011v-.002L106.32 8.88a.358.358 0 00-.022-.292l.024-.068h-.072a.36.36 0 00-.267-.12h-2.665a.359.359 0 00-.34.245l-2.899 8.667-.002.007c-.163.521-.329 1.07-.498 1.627-.198.653-.399 1.318-.602 1.96a228.02 228.02 0 00-1.286-3.604l-3.3-8.671a.358.358 0 00-.334-.23h-2.832c-.103 0-.2.043-.267.119z" fill="#121212"/><path fill-rule="evenodd" clip-rule="evenodd" d="M37.469 1.012a.358.358 0 01.343-.024c.119.055.227.108.33.159.283.138.537.263.89.369.472.142 1.122.248 2.192.248.726 0 1.3.212 1.694.603.393.39.563.917.563 1.463 0 1.197-1.021 2.066-2.258 2.066-1.051 0-2.033-.699-2.731-1.568-.703-.874-1.188-2.007-1.188-3.015 0-.122.062-.236.165-.301z" fill="#389E0D"/></svg>