<svg xmlns="http://www.w3.org/2000/svg" viewBox="0 0 541.86 425.16"><defs><style>.cls-1{fill:#ffda65;stroke:#ffda65;}.cls-1,.cls-2,.cls-3,.cls-4,.cls-5,.cls-6,.cls-7,.cls-8,.cls-9{stroke-miterlimit:10;}.cls-2{fill:#fcca0a;stroke:#fcca0a;}.cls-3{fill:#e89909;stroke:#e89909;}.cls-4{fill:#ffec7a;stroke:#ffec7a;}.cls-5{fill:#fbb531;stroke:#fbb531;}.cls-6{fill:#fffccb;stroke:#fffccb;}.cls-7{fill:#fff9ff;stroke:#fff9ff;}.cls-8{fill:#cc7a02;stroke:#cc7a02;}.cls-9{fill:#e3a002;stroke:#e3a002;}</style></defs><title>Virtual_coins</title><g id="Слой_12" data-name="Слой 12"><path class="cls-1" d="M499.5,590.5c-1,.34-.16,4.15,0,11,.19,8.21-.85,9.43,0,13,.29,1.2,2,5.69,9,12s14.8,8.87,35,12a309.23,309.23,0,0,0,35,4c13.88.74,24.1.4,35,0a407.07,407.07,0,0,0,50-5,74.32,74.32,0,0,0,25-8c10.1-5.48,12.29-8.49,13-10a14.69,14.69,0,0,0,.73-2.07c1.54-4.88,1.5-8.95,1.27-13.93-.43-9.06-.67-13.6-2-14-1.49-.44-2.91,2.14-7,6a43.19,43.19,0,0,1-11,8,110.67,110.67,0,0,1-28,10c-4,.88-9,1.59-19,3-12.37,1.75-18.73,2.63-27,3-8,.36-14.51.15-19,0-3.23-.11-9.21-.32-16-1a208.14,208.14,0,0,1-32-6c-19-4.74-26.38-8.37-31-11a25,25,0,0,1-6.37-4.92C501.55,593,500.42,590.2,499.5,590.5Z" transform="translate(-468.5 -297.97)"/><path class="cls-2" d="M701.5,584.5c.33-4.48-3.51-8.43-6-11-5.23-5.39-11.3-7.18-18-9-14.81-4-22.21-6-29-7a304.22,304.22,0,0,0-47-3,347.7,347.7,0,0,0-47,4c-24.7,3.47-40.9,7.82-50,18-1.91,2.14-6.14,7-5,12,.82,3.62,4.12,5.83,8,8,14.85,8.32,25,10,25,10a389.06,389.06,0,0,0,47,5c21,.61,34.76,1,54-1a184.64,184.64,0,0,0,39-8C685.22,598.37,700.86,593.11,701.5,584.5Z" transform="translate(-468.5 -297.97)"/><path class="cls-3" d="M532.46,566.35c5.4-1.53,9.39-2,17.43-3,16.2-1.9,24.3-2.85,26.15-3,13-.88,22.31-.27,40.31,1,17.75,1.23,26.71,1.69,39.23,3.93s28.54,5.76,28.33,6.9c-.26,1.35-22.72-2.33-59.93-3.93-1.13,0-16.73,0-47.94,0-15.18,0-27.88.16-42.49,5.93,0,0-10.06,1.51-11.94,5.84l0,.09c-1.22,2.94.61,6.08,1.09,6.9,2.38,4.07,9.17,5.56,10.9,5.92,19.83,4.12,31.59,3.94,31.59,3.94,25.47-.4,19.67,1.56,43.59,1,20.88-.52,36.84-2.3,42.49-3,21.3-2.53,33.59-5.6,33.77-4.94s-17.33,6.31-38.13,9.87c-17,2.93-30.14,3.48-42.49,4-14.81.58-28-.27-54.48-2-16.22-1-24.42-1.91-30.51-7.88-4.42-4.35-8.22-11.86-5.45-17.76C516.44,570.9,523.31,569,532.46,566.35Z" transform="translate(-468.5 -297.97)"/><path class="cls-3" d="M652.5,567.5c-.06.51,3.18,1,12,4a39.12,39.12,0,0,1,9,4c3.1,2,5.76,3.63,6,6,.28,2.76-2.81,5.47-7,8-15.33,9.25-33,8.6-33,9s11.23.92,27-2c14.91-2.77,18.89-5.37,21-9,.14-.24,3.34-5.92,1-11-2.17-4.71-7.77-6-17-8C661.8,566.4,652.6,566.65,652.5,567.5Z" transform="translate(-468.5 -297.97)"/><path class="cls-4" d="M531.16,570.33A53,53,0,0,1,552.5,566c19.29-.51,12.32-1.75,30.9-2a370.05,370.05,0,0,1,50,2.63c14.64,1.83,27.85,4.43,27.79,4.89s-8.63-.82-22.11-1.71c-10.82-.72-18.44-.83-29.84-1-15.9-.21-24.84.09-41.46.64-1.72.06-9.53,1.1-25.16,3.17-6.9.91-13.53,1.88-15.63,6.47-1.43,3.14-.07,6.53-1.19,6.94-1.29.47-4.91-3.43-4.58-7.13C521.62,574.66,527.24,572.08,531.16,570.33Z" transform="translate(-468.5 -297.97)"/><path class="cls-5" d="M521.19,585.81c2.55,6.77,29.7,1.32,64.89-3.06,53.4-6.64,83.42-5.6,83.42-8.14s-33.57-4.44-45.32-5.1c-39.64-2.2-25.24,2-65.91,1-11.87-.28-26.13-.95-34,8.15C523,580.19,520.26,583.33,521.19,585.81Z" transform="translate(-468.5 -297.97)"/><path class="cls-5" d="M511.5,580.5" transform="translate(-468.5 -297.97)"/><path class="cls-5" d="M511.5,576.5c-2.12-1.77-8.44.42-11,5a10,10,0,0,0-1,7c.75,3,2.87,4.61,6,7,2.77,2.11,4.15,3.17,6,3,3.16-.28,6.16-3.89,6-7s-3.53-3.5-5-8C511.25,579.68,512.93,577.69,511.5,576.5Z" transform="translate(-468.5 -297.97)"/><path class="cls-4" d="M512.09,582.87c-.57-1.63-7.88-2.52-10.51-1.31a6,6,0,0,0-1.22.75,3.58,3.58,0,0,0-1.33,3.17c0,2.64.14,4,.47,4,.15,0,.33-.23.55-.74C509.38,585.92,512.49,584,512.09,582.87Z" transform="translate(-468.5 -297.97)"/><path class="cls-6" d="M499.5,590.5c.5-.73,11,7.9,27,14,4.26,1.62,14.38,5.2,45,7,21,1.24,35.57,2.1,56,0,17.75-1.82,32.73-3.36,51-11,13.23-5.53,22.44-11.87,23-11s-9.43,9.74-22,16c-2.67,1.33-10.63,5.08-32,9a293,293,0,0,1-51,5,259.33,259.33,0,0,1-33-2c-16.41-2.07-28-3.62-41-10C508.51,600.64,499,591.22,499.5,590.5Z" transform="translate(-468.5 -297.97)"/><path class="cls-7" d="M544.24,610.35c-1,.8-1.6,2.26-1,3.26s2.45,1.16,6.93,1.63c4.9.51,7.35.77,7.92.81,5.54.44,6.42,1,11.88,1.63s10,.72,18.81.82h21.78a8.63,8.63,0,0,0,4.95-1.63c.15-.12,2.5-2,2-3.26-.83-2-8.41-.7-21.78-.82-2.48,0-33.21-1.37-34.65-1.63a96.55,96.55,0,0,0-12.87-1.63A6,6,0,0,0,544.24,610.35Z" transform="translate(-468.5 -297.97)"/><polygon class="cls-8" points="31 315.53 37 325.53 44 331.53 68 339.53 68 315.53 54 309.53 40 300.53 31 315.53"/><polygon class="cls-8" points="31 293.53 31 315.53 40 304.53 40 300.53 31 293.53"/><polygon class="cls-8" points="232.52 291.53 216.71 304.39 200.9 311.32 193 339.03 206.83 336.06 216.71 333.09 232.52 324.19 234.5 313.3 234.5 297.47 232.52 291.53"/><polygon class="cls-9" points="174 318.53 164 343.53 181 341.53 193 339.53 201 311.53 174 318.53"/><polygon class="cls-9" points="68 339.53 91 343.53 106 344.53 96 325.53 93 319.53 68 315.53 68 339.53"/><polygon class="cls-9" points="103 341.53 123 342.53 145 342.53 166 340.53 167 342.53 164 343.53 154 344.53 134 345.53 118 345.53 104.75 344.53 103 341.53"/><path class="cls-8" d="M499.5,613.5c-.56.14-.52,2.79,0,5a15,15,0,0,0,3,6c4.57,5.6,13.25,9,16,10,2.23.84,4.33,1.61,8.58,3,2.59.87,5.12,1.67,8.31,2.46,0,0,1,.26,2.11.5,9,2,27,3.9,28,4,4.47.46,6.71.69,10,1,.78.06,9.39.77,17,1a281.86,281.86,0,0,0,33-1c15.83-1.39,19.41-3,35-5a88.55,88.55,0,0,0,11-2c2.5-.62,4.64-1.28,7-2,1.41-.43,4.66-1.44,9-3a45.57,45.57,0,0,0,9-4c1.91-1.16,3.3-2.23,4-4s.57-3.81,0-4-1.09,1.46-3,3c-1.22,1-1.56.78-4,2-3.46,1.73-3.87,2.71-7,4a26.92,26.92,0,0,1-3,1c-11.89,3.37-10.29,3.08-14,4-1.34.33-6.87,1.7-14,3a303.88,303.88,0,0,1-33,4c-40.7,2.61-73.58-1.08-87-5-1.37-.4-.79-.29-12-4-9-3-11.22-3.66-14-6a32.73,32.73,0,0,1-6-7C501,616.57,500.14,613.34,499.5,613.5Z" transform="translate(-468.5 -297.97)"/><path class="cls-1" d="M782.5,559.5c-1,.34-.16,4.15,0,11,.19,8.21-.85,9.43,0,13,.29,1.2,2,5.69,9,12s14.8,8.87,35,12a309.23,309.23,0,0,0,35,4c13.88.74,24.1.4,35,0a407.07,407.07,0,0,0,50-5,74.32,74.32,0,0,0,25-8c10.1-5.48,12.29-8.49,13-10a14.69,14.69,0,0,0,.73-2.07c1.54-4.88,1.5-8.95,1.27-13.93-.43-9.06-.67-13.6-2-14-1.49-.44-2.91,2.14-7,6a43.19,43.19,0,0,1-11,8,110.67,110.67,0,0,1-28,10c-4,.88-9,1.59-19,3-12.37,1.75-18.73,2.63-27,3-8,.36-14.51.15-19,0-3.23-.11-9.21-.32-16-1a208.14,208.14,0,0,1-32-6c-19-4.74-26.38-8.37-31-11a25,25,0,0,1-6.37-4.92C784.55,562,783.42,559.2,782.5,559.5Z" transform="translate(-468.5 -297.97)"/><path class="cls-2" d="M984.5,553.5c.33-4.48-3.51-8.43-6-11-5.23-5.39-11.3-7.18-18-9-14.81-4-22.21-6-29-7a304.22,304.22,0,0,0-47-3,347.7,347.7,0,0,0-47,4c-24.7,3.47-40.9,7.82-50,18-1.91,2.14-6.14,7-5,12,.82,3.62,4.12,5.83,8,8,14.85,8.32,25,10,25,10a389.06,389.06,0,0,0,47,5c21,.61,34.76,1,54-1a184.64,184.64,0,0,0,39-8C968.22,567.37,983.86,562.11,984.5,553.5Z" transform="translate(-468.5 -297.97)"/><path class="cls-3" d="M815.46,535.35c5.4-1.53,9.39-2,17.43-3,16.2-1.9,24.3-2.85,26.15-3,13-.88,22.31-.27,40.31,1,17.75,1.23,26.71,1.69,39.23,3.93s28.54,5.76,28.33,6.9c-.26,1.35-22.72-2.33-59.93-3.93-1.13,0-16.73,0-47.94,0-15.18,0-27.88.16-42.49,5.93,0,0-10.06,1.51-11.94,5.84l0,.09c-1.22,2.94.61,6.08,1.09,6.9,2.38,4.07,9.17,5.56,10.9,5.92,19.83,4.12,31.59,3.94,31.59,3.94,25.47-.4,19.67,1.56,43.59,1,20.88-.52,36.84-2.3,42.49-3,21.3-2.53,33.59-5.6,33.77-4.94s-17.33,6.31-38.13,9.87c-17,2.93-30.14,3.48-42.49,4-14.81.58-28-.27-54.48-2-16.22-1-24.42-1.91-30.51-7.88-4.42-4.35-8.22-11.86-5.45-17.76C799.44,539.9,806.31,538,815.46,535.35Z" transform="translate(-468.5 -297.97)"/><path class="cls-3" d="M935.5,536.5c-.06.51,3.18,1,12,4a39.12,39.12,0,0,1,9,4c3.1,2,5.76,3.63,6,6,.28,2.76-2.81,5.47-7,8-15.33,9.25-33,8.6-33,9s11.23.92,27-2c14.91-2.77,18.89-5.37,21-9,.14-.24,3.34-5.92,1-11-2.17-4.71-7.77-6-17-8C944.8,535.4,935.6,535.65,935.5,536.5Z" transform="translate(-468.5 -297.97)"/><path class="cls-4" d="M814.16,539.33A53,53,0,0,1,835.5,535c19.29-.51,12.32-1.75,30.9-2a370.05,370.05,0,0,1,50,2.63c14.64,1.83,27.85,4.43,27.79,4.89s-8.63-.82-22.11-1.71c-10.82-.72-18.44-.83-29.84-1-15.9-.21-24.84.09-41.46.64-1.72.06-9.53,1.1-25.16,3.17-6.9.91-13.53,1.88-15.63,6.47-1.43,3.14-.07,6.53-1.19,6.94-1.29.47-4.91-3.43-4.58-7.13C804.62,543.66,810.24,541.08,814.16,539.33Z" transform="translate(-468.5 -297.97)"/><path class="cls-5" d="M804.19,554.81c2.55,6.77,29.7,1.32,64.89-3.06,53.4-6.64,83.42-5.6,83.42-8.14s-33.57-4.44-45.32-5.1c-39.64-2.2-25.24,2-65.91,1-11.87-.28-26.13-.95-34,8.15C806,549.19,803.26,552.33,804.19,554.81Z" transform="translate(-468.5 -297.97)"/><path class="cls-5" d="M794.5,549.5" transform="translate(-468.5 -297.97)"/><path class="cls-5" d="M794.5,545.5c-2.12-1.77-8.44.42-11,5a10,10,0,0,0-1,7c.75,3,2.87,4.61,6,7,2.77,2.11,4.15,3.17,6,3,3.16-.28,6.16-3.89,6-7s-3.53-3.5-5-8C794.25,548.68,795.93,546.69,794.5,545.5Z" transform="translate(-468.5 -297.97)"/><path class="cls-4" d="M795.09,551.87c-.57-1.63-7.88-2.52-10.51-1.31a6,6,0,0,0-1.22.75,3.58,3.58,0,0,0-1.33,3.17c0,2.64.14,4,.47,4,.15,0,.33-.23.55-.74C792.38,554.92,795.49,553,795.09,551.87Z" transform="translate(-468.5 -297.97)"/><path class="cls-6" d="M782.5,559.5c.5-.73,11,7.9,27,14,4.26,1.62,14.38,5.2,45,7,21,1.24,35.57,2.1,56,0,17.75-1.82,32.73-3.36,51-11,13.23-5.53,22.44-11.87,23-11s-9.43,9.74-22,16c-2.67,1.33-10.63,5.08-32,9a293,293,0,0,1-51,5,259.33,259.33,0,0,1-33-2c-16.41-2.07-28-3.62-41-10C791.51,569.64,782,560.22,782.5,559.5Z" transform="translate(-468.5 -297.97)"/><path class="cls-7" d="M827.24,579.35c-1,.8-1.6,2.26-1,3.26s2.45,1.16,6.93,1.63c4.9.51,7.35.77,7.92.81,5.54.44,6.42,1,11.88,1.63s10,.72,18.81.82h21.78a8.63,8.63,0,0,0,4.95-1.63c.15-.12,2.5-2,2-3.26-.83-2-8.41-.7-21.78-.82-2.48,0-33.21-1.37-34.65-1.63a96.55,96.55,0,0,0-12.87-1.63A6,6,0,0,0,827.24,579.35Z" transform="translate(-468.5 -297.97)"/><polygon class="cls-8" points="314 284.53 320 294.53 327 300.53 351 308.53 351 284.53 337 278.53 323 269.53 314 284.53"/><polygon class="cls-8" points="314 262.53 314 284.53 323 273.53 323 269.53 314 262.53"/><polygon class="cls-8" points="515.52 260.53 499.71 273.39 483.9 280.32 476 308.03 489.83 305.06 499.71 302.09 515.52 293.19 517.5 282.3 517.5 266.47 515.52 260.53"/><polygon class="cls-9" points="457 287.53 447 312.53 464 310.53 476 308.53 484 280.53 457 287.53"/><polygon class="cls-9" points="351 308.53 374 312.53 389 313.53 379 294.53 376 288.53 351 284.53 351 308.53"/><polygon class="cls-9" points="386 310.53 406 311.53 428 311.53 449 309.53 450 311.53 447 312.53 437 313.53 417 314.53 401 314.53 387.75 313.53 386 310.53"/><path class="cls-8" d="M782.5,582.5c-.56.14-.52,2.79,0,5a15,15,0,0,0,3,6c4.57,5.6,13.25,9,16,10,2.23.84,4.33,1.61,8.58,3,2.59.87,5.12,1.67,8.31,2.46,0,0,1,.26,2.11.5,9,2,27,3.9,28,4,4.47.46,6.71.69,10,1,.78.06,9.39.77,17,1a281.86,281.86,0,0,0,33-1c15.83-1.39,19.41-3,35-5a88.55,88.55,0,0,0,11-2c2.5-.62,4.64-1.28,7-2,1.41-.43,4.66-1.44,9-3a45.57,45.57,0,0,0,9-4c1.91-1.16,3.3-2.23,4-4s.57-3.81,0-4-1.09,1.46-3,3c-1.22,1-1.56.78-4,2-3.46,1.73-3.87,2.71-7,4a26.92,26.92,0,0,1-3,1c-11.89,3.37-10.29,3.08-14,4-1.34.33-6.87,1.7-14,3a303.88,303.88,0,0,1-33,4c-40.7,2.61-73.58-1.08-87-5-1.37-.4-.79-.29-12-4-9-3-11.22-3.66-14-6a32.73,32.73,0,0,1-6-7C784,585.57,783.14,582.34,782.5,582.5Z" transform="translate(-468.5 -297.97)"/><path class="cls-1" d="M781.5,516.5c-1,.34-.16,4.15,0,11,.19,8.21-.85,9.43,0,13,.29,1.2,2,5.69,9,12s14.8,8.87,35,12a309.23,309.23,0,0,0,35,4c13.88.74,24.1.4,35,0a407.07,407.07,0,0,0,50-5,74.32,74.32,0,0,0,25-8c10.1-5.48,12.29-8.49,13-10a14.69,14.69,0,0,0,.73-2.07c1.54-4.88,1.5-8.95,1.27-13.93-.43-9.06-.67-13.6-2-14-1.49-.44-2.91,2.14-7,6a43.19,43.19,0,0,1-11,8,110.67,110.67,0,0,1-28,10c-4,.88-9,1.59-19,3-12.37,1.75-18.73,2.63-27,3-8,.36-14.51.15-19,0-3.23-.11-9.21-.32-16-1a208.14,208.14,0,0,1-32-6c-19-4.74-26.38-8.37-31-11a25,25,0,0,1-6.37-4.92C783.55,519,782.42,516.2,781.5,516.5Z" transform="translate(-468.5 -297.97)"/><path class="cls-2" d="M983.5,510.5c.33-4.48-3.51-8.43-6-11-5.23-5.39-11.3-7.18-18-9-14.81-4-22.21-6-29-7a304.22,304.22,0,0,0-47-3,347.7,347.7,0,0,0-47,4c-24.7,3.47-40.9,7.82-50,18-1.91,2.14-6.14,7-5,12,.82,3.62,4.12,5.83,8,8,14.85,8.32,25,10,25,10a389.06,389.06,0,0,0,47,5c21,.61,34.76,1,54-1a184.64,184.64,0,0,0,39-8C967.22,524.37,982.86,519.11,983.5,510.5Z" transform="translate(-468.5 -297.97)"/><path class="cls-3" d="M814.46,492.35c5.4-1.53,9.39-2,17.43-3,16.2-1.9,24.3-2.85,26.15-3,13-.88,22.31-.27,40.31,1,17.75,1.23,26.71,1.69,39.23,3.93s28.54,5.76,28.33,6.9c-.26,1.35-22.72-2.33-59.93-3.93-1.13-.05-16.73,0-47.94,0-15.18,0-27.88.16-42.49,5.93,0,0-10.06,1.51-11.94,5.84l0,.09c-1.22,2.94.61,6.08,1.09,6.9,2.38,4.07,9.17,5.56,10.9,5.92,19.83,4.12,31.59,3.94,31.59,3.94,25.47-.4,19.67,1.56,43.59,1,20.88-.52,36.84-2.3,42.49-3,21.3-2.53,33.59-5.6,33.77-4.94s-17.33,6.31-38.13,9.87c-17,2.93-30.14,3.48-42.49,4-14.81.58-28-.27-54.48-2-16.22-1-24.42-1.91-30.51-7.88-4.42-4.35-8.22-11.86-5.45-17.76C798.44,496.9,805.31,495,814.46,492.35Z" transform="translate(-468.5 -297.97)"/><path class="cls-3" d="M934.5,493.5c-.06.51,3.18,1,12,4a39.12,39.12,0,0,1,9,4c3.1,1.95,5.76,3.63,6,6,.28,2.76-2.81,5.47-7,8-15.33,9.25-33,8.6-33,9s11.23.92,27-2c14.91-2.77,18.89-5.37,21-9,.14-.24,3.34-5.92,1-11-2.17-4.71-7.77-6-17-8C943.8,492.4,934.6,492.65,934.5,493.5Z" transform="translate(-468.5 -297.97)"/><path class="cls-4" d="M813.16,496.33A53,53,0,0,1,834.5,492c19.29-.51,12.32-1.75,30.9-2a370.05,370.05,0,0,1,50,2.63c14.64,1.83,27.85,4.43,27.79,4.89s-8.63-.82-22.11-1.71c-10.82-.72-18.44-.83-29.84-1-15.9-.21-24.84.09-41.46.64-1.72.06-9.53,1.1-25.16,3.17-6.9.91-13.53,1.88-15.63,6.47-1.43,3.14-.07,6.53-1.19,6.94-1.29.47-4.91-3.43-4.58-7.13C803.62,500.66,809.24,498.08,813.16,496.33Z" transform="translate(-468.5 -297.97)"/><path class="cls-5" d="M803.19,511.81c2.55,6.77,29.7,1.32,64.89-3.06,53.4-6.64,83.42-5.6,83.42-8.14s-33.57-4.44-45.32-5.1c-39.64-2.2-25.24,2-65.91,1-11.87-.28-26.13-.95-34,8.15C805,506.19,802.26,509.33,803.19,511.81Z" transform="translate(-468.5 -297.97)"/><path class="cls-5" d="M793.5,506.5" transform="translate(-468.5 -297.97)"/><path class="cls-5" d="M793.5,502.5c-2.12-1.77-8.44.42-11,5a10,10,0,0,0-1,7c.75,3,2.87,4.61,6,7,2.77,2.11,4.15,3.17,6,3,3.16-.28,6.16-3.89,6-7s-3.53-3.5-5-8C793.25,505.68,794.93,503.69,793.5,502.5Z" transform="translate(-468.5 -297.97)"/><path class="cls-4" d="M794.09,508.87c-.57-1.63-7.88-2.52-10.51-1.31a6,6,0,0,0-1.22.75,3.58,3.58,0,0,0-1.33,3.17c0,2.64.14,4,.47,4,.15,0,.33-.23.55-.74C791.38,511.92,794.49,510,794.09,508.87Z" transform="translate(-468.5 -297.97)"/><path class="cls-6" d="M781.5,516.5c.5-.73,11,7.9,27,14,4.26,1.62,14.38,5.2,45,7,21,1.24,35.57,2.1,56,0,17.75-1.82,32.73-3.36,51-11,13.23-5.53,22.44-11.87,23-11s-9.43,9.74-22,16c-2.67,1.33-10.63,5.08-32,9a293,293,0,0,1-51,5,259.33,259.33,0,0,1-33-2c-16.41-2.07-28-3.62-41-10C790.51,526.64,781,517.22,781.5,516.5Z" transform="translate(-468.5 -297.97)"/><path class="cls-7" d="M826.24,536.35c-1,.8-1.6,2.26-1,3.26s2.45,1.16,6.93,1.63c4.9.51,7.35.77,7.92.81,5.54.44,6.42,1,11.88,1.63s10,.72,18.81.82h21.78a8.63,8.63,0,0,0,4.95-1.63c.15-.12,2.5-2,2-3.26-.83-2-8.41-.7-21.78-.82-2.48,0-33.21-1.37-34.65-1.63a96.55,96.55,0,0,0-12.87-1.63A6,6,0,0,0,826.24,536.35Z" transform="translate(-468.5 -297.97)"/><polygon class="cls-8" points="313 241.53 319 251.53 326 257.53 350 265.53 350 241.53 336 235.53 322 226.53 313 241.53"/><polygon class="cls-8" points="313 219.53 313 241.53 322 230.53 322 226.53 313 219.53"/><polygon class="cls-8" points="514.52 217.53 498.71 230.4 482.9 237.32 475 265.03 488.83 262.06 498.71 259.09 514.52 250.19 516.5 239.3 516.5 223.47 514.52 217.53"/><polygon class="cls-9" points="456 244.53 446 269.53 463 267.53 475 265.53 483 237.53 456 244.53"/><polygon class="cls-9" points="350 265.53 373 269.53 388 270.53 378 251.53 375 245.53 350 241.53 350 265.53"/><polygon class="cls-9" points="385 267.53 405 268.53 427 268.53 448 266.53 449 268.53 446 269.53 436 270.53 416 271.53 400 271.53 386.75 270.53 385 267.53"/><path class="cls-8" d="M781.5,539.5c-.56.14-.52,2.79,0,5a15,15,0,0,0,3,6c4.57,5.6,13.25,9,16,10,2.23.84,4.33,1.61,8.58,3,2.59.87,5.12,1.67,8.31,2.46,0,0,1,.26,2.11.5,9,2,27,3.9,28,4,4.47.46,6.71.69,10,1,.78.06,9.39.77,17,1a281.86,281.86,0,0,0,33-1c15.83-1.39,19.41-3,35-5a88.55,88.55,0,0,0,11-2c2.5-.62,4.64-1.28,7-2,1.41-.43,4.66-1.44,9-3a45.57,45.57,0,0,0,9-4c1.91-1.16,3.3-2.23,4-4s.57-3.81,0-4-1.09,1.46-3,3c-1.22,1-1.56.78-4,2-3.46,1.73-3.87,2.71-7,4a26.92,26.92,0,0,1-3,1c-11.89,3.37-10.29,3.08-14,4-1.34.33-6.87,1.7-14,3a303.88,303.88,0,0,1-33,4c-40.7,2.61-73.58-1.08-87-5-1.37-.4-.79-.29-12-4-9-3-11.22-3.66-14-6a32.73,32.73,0,0,1-6-7C783,542.57,782.14,539.34,781.5,539.5Z" transform="translate(-468.5 -297.97)"/><path class="cls-1" d="M788.5,468.5c-1,.34-.16,4.15,0,11,.19,8.21-.85,9.43,0,13,.29,1.2,2,5.69,9,12s14.8,8.87,35,12a309.23,309.23,0,0,0,35,4c13.88.74,24.1.4,35,0a407.07,407.07,0,0,0,50-5,74.32,74.32,0,0,0,25-8c10.1-5.48,12.29-8.49,13-10a14.69,14.69,0,0,0,.73-2.07c1.54-4.88,1.5-8.95,1.27-13.93-.43-9.06-.67-13.6-2-14-1.49-.44-2.91,2.14-7,6a43.19,43.19,0,0,1-11,8,110.67,110.67,0,0,1-28,10c-4,.88-9,1.59-19,3-12.37,1.75-18.73,2.63-27,3-8,.36-14.51.15-19,0-3.23-.11-9.21-.32-16-1a208.14,208.14,0,0,1-32-6c-19-4.74-26.38-8.37-31-11a25,25,0,0,1-6.37-4.92C790.55,471,789.42,468.2,788.5,468.5Z" transform="translate(-468.5 -297.97)"/><path class="cls-2" d="M990.5,462.5c.33-4.48-3.51-8.43-6-11-5.23-5.39-11.3-7.18-18-9-14.81-4-22.21-6-29-7a304.22,304.22,0,0,0-47-3,347.7,347.7,0,0,0-47,4c-24.7,3.47-40.9,7.82-50,18-1.91,2.14-6.14,7-5,12,.82,3.62,4.12,5.83,8,8,14.85,8.32,25,10,25,10a389.06,389.06,0,0,0,47,5c21,.61,34.76,1,54-1a184.64,184.64,0,0,0,39-8C974.22,476.37,989.86,471.11,990.5,462.5Z" transform="translate(-468.5 -297.97)"/><path class="cls-3" d="M821.46,444.35c5.4-1.53,9.39-2,17.43-3,16.2-1.9,24.3-2.85,26.15-3,13-.88,22.31-.27,40.31,1,17.75,1.23,26.71,1.69,39.23,3.93s28.54,5.76,28.33,6.9c-.26,1.35-22.72-2.33-59.93-3.93-1.13-.05-16.73,0-47.94,0-15.18,0-27.88.16-42.49,5.93,0,0-10.06,1.51-11.94,5.84l0,.09c-1.22,2.94.61,6.08,1.09,6.9,2.38,4.07,9.17,5.56,10.9,5.92,19.83,4.12,31.59,3.94,31.59,3.94,25.47-.4,19.67,1.56,43.59,1,20.88-.52,36.84-2.3,42.49-3,21.3-2.53,33.59-5.6,33.77-4.94s-17.33,6.31-38.13,9.87c-17,2.93-30.14,3.48-42.49,4-14.81.58-28-.27-54.48-2-16.22-1-24.42-1.91-30.51-7.88-4.42-4.35-8.22-11.86-5.45-17.76C805.44,448.9,812.31,447,821.46,444.35Z" transform="translate(-468.5 -297.97)"/><path class="cls-3" d="M941.5,445.5c-.06.51,3.18,1,12,4a39.12,39.12,0,0,1,9,4c3.1,1.95,5.76,3.63,6,6,.28,2.76-2.81,5.47-7,8-15.33,9.25-33,8.6-33,9s11.23.92,27-2c14.91-2.77,18.89-5.37,21-9,.14-.24,3.34-5.92,1-11-2.17-4.71-7.77-6-17-8C950.8,444.4,941.6,444.65,941.5,445.5Z" transform="translate(-468.5 -297.97)"/><path class="cls-4" d="M820.16,448.33A53,53,0,0,1,841.5,444c19.29-.51,12.32-1.75,30.9-2a370.05,370.05,0,0,1,50,2.63c14.64,1.83,27.85,4.43,27.79,4.89s-8.63-.82-22.11-1.71c-10.82-.72-18.44-.83-29.84-1-15.9-.21-24.84.09-41.46.64-1.72.06-9.53,1.1-25.16,3.17-6.9.91-13.53,1.88-15.63,6.47-1.43,3.14-.07,6.53-1.19,6.94-1.29.47-4.91-3.43-4.58-7.13C810.62,452.66,816.24,450.08,820.16,448.33Z" transform="translate(-468.5 -297.97)"/><path class="cls-5" d="M810.19,463.81c2.55,6.77,29.7,1.32,64.89-3.06,53.4-6.64,83.42-5.6,83.42-8.14s-33.57-4.44-45.32-5.1c-39.64-2.2-25.24,2-65.91,1-11.87-.28-26.13-.95-34,8.15C812,458.19,809.26,461.33,810.19,463.81Z" transform="translate(-468.5 -297.97)"/><path class="cls-5" d="M800.5,458.5" transform="translate(-468.5 -297.97)"/><path class="cls-5" d="M800.5,454.5c-2.12-1.77-8.44.42-11,5a10,10,0,0,0-1,7c.75,3,2.87,4.61,6,7,2.77,2.11,4.15,3.17,6,3,3.16-.28,6.16-3.89,6-7s-3.53-3.5-5-8C800.25,457.68,801.93,455.69,800.5,454.5Z" transform="translate(-468.5 -297.97)"/><path class="cls-4" d="M801.09,460.87c-.57-1.63-7.88-2.52-10.51-1.31a6,6,0,0,0-1.22.75,3.58,3.58,0,0,0-1.33,3.17c0,2.64.14,4,.47,4,.15,0,.33-.23.55-.74C798.38,463.92,801.49,462,801.09,460.87Z" transform="translate(-468.5 -297.97)"/><path class="cls-6" d="M788.5,468.5c.5-.73,11,7.9,27,14,4.26,1.62,14.38,5.2,45,7,21,1.24,35.57,2.1,56,0,17.75-1.82,32.73-3.36,51-11,13.23-5.53,22.44-11.87,23-11s-9.43,9.74-22,16c-2.67,1.33-10.63,5.08-32,9a293,293,0,0,1-51,5,259.33,259.33,0,0,1-33-2c-16.41-2.07-28-3.62-41-10C797.51,478.64,788,469.22,788.5,468.5Z" transform="translate(-468.5 -297.97)"/><path class="cls-7" d="M833.24,488.35c-1,.8-1.6,2.26-1,3.26s2.45,1.16,6.93,1.63c4.9.51,7.35.77,7.92.81,5.54.44,6.42,1,11.88,1.63s10,.72,18.81.82h21.78a8.63,8.63,0,0,0,4.95-1.63c.15-.12,2.5-2,2-3.26-.83-2-8.41-.7-21.78-.82-2.48,0-33.21-1.37-34.65-1.63a96.55,96.55,0,0,0-12.87-1.63A6,6,0,0,0,833.24,488.35Z" transform="translate(-468.5 -297.97)"/><polygon class="cls-8" points="320 193.53 326 203.53 333 209.53 357 217.53 357 193.53 343 187.53 329 178.53 320 193.53"/><polygon class="cls-8" points="320 171.53 320 193.53 329 182.53 329 178.53 320 171.53"/><polygon class="cls-8" points="521.52 169.53 505.71 182.4 489.9 189.32 482 217.03 495.83 214.06 505.71 211.09 521.52 202.19 523.5 191.3 523.5 175.47 521.52 169.53"/><polygon class="cls-9" points="463 196.53 453 221.53 470 219.53 482 217.53 490 189.53 463 196.53"/><polygon class="cls-9" points="357 217.53 380 221.53 395 222.53 385 203.53 382 197.53 357 193.53 357 217.53"/><polygon class="cls-9" points="392 219.53 412 220.53 434 220.53 455 218.53 456 220.53 453 221.53 443 222.53 423 223.53 407 223.53 393.75 222.53 392 219.53"/><path class="cls-8" d="M788.5,491.5c-.56.14-.52,2.79,0,5a15,15,0,0,0,3,6c4.57,5.6,13.25,9,16,10,2.23.84,4.33,1.61,8.58,3,2.59.87,5.12,1.67,8.31,2.46,0,0,1,.26,2.11.5,9,2,27,3.9,28,4,4.47.46,6.71.69,10,1,.78.06,9.39.77,17,1a281.86,281.86,0,0,0,33-1c15.83-1.39,19.41-3,35-5a88.55,88.55,0,0,0,11-2c2.5-.62,4.64-1.28,7-2,1.41-.43,4.66-1.44,9-3a45.57,45.57,0,0,0,9-4c1.91-1.16,3.3-2.23,4-4s.57-3.81,0-4-1.09,1.46-3,3c-1.22,1-1.56.78-4,2-3.46,1.73-3.87,2.71-7,4a26.92,26.92,0,0,1-3,1c-11.89,3.37-10.29,3.08-14,4-1.34.33-6.87,1.7-14,3a303.88,303.88,0,0,1-33,4c-40.7,2.61-73.58-1.08-87-5-1.37-.4-.79-.29-12-4-9-3-11.22-3.66-14-6a32.73,32.73,0,0,1-6-7C790,494.57,789.14,491.34,788.5,491.5Z" transform="translate(-468.5 -297.97)"/><path class="cls-1" d="M779.5,424.5c-1,.34-.16,4.15,0,11,.19,8.21-.85,9.43,0,13,.29,1.2,2,5.69,9,12s14.8,8.87,35,12a309.23,309.23,0,0,0,35,4c13.88.74,24.1.4,35,0a407.07,407.07,0,0,0,50-5,74.32,74.32,0,0,0,25-8c10.1-5.48,12.29-8.49,13-10a14.69,14.69,0,0,0,.73-2.07c1.54-4.88,1.5-8.95,1.27-13.93-.43-9.06-.67-13.6-2-14-1.49-.44-2.91,2.14-7,6a43.19,43.19,0,0,1-11,8,110.67,110.67,0,0,1-28,10c-4,.88-9,1.59-19,3-12.37,1.75-18.73,2.63-27,3-8,.36-14.51.15-19,0-3.23-.11-9.21-.32-16-1a208.14,208.14,0,0,1-32-6c-19-4.74-26.38-8.37-31-11a25,25,0,0,1-6.37-4.92C781.55,427,780.42,424.2,779.5,424.5Z" transform="translate(-468.5 -297.97)"/><path class="cls-2" d="M981.5,418.5c.33-4.48-3.51-8.43-6-11-5.23-5.39-11.3-7.18-18-9-14.81-4-22.21-6-29-7a304.22,304.22,0,0,0-47-3,347.7,347.7,0,0,0-47,4c-24.7,3.47-40.9,7.82-50,18-1.91,2.14-6.14,7-5,12,.82,3.62,4.12,5.83,8,8,14.85,8.32,25,10,25,10a389.06,389.06,0,0,0,47,5c21,.61,34.76,1,54-1a184.64,184.64,0,0,0,39-8C965.22,432.37,980.86,427.11,981.5,418.5Z" transform="translate(-468.5 -297.97)"/><path class="cls-3" d="M812.46,400.35c5.4-1.53,9.39-2,17.43-3,16.2-1.9,24.3-2.85,26.15-3,13-.88,22.31-.27,40.31,1,17.75,1.23,26.71,1.69,39.23,3.93s28.54,5.76,28.33,6.9c-.26,1.35-22.72-2.33-59.93-3.93-1.13-.05-16.73,0-47.94,0-15.18,0-27.88.16-42.49,5.93,0,0-10.06,1.51-11.94,5.84l0,.09c-1.22,2.94.61,6.08,1.09,6.9,2.38,4.07,9.17,5.56,10.9,5.92,19.83,4.12,31.59,3.94,31.59,3.94,25.47-.4,19.67,1.56,43.59,1,20.88-.52,36.84-2.3,42.49-3,21.3-2.53,33.59-5.6,33.77-4.94s-17.33,6.31-38.13,9.87c-17,2.93-30.14,3.48-42.49,4-14.81.58-28-.27-54.48-2-16.22-1-24.42-1.91-30.51-7.88-4.42-4.35-8.22-11.86-5.45-17.76C796.44,404.9,803.31,403,812.46,400.35Z" transform="translate(-468.5 -297.97)"/><path class="cls-3" d="M932.5,401.5c-.06.51,3.18,1,12,4a39.12,39.12,0,0,1,9,4c3.1,1.95,5.76,3.63,6,6,.28,2.76-2.81,5.47-7,8-15.33,9.25-33,8.6-33,9s11.23.92,27-2c14.91-2.77,18.89-5.37,21-9,.14-.24,3.34-5.92,1-11-2.17-4.71-7.77-6-17-8C941.8,400.4,932.6,400.65,932.5,401.5Z" transform="translate(-468.5 -297.97)"/><path class="cls-4" d="M811.16,404.33A53,53,0,0,1,832.5,400c19.29-.51,12.32-1.75,30.9-2a370.05,370.05,0,0,1,50,2.63c14.64,1.83,27.85,4.43,27.79,4.89s-8.63-.82-22.11-1.71c-10.82-.72-18.44-.83-29.84-1-15.9-.21-24.84.09-41.46.64-1.72.06-9.53,1.1-25.16,3.17-6.9.91-13.53,1.88-15.63,6.47-1.43,3.14-.07,6.53-1.19,6.94-1.29.47-4.91-3.43-4.58-7.13C801.62,408.66,807.24,406.08,811.16,404.33Z" transform="translate(-468.5 -297.97)"/><path class="cls-5" d="M801.19,419.81c2.55,6.77,29.7,1.32,64.89-3.06,53.4-6.64,83.42-5.6,83.42-8.14s-33.57-4.44-45.32-5.1c-39.64-2.2-25.24,2-65.91,1-11.87-.28-26.13-.95-34,8.15C803,414.19,800.26,417.33,801.19,419.81Z" transform="translate(-468.5 -297.97)"/><path class="cls-5" d="M791.5,414.5" transform="translate(-468.5 -297.97)"/><path class="cls-5" d="M791.5,410.5c-2.12-1.77-8.44.42-11,5a10,10,0,0,0-1,7c.75,3,2.87,4.61,6,7,2.77,2.11,4.15,3.17,6,3,3.16-.28,6.16-3.89,6-7s-3.53-3.5-5-8C791.25,413.68,792.93,411.69,791.5,410.5Z" transform="translate(-468.5 -297.97)"/><path class="cls-4" d="M792.09,416.87c-.57-1.63-7.88-2.52-10.51-1.31a6,6,0,0,0-1.22.75,3.58,3.58,0,0,0-1.33,3.17c0,2.64.14,4,.47,4,.15,0,.33-.23.55-.74C789.38,419.92,792.49,418,792.09,416.87Z" transform="translate(-468.5 -297.97)"/><path class="cls-6" d="M779.5,424.5c.5-.73,11,7.9,27,14,4.26,1.62,14.38,5.2,45,7,21,1.24,35.57,2.1,56,0,17.75-1.82,32.73-3.36,51-11,13.23-5.53,22.44-11.87,23-11s-9.43,9.74-22,16c-2.67,1.33-10.63,5.08-32,9a293,293,0,0,1-51,5,259.33,259.33,0,0,1-33-2c-16.41-2.07-28-3.62-41-10C788.51,434.64,779,425.22,779.5,424.5Z" transform="translate(-468.5 -297.97)"/><path class="cls-7" d="M824.24,444.35c-1,.8-1.6,2.26-1,3.26s2.45,1.16,6.93,1.63c4.9.51,7.35.77,7.92.81,5.54.44,6.42,1,11.88,1.63s10,.72,18.81.82h21.78a8.63,8.63,0,0,0,4.95-1.63c.15-.12,2.5-2,2-3.26-.83-2-8.41-.7-21.78-.82-2.48,0-33.21-1.37-34.65-1.63a96.55,96.55,0,0,0-12.87-1.63A6,6,0,0,0,824.24,444.35Z" transform="translate(-468.5 -297.97)"/><polygon class="cls-8" points="311 149.53 317 159.53 324 165.53 348 173.53 348 149.53 334 143.53 320 134.53 311 149.53"/><polygon class="cls-8" points="311 127.53 311 149.53 320 138.53 320 134.53 311 127.53"/><polygon class="cls-8" points="512.52 125.53 496.71 138.4 480.9 145.32 473 173.03 486.83 170.06 496.71 167.09 512.52 158.19 514.5 147.3 514.5 131.47 512.52 125.53"/><polygon class="cls-9" points="454 152.53 444 177.53 461 175.53 473 173.53 481 145.53 454 152.53"/><polygon class="cls-9" points="348 173.53 371 177.53 386 178.53 376 159.53 373 153.53 348 149.53 348 173.53"/><polygon class="cls-9" points="383 175.53 403 176.53 425 176.53 446 174.53 447 176.53 444 177.53 434 178.53 414 179.53 398 179.53 384.75 178.53 383 175.53"/><path class="cls-8" d="M779.5,447.5c-.56.14-.52,2.79,0,5a15,15,0,0,0,3,6c4.57,5.6,13.25,9,16,10,2.23.84,4.33,1.61,8.58,3,2.59.87,5.12,1.67,8.31,2.46,0,0,1,.26,2.11.5,9,2,27,3.9,28,4,4.47.46,6.71.69,10,1,.78.06,9.39.77,17,1a281.86,281.86,0,0,0,33-1c15.83-1.39,19.41-3,35-5a88.55,88.55,0,0,0,11-2c2.5-.62,4.64-1.28,7-2,1.41-.43,4.66-1.44,9-3a45.57,45.57,0,0,0,9-4c1.91-1.16,3.3-2.23,4-4s.57-3.81,0-4-1.09,1.46-3,3c-1.22,1-1.56.78-4,2-3.46,1.73-3.87,2.71-7,4a26.92,26.92,0,0,1-3,1c-11.89,3.37-10.29,3.08-14,4-1.34.33-6.87,1.7-14,3a303.88,303.88,0,0,1-33,4c-40.7,2.61-73.58-1.08-87-5-1.37-.4-.79-.29-12-4-9-3-11.22-3.66-14-6a32.73,32.73,0,0,1-6-7C781,450.57,780.14,447.34,779.5,447.5Z" transform="translate(-468.5 -297.97)"/><path class="cls-1" d="M788.5,378.5c-1,.34-.16,4.15,0,11,.19,8.21-.85,9.43,0,13,.29,1.2,2,5.69,9,12s14.8,8.87,35,12a309.23,309.23,0,0,0,35,4c13.88.74,24.1.4,35,0a407.07,407.07,0,0,0,50-5,74.32,74.32,0,0,0,25-8c10.1-5.48,12.29-8.49,13-10a14.69,14.69,0,0,0,.73-2.07c1.54-4.88,1.5-8.95,1.27-13.93-.43-9.06-.67-13.6-2-14-1.49-.44-2.91,2.14-7,6a43.19,43.19,0,0,1-11,8,110.67,110.67,0,0,1-28,10c-4,.88-9,1.59-19,3-12.37,1.75-18.73,2.63-27,3-8,.36-14.51.15-19,0-3.23-.11-9.21-.32-16-1a208.14,208.14,0,0,1-32-6c-19-4.74-26.38-8.37-31-11a25,25,0,0,1-6.37-4.92C790.55,381,789.42,378.2,788.5,378.5Z" transform="translate(-468.5 -297.97)"/><path class="cls-2" d="M990.5,372.5c.33-4.48-3.51-8.43-6-11-5.23-5.39-11.3-7.18-18-9-14.81-4-22.21-6-29-7a304.22,304.22,0,0,0-47-3,347.7,347.7,0,0,0-47,4c-24.7,3.47-40.9,7.82-50,18-1.91,2.14-6.14,7-5,12,.82,3.62,4.12,5.83,8,8,14.85,8.32,25,10,25,10a389.06,389.06,0,0,0,47,5c21,.61,34.76,1,54-1a184.64,184.64,0,0,0,39-8C974.22,386.37,989.86,381.11,990.5,372.5Z" transform="translate(-468.5 -297.97)"/><path class="cls-3" d="M821.46,354.35c5.4-1.53,9.39-2,17.43-3,16.2-1.9,24.3-2.85,26.15-3,13-.88,22.31-.27,40.31,1,17.75,1.23,26.71,1.69,39.23,3.93s28.54,5.76,28.33,6.9c-.26,1.35-22.72-2.33-59.93-3.93-1.13-.05-16.73,0-47.94,0-15.18,0-27.88.16-42.49,5.93,0,0-10.06,1.51-11.94,5.84l0,.09c-1.22,2.94.61,6.08,1.09,6.9,2.38,4.07,9.17,5.56,10.9,5.92,19.83,4.12,31.59,3.94,31.59,3.94,25.47-.4,19.67,1.56,43.59,1,20.88-.52,36.84-2.3,42.49-3,21.3-2.53,33.59-5.6,33.77-4.94s-17.33,6.31-38.13,9.87c-17,2.93-30.14,3.48-42.49,4-14.81.58-28-.27-54.48-2-16.22-1-24.42-1.91-30.51-7.88-4.42-4.35-8.22-11.86-5.45-17.76C805.44,358.9,812.31,357,821.46,354.35Z" transform="translate(-468.5 -297.97)"/><path class="cls-3" d="M941.5,355.5c-.06.51,3.18,1,12,4a39.12,39.12,0,0,1,9,4c3.1,1.95,5.76,3.63,6,6,.28,2.76-2.81,5.47-7,8-15.33,9.25-33,8.6-33,9s11.23.92,27-2c14.91-2.77,18.89-5.37,21-9,.14-.24,3.34-5.92,1-11-2.17-4.71-7.77-6-17-8C950.8,354.4,941.6,354.65,941.5,355.5Z" transform="translate(-468.5 -297.97)"/><path class="cls-4" d="M820.16,358.33A53,53,0,0,1,841.5,354c19.29-.51,12.32-1.75,30.9-2a370.05,370.05,0,0,1,50,2.63c14.64,1.83,27.85,4.43,27.79,4.89s-8.63-.82-22.11-1.71c-10.82-.72-18.44-.83-29.84-1-15.9-.21-24.84.09-41.46.64-1.72.06-9.53,1.1-25.16,3.17-6.9.91-13.53,1.88-15.63,6.47-1.43,3.14-.07,6.53-1.19,6.94-1.29.47-4.91-3.43-4.58-7.13C810.62,362.66,816.24,360.08,820.16,358.33Z" transform="translate(-468.5 -297.97)"/><path class="cls-5" d="M810.19,373.81c2.55,6.77,29.7,1.32,64.89-3.06,53.4-6.64,83.42-5.6,83.42-8.14s-33.57-4.44-45.32-5.1c-39.64-2.2-25.24,2-65.91,1-11.87-.28-26.13-.95-34,8.15C812,368.19,809.26,371.33,810.19,373.81Z" transform="translate(-468.5 -297.97)"/><path class="cls-5" d="M800.5,368.5" transform="translate(-468.5 -297.97)"/><path class="cls-5" d="M800.5,364.5c-2.12-1.77-8.44.42-11,5a10,10,0,0,0-1,7c.75,3,2.87,4.61,6,7,2.77,2.11,4.15,3.17,6,3,3.16-.28,6.16-3.89,6-7s-3.53-3.5-5-8C800.25,367.68,801.93,365.69,800.5,364.5Z" transform="translate(-468.5 -297.97)"/><path class="cls-4" d="M801.09,370.87c-.57-1.63-7.88-2.52-10.51-1.31a6,6,0,0,0-1.22.75,3.58,3.58,0,0,0-1.33,3.17c0,2.64.14,4,.47,4,.15,0,.33-.23.55-.74C798.38,373.92,801.49,372,801.09,370.87Z" transform="translate(-468.5 -297.97)"/><path class="cls-6" d="M788.5,378.5c.5-.73,11,7.9,27,14,4.26,1.62,14.38,5.2,45,7,21,1.24,35.57,2.1,56,0,17.75-1.82,32.73-3.36,51-11,13.23-5.53,22.44-11.87,23-11s-9.43,9.74-22,16c-2.67,1.33-10.63,5.08-32,9a293,293,0,0,1-51,5,259.33,259.33,0,0,1-33-2c-16.41-2.07-28-3.62-41-10C797.51,388.64,788,379.22,788.5,378.5Z" transform="translate(-468.5 -297.97)"/><path class="cls-7" d="M833.24,398.35c-1,.8-1.6,2.26-1,3.26s2.45,1.16,6.93,1.63c4.9.51,7.35.77,7.92.81,5.54.44,6.42,1,11.88,1.63s10,.72,18.81.82h21.78a8.63,8.63,0,0,0,4.95-1.63c.15-.12,2.5-2,2-3.26-.83-2-8.41-.7-21.78-.82-2.48,0-33.21-1.37-34.65-1.63a96.55,96.55,0,0,0-12.87-1.63A6,6,0,0,0,833.24,398.35Z" transform="translate(-468.5 -297.97)"/><polygon class="cls-8" points="320 103.53 326 113.53 333 119.53 357 127.53 357 103.53 343 97.53 329 88.53 320 103.53"/><polygon class="cls-8" points="320 81.53 320 103.53 329 92.53 329 88.53 320 81.53"/><polygon class="cls-8" points="521.52 79.53 505.71 92.39 489.9 99.32 482 127.03 495.83 124.06 505.71 121.09 521.52 112.19 523.5 101.3 523.5 85.47 521.52 79.53"/><polygon class="cls-9" points="463 106.53 453 131.53 470 129.53 482 127.53 490 99.53 463 106.53"/><polygon class="cls-9" points="357 127.53 380 131.53 395 132.53 385 113.53 382 107.53 357 103.53 357 127.53"/><polygon class="cls-9" points="392 129.53 412 130.53 434 130.53 455 128.53 456 130.53 453 131.53 443 132.53 423 133.53 407 133.53 393.75 132.53 392 129.53"/><path class="cls-8" d="M788.5,401.5c-.56.14-.52,2.79,0,5a15,15,0,0,0,3,6c4.57,5.6,13.25,9,16,10,2.23.84,4.33,1.61,8.58,3,2.59.87,5.12,1.67,8.31,2.46,0,0,1,.26,2.11.5,9,2,27,3.9,28,4,4.47.46,6.71.69,10,1,.78.06,9.39.77,17,1a281.86,281.86,0,0,0,33-1c15.83-1.39,19.41-3,35-5a88.55,88.55,0,0,0,11-2c2.5-.62,4.64-1.28,7-2,1.41-.43,4.66-1.44,9-3a45.57,45.57,0,0,0,9-4c1.91-1.16,3.3-2.23,4-4s.57-3.81,0-4-1.09,1.46-3,3c-1.22,1-1.56.78-4,2-3.46,1.73-3.87,2.71-7,4a26.92,26.92,0,0,1-3,1c-11.89,3.37-10.29,3.08-14,4-1.34.33-6.87,1.7-14,3a303.88,303.88,0,0,1-33,4c-40.7,2.61-73.58-1.08-87-5-1.37-.4-.79-.29-12-4-9-3-11.22-3.66-14-6a32.73,32.73,0,0,1-6-7C790,404.57,789.14,401.34,788.5,401.5Z" transform="translate(-468.5 -297.97)"/><path class="cls-1" d="M777.5,334.5c-1,.34-.16,4.15,0,11,.19,8.21-.85,9.43,0,13,.29,1.2,2,5.69,9,12s14.8,8.87,35,12a309.23,309.23,0,0,0,35,4c13.88.74,24.1.4,35,0a407.07,407.07,0,0,0,50-5,74.32,74.32,0,0,0,25-8c10.1-5.48,12.29-8.49,13-10a14.69,14.69,0,0,0,.73-2.07c1.54-4.88,1.5-8.95,1.27-13.93-.43-9.06-.67-13.6-2-14-1.49-.44-2.91,2.14-7,6a43.19,43.19,0,0,1-11,8,110.67,110.67,0,0,1-28,10c-4,.88-9,1.59-19,3-12.37,1.75-18.73,2.63-27,3-8,.36-14.51.15-19,0-3.23-.11-9.21-.32-16-1a208.14,208.14,0,0,1-32-6c-19-4.74-26.38-8.37-31-11a25,25,0,0,1-6.37-4.92C779.55,337,778.42,334.2,777.5,334.5Z" transform="translate(-468.5 -297.97)"/><path class="cls-2" d="M979.5,328.5c.33-4.48-3.51-8.43-6-11-5.23-5.39-11.3-7.18-18-9-14.81-4-22.21-6-29-7a304.22,304.22,0,0,0-47-3,347.7,347.7,0,0,0-47,4c-24.7,3.47-40.9,7.82-50,18-1.91,2.14-6.14,7-5,12,.82,3.62,4.12,5.83,8,8,14.85,8.32,25,10,25,10a389.06,389.06,0,0,0,47,5c21,.61,34.76,1,54-1a184.64,184.64,0,0,0,39-8C963.22,342.37,978.86,337.11,979.5,328.5Z" transform="translate(-468.5 -297.97)"/><path class="cls-3" d="M810.46,310.35c5.4-1.53,9.39-2,17.43-3,16.2-1.9,24.3-2.85,26.15-3,13-.88,22.31-.27,40.31,1,17.75,1.23,26.71,1.69,39.23,3.93s28.54,5.76,28.33,6.9c-.26,1.35-22.72-2.33-59.93-3.93-1.13-.05-16.73,0-47.94,0-15.18,0-27.88.16-42.49,5.93,0,0-10.06,1.51-11.94,5.84l0,.09c-1.22,2.94.61,6.08,1.09,6.9,2.38,4.07,9.17,5.56,10.9,5.92,19.83,4.12,31.59,3.94,31.59,3.94,25.47-.4,19.67,1.56,43.59,1,20.88-.52,36.84-2.3,42.49-3,21.3-2.53,33.59-5.6,33.77-4.94s-17.33,6.31-38.13,9.87c-17,2.93-30.14,3.48-42.49,4-14.81.58-28-.27-54.48-2-16.22-1-24.42-1.91-30.51-7.88-4.42-4.35-8.22-11.86-5.45-17.76C794.44,314.9,801.31,313,810.46,310.35Z" transform="translate(-468.5 -297.97)"/><path class="cls-3" d="M930.5,311.5c-.06.51,3.18,1,12,4a39.12,39.12,0,0,1,9,4c3.1,1.95,5.76,3.63,6,6,.28,2.76-2.81,5.47-7,8-15.33,9.25-33,8.6-33,9s11.23.92,27-2c14.91-2.77,18.89-5.37,21-9,.14-.24,3.34-5.92,1-11-2.17-4.71-7.77-6-17-8C939.8,310.4,930.6,310.65,930.5,311.5Z" transform="translate(-468.5 -297.97)"/><path class="cls-4" d="M809.16,314.33A53,53,0,0,1,830.5,310c19.29-.51,12.32-1.75,30.9-2a370.05,370.05,0,0,1,50,2.63c14.64,1.83,27.85,4.43,27.79,4.89s-8.63-.82-22.11-1.71c-10.82-.72-18.44-.83-29.84-1-15.9-.21-24.84.09-41.46.64-1.72.06-9.53,1.1-25.16,3.17-6.9.91-13.53,1.88-15.63,6.47-1.43,3.14-.07,6.53-1.19,6.94-1.29.47-4.91-3.43-4.58-7.13C799.62,318.66,805.24,316.08,809.16,314.33Z" transform="translate(-468.5 -297.97)"/><path class="cls-5" d="M799.19,329.81c2.55,6.77,29.7,1.32,64.89-3.06,53.4-6.64,83.42-5.6,83.42-8.14s-33.57-4.44-45.32-5.1c-39.64-2.2-25.24,2-65.91,1-11.87-.28-26.13-.95-34,8.15C801,324.19,798.26,327.33,799.19,329.81Z" transform="translate(-468.5 -297.97)"/><path class="cls-5" d="M789.5,324.5" transform="translate(-468.5 -297.97)"/><path class="cls-5" d="M789.5,320.5c-2.12-1.77-8.44.42-11,5a10,10,0,0,0-1,7c.75,3,2.87,4.61,6,7,2.77,2.11,4.15,3.17,6,3,3.16-.28,6.16-3.89,6-7s-3.53-3.5-5-8C789.25,323.68,790.93,321.69,789.5,320.5Z" transform="translate(-468.5 -297.97)"/><path class="cls-4" d="M790.09,326.87c-.57-1.63-7.88-2.52-10.51-1.31a6,6,0,0,0-1.22.75,3.58,3.58,0,0,0-1.33,3.17c0,2.64.14,4,.47,4,.15,0,.33-.23.55-.74C787.38,329.92,790.49,328,790.09,326.87Z" transform="translate(-468.5 -297.97)"/><path class="cls-6" d="M777.5,334.5c.5-.73,11,7.9,27,14,4.26,1.62,14.38,5.2,45,7,21,1.24,35.57,2.1,56,0,17.75-1.82,32.73-3.36,51-11,13.23-5.53,22.44-11.87,23-11s-9.43,9.74-22,16c-2.67,1.33-10.63,5.08-32,9a293,293,0,0,1-51,5,259.33,259.33,0,0,1-33-2c-16.41-2.07-28-3.62-41-10C786.51,344.64,777,335.22,777.5,334.5Z" transform="translate(-468.5 -297.97)"/><path class="cls-7" d="M822.24,354.35c-1,.8-1.6,2.26-1,3.26s2.45,1.16,6.93,1.63c4.9.51,7.35.77,7.92.81,5.54.44,6.42,1,11.88,1.63s10,.72,18.81.82h21.78a8.63,8.63,0,0,0,4.95-1.63c.15-.12,2.5-2,2-3.26-.83-2-8.41-.7-21.78-.82-2.48,0-33.21-1.37-34.65-1.63a96.55,96.55,0,0,0-12.87-1.63A6,6,0,0,0,822.24,354.35Z" transform="translate(-468.5 -297.97)"/><polygon class="cls-8" points="309 59.53 315 69.53 322 75.53 346 83.53 346 59.53 332 53.53 318 44.53 309 59.53"/><polygon class="cls-8" points="309 37.53 309 59.53 318 48.53 318 44.53 309 37.53"/><polygon class="cls-8" points="510.52 35.53 494.71 48.4 478.9 55.32 471 83.03 484.83 80.06 494.71 77.09 510.52 68.19 512.5 57.3 512.5 41.47 510.52 35.53"/><polygon class="cls-9" points="452 62.53 442 87.53 459 85.53 471 83.53 479 55.53 452 62.53"/><polygon class="cls-9" points="346 83.53 369 87.53 384 88.53 374 69.53 371 63.53 346 59.53 346 83.53"/><polygon class="cls-9" points="381 85.53 401 86.53 423 86.53 444 84.53 445 86.53 442 87.53 432 88.53 412 89.53 396 89.53 382.75 88.53 381 85.53"/><path class="cls-8" d="M777.5,357.5c-.56.14-.52,2.79,0,5a15,15,0,0,0,3,6c4.57,5.6,13.25,9,16,10,2.23.84,4.33,1.61,8.58,3,2.59.87,5.12,1.67,8.31,2.46,0,0,1,.26,2.11.5,9,2,27,3.9,28,4,4.47.46,6.71.69,10,1,.78.06,9.39.77,17,1a281.86,281.86,0,0,0,33-1c15.83-1.39,19.41-3,35-5a88.55,88.55,0,0,0,11-2c2.5-.62,4.64-1.28,7-2,1.41-.43,4.66-1.44,9-3a45.57,45.57,0,0,0,9-4c1.91-1.16,3.3-2.23,4-4s.57-3.81,0-4-1.09,1.46-3,3c-1.22,1-1.56.78-4,2-3.46,1.73-3.87,2.71-7,4a26.92,26.92,0,0,1-3,1c-11.89,3.37-10.29,3.08-14,4-1.34.33-6.87,1.7-14,3a303.88,303.88,0,0,1-33,4c-40.7,2.61-73.58-1.08-87-5-1.37-.4-.79-.29-12-4-9-3-11.22-3.66-14-6a32.73,32.73,0,0,1-6-7C779,360.57,778.14,357.34,777.5,357.5Z" transform="translate(-468.5 -297.97)"/><path class="cls-1" d="M469.5,545.5c-1,.34-.16,4.15,0,11,.19,8.21-.85,9.43,0,13,.29,1.2,2,5.69,9,12s14.8,8.87,35,12a309.23,309.23,0,0,0,35,4c13.88.74,24.1.4,35,0a407.07,407.07,0,0,0,50-5,74.32,74.32,0,0,0,25-8c10.1-5.48,12.29-8.49,13-10a14.69,14.69,0,0,0,.73-2.07c1.54-4.88,1.5-8.95,1.27-13.93-.43-9.06-.67-13.6-2-14-1.49-.44-2.91,2.14-7,6a43.19,43.19,0,0,1-11,8,110.67,110.67,0,0,1-28,10c-4,.88-9,1.59-19,3-12.37,1.75-18.73,2.63-27,3-8,.36-14.51.15-19,0-3.23-.11-9.21-.32-16-1a208.14,208.14,0,0,1-32-6c-19-4.74-26.38-8.37-31-11a25,25,0,0,1-6.37-4.92C471.55,548,470.42,545.2,469.5,545.5Z" transform="translate(-468.5 -297.97)"/><path class="cls-2" d="M671.5,539.5c.33-4.48-3.51-8.43-6-11-5.23-5.39-11.3-7.18-18-9-14.81-4-22.21-6-29-7a304.22,304.22,0,0,0-47-3,347.7,347.7,0,0,0-47,4c-24.7,3.47-40.9,7.82-50,18-1.91,2.14-6.14,7-5,12,.82,3.62,4.12,5.83,8,8,14.85,8.32,25,10,25,10a389.06,389.06,0,0,0,47,5c21,.61,34.76,1,54-1a184.64,184.64,0,0,0,39-8C655.22,553.37,670.86,548.11,671.5,539.5Z" transform="translate(-468.5 -297.97)"/><path class="cls-3" d="M502.46,521.35c5.4-1.53,9.39-2,17.43-3,16.2-1.9,24.3-2.85,26.15-3,13-.88,22.31-.27,40.31,1,17.75,1.23,26.71,1.69,39.23,3.93s28.54,5.76,28.33,6.9c-.26,1.35-22.72-2.33-59.93-3.93-1.13,0-16.73,0-47.94,0-15.18,0-27.88.16-42.49,5.93,0,0-10.06,1.51-11.94,5.84l0,.09c-1.22,2.94.61,6.08,1.09,6.9,2.38,4.07,9.17,5.56,10.9,5.92,19.83,4.12,31.59,3.94,31.59,3.94,25.47-.4,19.67,1.56,43.59,1,20.88-.52,36.84-2.3,42.49-3,21.3-2.53,33.59-5.6,33.77-4.94s-17.33,6.31-38.13,9.87c-17,2.93-30.14,3.48-42.49,4-14.81.58-28-.27-54.48-2-16.22-1-24.42-1.91-30.51-7.88-4.42-4.35-8.22-11.86-5.45-17.76C486.44,525.9,493.31,524,502.46,521.35Z" transform="translate(-468.5 -297.97)"/><path class="cls-3" d="M622.5,522.5c-.06.51,3.18,1,12,4a39.12,39.12,0,0,1,9,4c3.1,2,5.76,3.63,6,6,.28,2.76-2.81,5.47-7,8-15.33,9.25-33,8.6-33,9s11.23.92,27-2c14.91-2.77,18.89-5.37,21-9,.14-.24,3.34-5.92,1-11-2.17-4.71-7.77-6-17-8C631.8,521.4,622.6,521.65,622.5,522.5Z" transform="translate(-468.5 -297.97)"/><path class="cls-4" d="M501.16,525.33A53,53,0,0,1,522.5,521c19.29-.51,12.32-1.75,30.9-2a370.05,370.05,0,0,1,50,2.63c14.64,1.83,27.85,4.43,27.79,4.89s-8.63-.82-22.11-1.71c-10.82-.72-18.44-.83-29.84-1-15.9-.21-24.84.09-41.46.64-1.72.06-9.53,1.1-25.16,3.17-6.9.91-13.53,1.88-15.63,6.47-1.43,3.14-.07,6.53-1.19,6.94-1.29.47-4.91-3.43-4.58-7.13C491.62,529.66,497.24,527.08,501.16,525.33Z" transform="translate(-468.5 -297.97)"/><path class="cls-5" d="M491.19,540.81c2.55,6.77,29.7,1.32,64.89-3.06,53.4-6.64,83.42-5.6,83.42-8.14s-33.57-4.44-45.32-5.1c-39.64-2.2-25.24,2-65.91,1-11.87-.28-26.13-.95-34,8.15C493,535.19,490.26,538.33,491.19,540.81Z" transform="translate(-468.5 -297.97)"/><path class="cls-5" d="M481.5,535.5" transform="translate(-468.5 -297.97)"/><path class="cls-5" d="M481.5,531.5c-2.12-1.77-8.44.42-11,5a10,10,0,0,0-1,7c.75,3,2.87,4.61,6,7,2.77,2.11,4.15,3.17,6,3,3.16-.28,6.16-3.89,6-7s-3.53-3.5-5-8C481.25,534.68,482.93,532.69,481.5,531.5Z" transform="translate(-468.5 -297.97)"/><path class="cls-4" d="M482.09,537.87c-.57-1.63-7.88-2.52-10.51-1.31a6,6,0,0,0-1.22.75,3.58,3.58,0,0,0-1.33,3.17c0,2.64.14,4,.47,4,.15,0,.33-.23.55-.74C479.38,540.92,482.49,539,482.09,537.87Z" transform="translate(-468.5 -297.97)"/><path class="cls-6" d="M469.5,545.5c.5-.73,11,7.9,27,14,4.26,1.62,14.38,5.2,45,7,21,1.24,35.57,2.1,56,0,17.75-1.82,32.73-3.36,51-11,13.23-5.53,22.44-11.87,23-11s-9.43,9.74-22,16c-2.67,1.33-10.63,5.08-32,9a293,293,0,0,1-51,5,259.33,259.33,0,0,1-33-2c-16.41-2.07-28-3.62-41-10C478.51,555.64,469,546.22,469.5,545.5Z" transform="translate(-468.5 -297.97)"/><path class="cls-7" d="M514.24,565.35c-1,.8-1.6,2.26-1,3.26s2.45,1.16,6.93,1.63c4.9.51,7.35.77,7.92.81,5.54.44,6.42,1,11.88,1.63s10,.72,18.81.82h21.78a8.63,8.63,0,0,0,4.95-1.63c.15-.12,2.5-2,2-3.26-.83-2-8.41-.7-21.78-.82-2.48,0-33.21-1.37-34.65-1.63a96.55,96.55,0,0,0-12.87-1.63A6,6,0,0,0,514.24,565.35Z" transform="translate(-468.5 -297.97)"/><polygon class="cls-8" points="1 270.53 7 280.53 14 286.53 38 294.53 38 270.53 24 264.53 10 255.53 1 270.53"/><polygon class="cls-8" points="1 248.53 1 270.53 10 259.53 10 255.53 1 248.53"/><polygon class="cls-8" points="202.52 246.53 186.71 259.39 170.9 266.32 163 294.03 176.83 291.06 186.71 288.09 202.52 279.19 204.5 268.3 204.5 252.47 202.52 246.53"/><polygon class="cls-9" points="144 273.53 134 298.53 151 296.53 163 294.53 171 266.53 144 273.53"/><polygon class="cls-9" points="38 294.53 61 298.53 76 299.53 66 280.53 63 274.53 38 270.53 38 294.53"/><polygon class="cls-9" points="73 296.53 93 297.53 115 297.53 136 295.53 137 297.53 134 298.53 124 299.53 104 300.53 88 300.53 74.75 299.53 73 296.53"/><path class="cls-8" d="M469.5,568.5c-.56.14-.52,2.79,0,5a15,15,0,0,0,3,6c4.57,5.6,13.25,9,16,10,2.23.84,4.33,1.61,8.58,3,2.59.87,5.12,1.67,8.31,2.46,0,0,1,.26,2.11.5,9,2,27,3.9,28,4,4.47.46,6.71.69,10,1,.78.06,9.39.77,17,1a281.86,281.86,0,0,0,33-1c15.83-1.39,19.41-3,35-5a88.55,88.55,0,0,0,11-2c2.5-.62,4.64-1.28,7-2,1.41-.43,4.66-1.44,9-3a45.57,45.57,0,0,0,9-4c1.91-1.16,3.3-2.23,4-4s.57-3.81,0-4-1.09,1.46-3,3c-1.22,1-1.56.78-4,2-3.46,1.73-3.87,2.71-7,4a26.92,26.92,0,0,1-3,1c-11.89,3.37-10.29,3.08-14,4-1.34.33-6.87,1.7-14,3a303.88,303.88,0,0,1-33,4c-40.7,2.61-73.58-1.08-87-5-1.37-.4-.79-.29-12-4-9-3-11.22-3.66-14-6a32.73,32.73,0,0,1-6-7C471,571.57,470.14,568.34,469.5,568.5Z" transform="translate(-468.5 -297.97)"/><path class="cls-1" d="M497.5,505.5c-1,.34-.16,4.15,0,11,.19,8.21-.85,9.43,0,13,.29,1.2,2,5.69,9,12s14.8,8.87,35,12a309.23,309.23,0,0,0,35,4c13.88.74,24.1.4,35,0a407.07,407.07,0,0,0,50-5,74.32,74.32,0,0,0,25-8c10.1-5.48,12.29-8.49,13-10a14.69,14.69,0,0,0,.73-2.07c1.54-4.88,1.5-8.95,1.27-13.93-.43-9.06-.67-13.6-2-14-1.49-.44-2.91,2.14-7,6a43.19,43.19,0,0,1-11,8,110.67,110.67,0,0,1-28,10c-4,.88-9,1.59-19,3-12.37,1.75-18.73,2.63-27,3-8,.36-14.51.15-19,0-3.23-.11-9.21-.32-16-1a208.14,208.14,0,0,1-32-6c-19-4.74-26.38-8.37-31-11a25,25,0,0,1-6.37-4.92C499.55,508,498.42,505.2,497.5,505.5Z" transform="translate(-468.5 -297.97)"/><path class="cls-2" d="M699.5,499.5c.33-4.48-3.51-8.43-6-11-5.23-5.39-11.3-7.18-18-9-14.81-4-22.21-6-29-7a304.22,304.22,0,0,0-47-3,347.7,347.7,0,0,0-47,4c-24.7,3.47-40.9,7.82-50,18-1.91,2.14-6.14,7-5,12,.82,3.62,4.12,5.83,8,8,14.85,8.32,25,10,25,10a389.06,389.06,0,0,0,47,5c21,.61,34.76,1,54-1a184.64,184.64,0,0,0,39-8C683.22,513.37,698.86,508.11,699.5,499.5Z" transform="translate(-468.5 -297.97)"/><path class="cls-3" d="M530.46,481.35c5.4-1.53,9.39-2,17.43-3,16.2-1.9,24.3-2.85,26.15-3,13-.88,22.31-.27,40.31,1,17.75,1.23,26.71,1.69,39.23,3.93s28.54,5.76,28.33,6.9c-.26,1.35-22.72-2.33-59.93-3.93-1.13-.05-16.73,0-47.94,0-15.18,0-27.88.16-42.49,5.93,0,0-10.06,1.51-11.94,5.84l0,.09c-1.22,2.94.61,6.08,1.09,6.9,2.38,4.07,9.17,5.56,10.9,5.92,19.83,4.12,31.59,3.94,31.59,3.94,25.47-.4,19.67,1.56,43.59,1,20.88-.52,36.84-2.3,42.49-3,21.3-2.53,33.59-5.6,33.77-4.94s-17.33,6.31-38.13,9.87c-17,2.93-30.14,3.48-42.49,4-14.81.58-28-.27-54.48-2-16.22-1-24.42-1.91-30.51-7.88-4.42-4.35-8.22-11.86-5.45-17.76C514.44,485.9,521.31,484,530.46,481.35Z" transform="translate(-468.5 -297.97)"/><path class="cls-3" d="M650.5,482.5c-.06.51,3.18,1,12,4a39.12,39.12,0,0,1,9,4c3.1,1.95,5.76,3.63,6,6,.28,2.76-2.81,5.47-7,8-15.33,9.25-33,8.6-33,9s11.23.92,27-2c14.91-2.77,18.89-5.37,21-9,.14-.24,3.34-5.92,1-11-2.17-4.71-7.77-6-17-8C659.8,481.4,650.6,481.65,650.5,482.5Z" transform="translate(-468.5 -297.97)"/><path class="cls-4" d="M529.16,485.33A53,53,0,0,1,550.5,481c19.29-.51,12.32-1.75,30.9-2a370.05,370.05,0,0,1,50,2.63c14.64,1.83,27.85,4.43,27.79,4.89s-8.63-.82-22.11-1.71c-10.82-.72-18.44-.83-29.84-1-15.9-.21-24.84.09-41.46.64-1.72.06-9.53,1.1-25.16,3.17-6.9.91-13.53,1.88-15.63,6.47-1.43,3.14-.07,6.53-1.19,6.94-1.29.47-4.91-3.43-4.58-7.13C519.62,489.66,525.24,487.08,529.16,485.33Z" transform="translate(-468.5 -297.97)"/><path class="cls-5" d="M519.19,500.81c2.55,6.77,29.7,1.32,64.89-3.06,53.4-6.64,83.42-5.6,83.42-8.14s-33.57-4.44-45.32-5.1c-39.64-2.2-25.24,2-65.91,1-11.87-.28-26.13-.95-34,8.15C521,495.19,518.26,498.33,519.19,500.81Z" transform="translate(-468.5 -297.97)"/><path class="cls-5" d="M509.5,495.5" transform="translate(-468.5 -297.97)"/><path class="cls-5" d="M509.5,491.5c-2.12-1.77-8.44.42-11,5a10,10,0,0,0-1,7c.75,3,2.87,4.61,6,7,2.77,2.11,4.15,3.17,6,3,3.16-.28,6.16-3.89,6-7s-3.53-3.5-5-8C509.25,494.68,510.93,492.69,509.5,491.5Z" transform="translate(-468.5 -297.97)"/><path class="cls-4" d="M510.09,497.87c-.57-1.63-7.88-2.52-10.51-1.31a6,6,0,0,0-1.22.75,3.58,3.58,0,0,0-1.33,3.17c0,2.64.14,4,.47,4,.15,0,.33-.23.55-.74C507.38,500.92,510.49,499,510.09,497.87Z" transform="translate(-468.5 -297.97)"/><path class="cls-6" d="M497.5,505.5c.5-.73,11,7.9,27,14,4.26,1.62,14.38,5.2,45,7,21,1.24,35.57,2.1,56,0,17.75-1.82,32.73-3.36,51-11,13.23-5.53,22.44-11.87,23-11s-9.43,9.74-22,16c-2.67,1.33-10.63,5.08-32,9a293,293,0,0,1-51,5,259.33,259.33,0,0,1-33-2c-16.41-2.07-28-3.62-41-10C506.51,515.64,497,506.22,497.5,505.5Z" transform="translate(-468.5 -297.97)"/><path class="cls-7" d="M542.24,525.35c-1,.8-1.6,2.26-1,3.26s2.45,1.16,6.93,1.63c4.9.51,7.35.77,7.92.81,5.54.44,6.42,1,11.88,1.63s10,.72,18.81.82h21.78a8.63,8.63,0,0,0,4.95-1.63c.15-.12,2.5-2,2-3.26-.83-2-8.41-.7-21.78-.82-2.48,0-33.21-1.37-34.65-1.63a96.55,96.55,0,0,0-12.87-1.63A6,6,0,0,0,542.24,525.35Z" transform="translate(-468.5 -297.97)"/><polygon class="cls-8" points="29 230.53 35 240.53 42 246.53 66 254.53 66 230.53 52 224.53 38 215.53 29 230.53"/><polygon class="cls-8" points="29 208.53 29 230.53 38 219.53 38 215.53 29 208.53"/><polygon class="cls-8" points="230.52 206.53 214.71 219.4 198.9 226.32 191 254.03 204.83 251.06 214.71 248.09 230.52 239.19 232.5 228.3 232.5 212.47 230.52 206.53"/><polygon class="cls-9" points="172 233.53 162 258.53 179 256.53 191 254.53 199 226.53 172 233.53"/><polygon class="cls-9" points="66 254.53 89 258.53 104 259.53 94 240.53 91 234.53 66 230.53 66 254.53"/><polygon class="cls-9" points="101 256.53 121 257.53 143 257.53 164 255.53 165 257.53 162 258.53 152 259.53 132 260.53 116 260.53 102.75 259.53 101 256.53"/><path class="cls-8" d="M497.5,528.5c-.56.14-.52,2.79,0,5a15,15,0,0,0,3,6c4.57,5.6,13.25,9,16,10,2.23.84,4.33,1.61,8.58,3,2.59.87,5.12,1.67,8.31,2.46,0,0,1,.26,2.11.5,9,2,27,3.9,28,4,4.47.46,6.71.69,10,1,.78.06,9.39.77,17,1a281.86,281.86,0,0,0,33-1c15.83-1.39,19.41-3,35-5a88.55,88.55,0,0,0,11-2c2.5-.62,4.64-1.28,7-2,1.41-.43,4.66-1.44,9-3a45.57,45.57,0,0,0,9-4c1.91-1.16,3.3-2.23,4-4s.57-3.81,0-4-1.09,1.46-3,3c-1.22,1-1.56.78-4,2-3.46,1.73-3.87,2.71-7,4a26.92,26.92,0,0,1-3,1c-11.89,3.37-10.29,3.08-14,4-1.34.33-6.87,1.7-14,3a303.88,303.88,0,0,1-33,4c-40.7,2.61-73.58-1.08-87-5-1.37-.4-.79-.29-12-4-9-3-11.22-3.66-14-6a32.73,32.73,0,0,1-6-7C499,531.57,498.14,528.34,497.5,528.5Z" transform="translate(-468.5 -297.97)"/></g><g id="Слой_11" data-name="Слой 11"><path class="cls-1" d="M640.5,612.5c-1,.34-.16,4.15,0,11,.19,8.21-.85,9.43,0,13,.29,1.2,2,5.69,9,12s14.8,8.87,35,12a309.23,309.23,0,0,0,35,4c13.88.74,24.1.4,35,0a407.07,407.07,0,0,0,50-5,74.32,74.32,0,0,0,25-8c10.1-5.48,12.29-8.49,13-10a14.69,14.69,0,0,0,.73-2.07c1.54-4.88,1.5-8.95,1.27-13.93-.43-9.06-.67-13.6-2-14-1.49-.44-2.91,2.14-7,6a43.19,43.19,0,0,1-11,8,110.67,110.67,0,0,1-28,10c-4,.88-9,1.59-19,3-12.37,1.75-18.73,2.63-27,3-8,.36-14.51.15-19,0-3.23-.11-9.21-.32-16-1a208.14,208.14,0,0,1-32-6c-19-4.74-26.38-8.37-31-11a25,25,0,0,1-6.37-4.92C642.55,615,641.42,612.2,640.5,612.5Z" transform="translate(-468.5 -297.97)"/><path class="cls-2" d="M842.5,606.5c.33-4.48-3.51-8.43-6-11-5.23-5.39-11.3-7.18-18-9-14.81-4-22.21-6-29-7a304.22,304.22,0,0,0-47-3,347.7,347.7,0,0,0-47,4c-24.7,3.47-40.9,7.82-50,18-1.91,2.14-6.14,7-5,12,.82,3.62,4.12,5.83,8,8,14.85,8.32,25,10,25,10a389.06,389.06,0,0,0,47,5c21,.61,34.76,1,54-1a184.64,184.64,0,0,0,39-8C826.22,620.37,841.86,615.11,842.5,606.5Z" transform="translate(-468.5 -297.97)"/><path class="cls-3" d="M673.46,588.35c5.4-1.53,9.39-2,17.43-3,16.2-1.9,24.3-2.85,26.15-3,13-.88,22.31-.27,40.31,1,17.75,1.23,26.71,1.69,39.23,3.93s28.54,5.76,28.33,6.9c-.26,1.35-22.72-2.33-59.93-3.93-1.13,0-16.73,0-47.94,0-15.18,0-27.88.16-42.49,5.93,0,0-10.06,1.51-11.94,5.84l0,.09c-1.22,2.94.61,6.08,1.09,6.9,2.38,4.07,9.17,5.56,10.9,5.92,19.83,4.12,31.59,3.94,31.59,3.94,25.47-.4,19.67,1.56,43.59,1,20.88-.52,36.84-2.3,42.49-3,21.3-2.53,33.59-5.6,33.77-4.94s-17.33,6.31-38.13,9.87c-17,2.93-30.14,3.48-42.49,4-14.81.58-28-.27-54.48-2-16.22-1-24.42-1.91-30.51-7.88-4.42-4.35-8.22-11.86-5.45-17.76C657.44,592.9,664.31,591,673.46,588.35Z" transform="translate(-468.5 -297.97)"/><path class="cls-3" d="M793.5,589.5c-.06.51,3.18,1,12,4a39.12,39.12,0,0,1,9,4c3.1,2,5.76,3.63,6,6,.28,2.76-2.81,5.47-7,8-15.33,9.25-33,8.6-33,9s11.23.92,27-2c14.91-2.77,18.89-5.37,21-9,.14-.24,3.34-5.92,1-11-2.17-4.71-7.77-6-17-8C802.8,588.4,793.6,588.65,793.5,589.5Z" transform="translate(-468.5 -297.97)"/><path class="cls-4" d="M672.16,592.33A53,53,0,0,1,693.5,588c19.29-.51,12.32-1.75,30.9-2a370.05,370.05,0,0,1,50,2.63c14.64,1.83,27.85,4.43,27.79,4.89s-8.63-.82-22.11-1.71c-10.82-.72-18.44-.83-29.84-1-15.9-.21-24.84.09-41.46.64-1.72.06-9.53,1.1-25.16,3.17-6.9.91-13.53,1.88-15.63,6.47-1.43,3.14-.07,6.53-1.19,6.94-1.29.47-4.91-3.43-4.58-7.13C662.62,596.66,668.24,594.08,672.16,592.33Z" transform="translate(-468.5 -297.97)"/><path class="cls-5" d="M662.19,607.81c2.55,6.77,29.7,1.32,64.89-3.06,53.4-6.64,83.42-5.6,83.42-8.14s-33.57-4.44-45.32-5.1c-39.64-2.2-25.24,2-65.91,1-11.87-.28-26.13-.95-34,8.15C664,602.19,661.26,605.33,662.19,607.81Z" transform="translate(-468.5 -297.97)"/><path class="cls-5" d="M652.5,602.5" transform="translate(-468.5 -297.97)"/><path class="cls-5" d="M652.5,598.5c-2.12-1.77-8.44.42-11,5a10,10,0,0,0-1,7c.75,3,2.87,4.61,6,7,2.77,2.11,4.15,3.17,6,3,3.16-.28,6.16-3.89,6-7s-3.53-3.5-5-8C652.25,601.68,653.93,599.69,652.5,598.5Z" transform="translate(-468.5 -297.97)"/><path class="cls-4" d="M653.09,604.87c-.57-1.63-7.88-2.52-10.51-1.31a6,6,0,0,0-1.22.75,3.58,3.58,0,0,0-1.33,3.17c0,2.64.14,4,.47,4,.15,0,.33-.23.55-.74C650.38,607.92,653.49,606,653.09,604.87Z" transform="translate(-468.5 -297.97)"/><path class="cls-6" d="M640.5,612.5c.5-.73,11,7.9,27,14,4.26,1.62,14.38,5.2,45,7,21,1.24,35.57,2.1,56,0,17.75-1.82,32.73-3.36,51-11,13.23-5.53,22.44-11.87,23-11s-9.43,9.74-22,16c-2.67,1.33-10.63,5.08-32,9a293,293,0,0,1-51,5,259.33,259.33,0,0,1-33-2c-16.41-2.07-28-3.62-41-10C649.51,622.64,640,613.22,640.5,612.5Z" transform="translate(-468.5 -297.97)"/><path class="cls-7" d="M685.24,632.35c-1,.8-1.6,2.26-1,3.26s2.45,1.16,6.93,1.63c4.9.51,7.35.77,7.92.81,5.54.44,6.42,1,11.88,1.63s10,.72,18.81.82h21.78a8.63,8.63,0,0,0,4.95-1.63c.15-.12,2.5-2,2-3.26-.83-2-8.41-.7-21.78-.82-2.48,0-33.21-1.37-34.65-1.63a96.55,96.55,0,0,0-12.87-1.63A6,6,0,0,0,685.24,632.35Z" transform="translate(-468.5 -297.97)"/><polygon class="cls-8" points="172 337.53 178 347.53 185 353.53 209 361.53 209 337.53 195 331.53 181 322.53 172 337.53"/><polygon class="cls-8" points="172 315.53 172 337.53 181 326.53 181 322.53 172 315.53"/><polygon class="cls-8" points="373.52 313.53 357.71 326.39 341.9 333.32 334 361.03 347.83 358.06 357.71 355.09 373.52 346.19 375.5 335.3 375.5 319.47 373.52 313.53"/><polygon class="cls-9" points="315 340.53 305 365.53 322 363.53 334 361.53 342 333.53 315 340.53"/><polygon class="cls-9" points="209 361.53 232 365.53 247 366.53 237 347.53 234 341.53 209 337.53 209 361.53"/><polygon class="cls-9" points="244 363.53 264 364.53 286 364.53 307 362.53 308 364.53 305 365.53 295 366.53 275 367.53 259 367.53 245.75 366.53 244 363.53"/><path class="cls-8" d="M640.5,635.5c-.56.14-.52,2.79,0,5a15,15,0,0,0,3,6c4.57,5.6,13.25,9,16,10,2.23.84,4.33,1.61,8.58,3,2.59.87,5.12,1.67,8.31,2.46,0,0,1,.26,2.11.5,9,2,27,3.9,28,4,4.47.46,6.71.69,10,1,.78.06,9.39.77,17,1a281.86,281.86,0,0,0,33-1c15.83-1.39,19.41-3,35-5a88.55,88.55,0,0,0,11-2c2.5-.62,4.64-1.28,7-2,1.41-.43,4.66-1.44,9-3a45.57,45.57,0,0,0,9-4c1.91-1.16,3.3-2.23,4-4s.57-3.81,0-4-1.09,1.46-3,3c-1.22,1-1.56.78-4,2-3.46,1.73-3.87,2.71-7,4a26.92,26.92,0,0,1-3,1c-11.89,3.37-10.29,3.08-14,4-1.34.33-6.87,1.7-14,3a303.88,303.88,0,0,1-33,4c-40.7,2.61-73.58-1.08-87-5-1.37-.4-.79-.29-12-4-9-3-11.22-3.66-14-6a32.73,32.73,0,0,1-6-7C642,638.57,641.14,635.34,640.5,635.5Z" transform="translate(-468.5 -297.97)"/><path class="cls-1" d="M642.5,578.5c-1,.34-.16,4.15,0,11,.19,8.21-.85,9.43,0,13,.29,1.2,2,5.69,9,12s14.8,8.87,35,12a309.23,309.23,0,0,0,35,4c13.88.74,24.1.4,35,0a407.07,407.07,0,0,0,50-5,74.32,74.32,0,0,0,25-8c10.1-5.48,12.29-8.49,13-10a14.69,14.69,0,0,0,.73-2.07c1.54-4.88,1.5-8.95,1.27-13.93-.43-9.06-.67-13.6-2-14-1.49-.44-2.91,2.14-7,6a43.19,43.19,0,0,1-11,8,110.67,110.67,0,0,1-28,10c-4,.88-9,1.59-19,3-12.37,1.75-18.73,2.63-27,3-8,.36-14.51.15-19,0-3.23-.11-9.21-.32-16-1a208.14,208.14,0,0,1-32-6c-19-4.74-26.38-8.37-31-11a25,25,0,0,1-6.37-4.92C644.55,581,643.42,578.2,642.5,578.5Z" transform="translate(-468.5 -297.97)"/><path class="cls-2" d="M844.5,572.5c.33-4.48-3.51-8.43-6-11-5.23-5.39-11.3-7.18-18-9-14.81-4-22.21-6-29-7a304.22,304.22,0,0,0-47-3,347.7,347.7,0,0,0-47,4c-24.7,3.47-40.9,7.82-50,18-1.91,2.14-6.14,7-5,12,.82,3.62,4.12,5.83,8,8,14.85,8.32,25,10,25,10a389.06,389.06,0,0,0,47,5c21,.61,34.76,1,54-1a184.64,184.64,0,0,0,39-8C828.22,586.37,843.86,581.11,844.5,572.5Z" transform="translate(-468.5 -297.97)"/><path class="cls-3" d="M675.46,554.35c5.4-1.53,9.39-2,17.43-3,16.2-1.9,24.3-2.85,26.15-3,13-.88,22.31-.27,40.31,1,17.75,1.23,26.71,1.69,39.23,3.93s28.54,5.76,28.33,6.9c-.26,1.35-22.72-2.33-59.93-3.93-1.13,0-16.73,0-47.94,0-15.18,0-27.88.16-42.49,5.93,0,0-10.06,1.51-11.94,5.84l0,.09c-1.22,2.94.61,6.08,1.09,6.9,2.38,4.07,9.17,5.56,10.9,5.92,19.83,4.12,31.59,3.94,31.59,3.94,25.47-.4,19.67,1.56,43.59,1,20.88-.52,36.84-2.3,42.49-3,21.3-2.53,33.59-5.6,33.77-4.94s-17.33,6.31-38.13,9.87c-17,2.93-30.14,3.48-42.49,4-14.81.58-28-.27-54.48-2-16.22-1-24.42-1.91-30.51-7.88-4.42-4.35-8.22-11.86-5.45-17.76C659.44,558.9,666.31,557,675.46,554.35Z" transform="translate(-468.5 -297.97)"/><path class="cls-3" d="M795.5,555.5c-.06.51,3.18,1,12,4a39.12,39.12,0,0,1,9,4c3.1,2,5.76,3.63,6,6,.28,2.76-2.81,5.47-7,8-15.33,9.25-33,8.6-33,9s11.23.92,27-2c14.91-2.77,18.89-5.37,21-9,.14-.24,3.34-5.92,1-11-2.17-4.71-7.77-6-17-8C804.8,554.4,795.6,554.65,795.5,555.5Z" transform="translate(-468.5 -297.97)"/><path class="cls-4" d="M674.16,558.33A53,53,0,0,1,695.5,554c19.29-.51,12.32-1.75,30.9-2a370.05,370.05,0,0,1,50,2.63c14.64,1.83,27.85,4.43,27.79,4.89s-8.63-.82-22.11-1.71c-10.82-.72-18.44-.83-29.84-1-15.9-.21-24.84.09-41.46.64-1.72.06-9.53,1.1-25.16,3.17-6.9.91-13.53,1.88-15.63,6.47-1.43,3.14-.07,6.53-1.19,6.94-1.29.47-4.91-3.43-4.58-7.13C664.62,562.66,670.24,560.08,674.16,558.33Z" transform="translate(-468.5 -297.97)"/><path class="cls-5" d="M664.19,573.81c2.55,6.77,29.7,1.32,64.89-3.06,53.4-6.64,83.42-5.6,83.42-8.14s-33.57-4.44-45.32-5.1c-39.64-2.2-25.24,2-65.91,1-11.87-.28-26.13-.95-34,8.15C666,568.19,663.26,571.33,664.19,573.81Z" transform="translate(-468.5 -297.97)"/><path class="cls-5" d="M654.5,568.5" transform="translate(-468.5 -297.97)"/><path class="cls-5" d="M654.5,564.5c-2.12-1.77-8.44.42-11,5a10,10,0,0,0-1,7c.75,3,2.87,4.61,6,7,2.77,2.11,4.15,3.17,6,3,3.16-.28,6.16-3.89,6-7s-3.53-3.5-5-8C654.25,567.68,655.93,565.69,654.5,564.5Z" transform="translate(-468.5 -297.97)"/><path class="cls-4" d="M655.09,570.87c-.57-1.63-7.88-2.52-10.51-1.31a6,6,0,0,0-1.22.75,3.58,3.58,0,0,0-1.33,3.17c0,2.64.14,4,.47,4,.15,0,.33-.23.55-.74C652.38,573.92,655.49,572,655.09,570.87Z" transform="translate(-468.5 -297.97)"/><path class="cls-6" d="M642.5,578.5c.5-.73,11,7.9,27,14,4.26,1.62,14.38,5.2,45,7,21,1.24,35.57,2.1,56,0,17.75-1.82,32.73-3.36,51-11,13.23-5.53,22.44-11.87,23-11s-9.43,9.74-22,16c-2.67,1.33-10.63,5.08-32,9a293,293,0,0,1-51,5,259.33,259.33,0,0,1-33-2c-16.41-2.07-28-3.62-41-10C651.51,588.64,642,579.22,642.5,578.5Z" transform="translate(-468.5 -297.97)"/><path class="cls-7" d="M687.24,598.35c-1,.8-1.6,2.26-1,3.26s2.45,1.16,6.93,1.63c4.9.51,7.35.77,7.92.81,5.54.44,6.42,1,11.88,1.63s10,.72,18.81.82h21.78a8.63,8.63,0,0,0,4.95-1.63c.15-.12,2.5-2,2-3.26-.83-2-8.41-.7-21.78-.82-2.48,0-33.21-1.37-34.65-1.63a96.55,96.55,0,0,0-12.87-1.63A6,6,0,0,0,687.24,598.35Z" transform="translate(-468.5 -297.97)"/><polygon class="cls-8" points="174 303.53 180 313.53 187 319.53 211 327.53 211 303.53 197 297.53 183 288.53 174 303.53"/><polygon class="cls-8" points="174 281.53 174 303.53 183 292.53 183 288.53 174 281.53"/><polygon class="cls-8" points="375.52 279.53 359.71 292.39 343.9 299.32 336 327.03 349.83 324.06 359.71 321.09 375.52 312.19 377.5 301.3 377.5 285.47 375.52 279.53"/><polygon class="cls-9" points="317 306.53 307 331.53 324 329.53 336 327.53 344 299.53 317 306.53"/><polygon class="cls-9" points="211 327.53 234 331.53 249 332.53 239 313.53 236 307.53 211 303.53 211 327.53"/><polygon class="cls-9" points="246 329.53 266 330.53 288 330.53 309 328.53 310 330.53 307 331.53 297 332.53 277 333.53 261 333.53 247.75 332.53 246 329.53"/><path class="cls-8" d="M642.5,601.5c-.56.14-.52,2.79,0,5a15,15,0,0,0,3,6c4.57,5.6,13.25,9,16,10,2.23.84,4.33,1.61,8.58,3,2.59.87,5.12,1.67,8.31,2.46,0,0,1,.26,2.11.5,9,2,27,3.9,28,4,4.47.46,6.71.69,10,1,.78.06,9.39.77,17,1a281.86,281.86,0,0,0,33-1c15.83-1.39,19.41-3,35-5a88.55,88.55,0,0,0,11-2c2.5-.62,4.64-1.28,7-2,1.41-.43,4.66-1.44,9-3a45.57,45.57,0,0,0,9-4c1.91-1.16,3.3-2.23,4-4s.57-3.81,0-4-1.09,1.46-3,3c-1.22,1-1.56.78-4,2-3.46,1.73-3.87,2.71-7,4a26.92,26.92,0,0,1-3,1c-11.89,3.37-10.29,3.08-14,4-1.34.33-6.87,1.7-14,3a303.88,303.88,0,0,1-33,4c-40.7,2.61-73.58-1.08-87-5-1.37-.4-.79-.29-12-4-9-3-11.22-3.66-14-6a32.73,32.73,0,0,1-6-7C644,604.57,643.14,601.34,642.5,601.5Z" transform="translate(-468.5 -297.97)"/><path class="cls-1" d="M632.5,541.5c-1,.34-.16,4.15,0,11,.19,8.21-.85,9.43,0,13,.29,1.2,2,5.69,9,12s14.8,8.87,35,12a309.23,309.23,0,0,0,35,4c13.88.74,24.1.4,35,0a407.07,407.07,0,0,0,50-5,74.32,74.32,0,0,0,25-8c10.1-5.48,12.29-8.49,13-10a14.69,14.69,0,0,0,.73-2.07c1.54-4.88,1.5-8.95,1.27-13.93-.43-9.06-.67-13.6-2-14-1.49-.44-2.91,2.14-7,6a43.19,43.19,0,0,1-11,8,110.67,110.67,0,0,1-28,10c-4,.88-9,1.59-19,3-12.37,1.75-18.73,2.63-27,3-8,.36-14.51.15-19,0-3.23-.11-9.21-.32-16-1a208.14,208.14,0,0,1-32-6c-19-4.74-26.38-8.37-31-11a25,25,0,0,1-6.37-4.92C634.55,544,633.42,541.2,632.5,541.5Z" transform="translate(-468.5 -297.97)"/><path class="cls-2" d="M834.5,535.5c.33-4.48-3.51-8.43-6-11-5.23-5.39-11.3-7.18-18-9-14.81-4-22.21-6-29-7a304.22,304.22,0,0,0-47-3,347.7,347.7,0,0,0-47,4c-24.7,3.47-40.9,7.82-50,18-1.91,2.14-6.14,7-5,12,.82,3.62,4.12,5.83,8,8,14.85,8.32,25,10,25,10a389.06,389.06,0,0,0,47,5c21,.61,34.76,1,54-1a184.64,184.64,0,0,0,39-8C818.22,549.37,833.86,544.11,834.5,535.5Z" transform="translate(-468.5 -297.97)"/><path class="cls-3" d="M665.46,517.35c5.4-1.53,9.39-2,17.43-3,16.2-1.9,24.3-2.85,26.15-3,13-.88,22.31-.27,40.31,1,17.75,1.23,26.71,1.69,39.23,3.93s28.54,5.76,28.33,6.9c-.26,1.35-22.72-2.33-59.93-3.93-1.13,0-16.73,0-47.94,0-15.18,0-27.88.16-42.49,5.93,0,0-10.06,1.51-11.94,5.84l0,.09c-1.22,2.94.61,6.08,1.09,6.9,2.38,4.07,9.17,5.56,10.9,5.92,19.83,4.12,31.59,3.94,31.59,3.94,25.47-.4,19.67,1.56,43.59,1,20.88-.52,36.84-2.3,42.49-3,21.3-2.53,33.59-5.6,33.77-4.94s-17.33,6.31-38.13,9.87c-17,2.93-30.14,3.48-42.49,4-14.81.58-28-.27-54.48-2-16.22-1-24.42-1.91-30.51-7.88-4.42-4.35-8.22-11.86-5.45-17.76C649.44,521.9,656.31,520,665.46,517.35Z" transform="translate(-468.5 -297.97)"/><path class="cls-3" d="M785.5,518.5c-.06.51,3.18,1,12,4a39.12,39.12,0,0,1,9,4c3.1,2,5.76,3.63,6,6,.28,2.76-2.81,5.47-7,8-15.33,9.25-33,8.6-33,9s11.23.92,27-2c14.91-2.77,18.89-5.37,21-9,.14-.24,3.34-5.92,1-11-2.17-4.71-7.77-6-17-8C794.8,517.4,785.6,517.65,785.5,518.5Z" transform="translate(-468.5 -297.97)"/><path class="cls-4" d="M664.16,521.33A53,53,0,0,1,685.5,517c19.29-.51,12.32-1.75,30.9-2a370.05,370.05,0,0,1,50,2.63c14.64,1.83,27.85,4.43,27.79,4.89s-8.63-.82-22.11-1.71c-10.82-.72-18.44-.83-29.84-1-15.9-.21-24.84.09-41.46.64-1.72.06-9.53,1.1-25.16,3.17-6.9.91-13.53,1.88-15.63,6.47-1.43,3.14-.07,6.53-1.19,6.94-1.29.47-4.91-3.43-4.58-7.13C654.62,525.66,660.24,523.08,664.16,521.33Z" transform="translate(-468.5 -297.97)"/><path class="cls-5" d="M654.19,536.81c2.55,6.77,29.7,1.32,64.89-3.06,53.4-6.64,83.42-5.6,83.42-8.14s-33.57-4.44-45.32-5.1c-39.64-2.2-25.24,2-65.91,1-11.87-.28-26.13-.95-34,8.15C656,531.19,653.26,534.33,654.19,536.81Z" transform="translate(-468.5 -297.97)"/><path class="cls-5" d="M644.5,531.5" transform="translate(-468.5 -297.97)"/><path class="cls-5" d="M644.5,527.5c-2.12-1.77-8.44.42-11,5a10,10,0,0,0-1,7c.75,3,2.87,4.61,6,7,2.77,2.11,4.15,3.17,6,3,3.16-.28,6.16-3.89,6-7s-3.53-3.5-5-8C644.25,530.68,645.93,528.69,644.5,527.5Z" transform="translate(-468.5 -297.97)"/><path class="cls-4" d="M645.09,533.87c-.57-1.63-7.88-2.52-10.51-1.31a6,6,0,0,0-1.22.75,3.58,3.58,0,0,0-1.33,3.17c0,2.64.14,4,.47,4,.15,0,.33-.23.55-.74C642.38,536.92,645.49,535,645.09,533.87Z" transform="translate(-468.5 -297.97)"/><path class="cls-6" d="M632.5,541.5c.5-.73,11,7.9,27,14,4.26,1.62,14.38,5.2,45,7,21,1.24,35.57,2.1,56,0,17.75-1.82,32.73-3.36,51-11,13.23-5.53,22.44-11.87,23-11s-9.43,9.74-22,16c-2.67,1.33-10.63,5.08-32,9a293,293,0,0,1-51,5,259.33,259.33,0,0,1-33-2c-16.41-2.07-28-3.62-41-10C641.51,551.64,632,542.22,632.5,541.5Z" transform="translate(-468.5 -297.97)"/><path class="cls-7" d="M677.24,561.35c-1,.8-1.6,2.26-1,3.26s2.45,1.16,6.93,1.63c4.9.51,7.35.77,7.92.81,5.54.44,6.42,1,11.88,1.63s10,.72,18.81.82h21.78a8.63,8.63,0,0,0,4.95-1.63c.15-.12,2.5-2,2-3.26-.83-2-8.41-.7-21.78-.82-2.48,0-33.21-1.37-34.65-1.63a96.55,96.55,0,0,0-12.87-1.63A6,6,0,0,0,677.24,561.35Z" transform="translate(-468.5 -297.97)"/><polygon class="cls-8" points="164 266.53 170 276.53 177 282.53 201 290.53 201 266.53 187 260.53 173 251.53 164 266.53"/><polygon class="cls-8" points="164 244.53 164 266.53 173 255.53 173 251.53 164 244.53"/><polygon class="cls-8" points="365.52 242.53 349.71 255.4 333.9 262.32 326 290.03 339.83 287.06 349.71 284.09 365.52 275.19 367.5 264.3 367.5 248.47 365.52 242.53"/><polygon class="cls-9" points="307 269.53 297 294.53 314 292.53 326 290.53 334 262.53 307 269.53"/><polygon class="cls-9" points="201 290.53 224 294.53 239 295.53 229 276.53 226 270.53 201 266.53 201 290.53"/><polygon class="cls-9" points="236 292.53 256 293.53 278 293.53 299 291.53 300 293.53 297 294.53 287 295.53 267 296.53 251 296.53 237.75 295.53 236 292.53"/><path class="cls-8" d="M632.5,564.5c-.56.14-.52,2.79,0,5a15,15,0,0,0,3,6c4.57,5.6,13.25,9,16,10,2.23.84,4.33,1.61,8.58,3,2.59.87,5.12,1.67,8.31,2.46,0,0,1,.26,2.11.5,9,2,27,3.9,28,4,4.47.46,6.71.69,10,1,.78.06,9.39.77,17,1a281.86,281.86,0,0,0,33-1c15.83-1.39,19.41-3,35-5a88.55,88.55,0,0,0,11-2c2.5-.62,4.64-1.28,7-2,1.41-.43,4.66-1.44,9-3a45.57,45.57,0,0,0,9-4c1.91-1.16,3.3-2.23,4-4s.57-3.81,0-4-1.09,1.46-3,3c-1.22,1-1.56.78-4,2-3.46,1.73-3.87,2.71-7,4a26.92,26.92,0,0,1-3,1c-11.89,3.37-10.29,3.08-14,4-1.34.33-6.87,1.7-14,3a303.88,303.88,0,0,1-33,4c-40.7,2.61-73.58-1.08-87-5-1.37-.4-.79-.29-12-4-9-3-11.22-3.66-14-6a32.73,32.73,0,0,1-6-7C634,567.57,633.14,564.34,632.5,564.5Z" transform="translate(-468.5 -297.97)"/><path class="cls-1" d="M641.5,507.5c-1,.34-.16,4.15,0,11,.19,8.21-.85,9.43,0,13,.29,1.2,2,5.69,9,12s14.8,8.87,35,12a309.23,309.23,0,0,0,35,4c13.88.74,24.1.4,35,0a407.07,407.07,0,0,0,50-5,74.32,74.32,0,0,0,25-8c10.1-5.48,12.29-8.49,13-10a14.69,14.69,0,0,0,.73-2.07c1.54-4.88,1.5-8.95,1.27-13.93-.43-9.06-.67-13.6-2-14-1.49-.44-2.91,2.14-7,6a43.19,43.19,0,0,1-11,8,110.67,110.67,0,0,1-28,10c-4,.88-9,1.59-19,3-12.37,1.75-18.73,2.63-27,3-8,.36-14.51.15-19,0-3.23-.11-9.21-.32-16-1a208.14,208.14,0,0,1-32-6c-19-4.74-26.38-8.37-31-11a25,25,0,0,1-6.37-4.92C643.55,510,642.42,507.2,641.5,507.5Z" transform="translate(-468.5 -297.97)"/><path class="cls-2" d="M843.5,501.5c.33-4.48-3.51-8.43-6-11-5.23-5.39-11.3-7.18-18-9-14.81-4-22.21-6-29-7a304.22,304.22,0,0,0-47-3,347.7,347.7,0,0,0-47,4c-24.7,3.47-40.9,7.82-50,18-1.91,2.14-6.14,7-5,12,.82,3.62,4.12,5.83,8,8,14.85,8.32,25,10,25,10a389.06,389.06,0,0,0,47,5c21,.61,34.76,1,54-1a184.64,184.64,0,0,0,39-8C827.22,515.37,842.86,510.11,843.5,501.5Z" transform="translate(-468.5 -297.97)"/><path class="cls-3" d="M674.46,483.35c5.4-1.53,9.39-2,17.43-3,16.2-1.9,24.3-2.85,26.15-3,13-.88,22.31-.27,40.31,1,17.75,1.23,26.71,1.69,39.23,3.93s28.54,5.76,28.33,6.9c-.26,1.35-22.72-2.33-59.93-3.93-1.13-.05-16.73,0-47.94,0-15.18,0-27.88.16-42.49,5.93,0,0-10.06,1.51-11.94,5.84l0,.09c-1.22,2.94.61,6.08,1.09,6.9,2.38,4.07,9.17,5.56,10.9,5.92,19.83,4.12,31.59,3.94,31.59,3.94,25.47-.4,19.67,1.56,43.59,1,20.88-.52,36.84-2.3,42.49-3,21.3-2.53,33.59-5.6,33.77-4.94s-17.33,6.31-38.13,9.87c-17,2.93-30.14,3.48-42.49,4-14.81.58-28-.27-54.48-2-16.22-1-24.42-1.91-30.51-7.88-4.42-4.35-8.22-11.86-5.45-17.76C658.44,487.9,665.31,486,674.46,483.35Z" transform="translate(-468.5 -297.97)"/><path class="cls-3" d="M794.5,484.5c-.06.51,3.18,1,12,4a39.12,39.12,0,0,1,9,4c3.1,1.95,5.76,3.63,6,6,.28,2.76-2.81,5.47-7,8-15.33,9.25-33,8.6-33,9s11.23.92,27-2c14.91-2.77,18.89-5.37,21-9,.14-.24,3.34-5.92,1-11-2.17-4.71-7.77-6-17-8C803.8,483.4,794.6,483.65,794.5,484.5Z" transform="translate(-468.5 -297.97)"/><path class="cls-4" d="M673.16,487.33A53,53,0,0,1,694.5,483c19.29-.51,12.32-1.75,30.9-2a370.05,370.05,0,0,1,50,2.63c14.64,1.83,27.85,4.43,27.79,4.89s-8.63-.82-22.11-1.71c-10.82-.72-18.44-.83-29.84-1-15.9-.21-24.84.09-41.46.64-1.72.06-9.53,1.1-25.16,3.17-6.9.91-13.53,1.88-15.63,6.47-1.43,3.14-.07,6.53-1.19,6.94-1.29.47-4.91-3.43-4.58-7.13C663.62,491.66,669.24,489.08,673.16,487.33Z" transform="translate(-468.5 -297.97)"/><path class="cls-5" d="M663.19,502.81c2.55,6.77,29.7,1.32,64.89-3.06,53.4-6.64,83.42-5.6,83.42-8.14s-33.57-4.44-45.32-5.1c-39.64-2.2-25.24,2-65.91,1-11.87-.28-26.13-.95-34,8.15C665,497.19,662.26,500.33,663.19,502.81Z" transform="translate(-468.5 -297.97)"/><path class="cls-5" d="M653.5,497.5" transform="translate(-468.5 -297.97)"/><path class="cls-5" d="M653.5,493.5c-2.12-1.77-8.44.42-11,5a10,10,0,0,0-1,7c.75,3,2.87,4.61,6,7,2.77,2.11,4.15,3.17,6,3,3.16-.28,6.16-3.89,6-7s-3.53-3.5-5-8C653.25,496.68,654.93,494.69,653.5,493.5Z" transform="translate(-468.5 -297.97)"/><path class="cls-4" d="M654.09,499.87c-.57-1.63-7.88-2.52-10.51-1.31a6,6,0,0,0-1.22.75,3.58,3.58,0,0,0-1.33,3.17c0,2.64.14,4,.47,4,.15,0,.33-.23.55-.74C651.38,502.92,654.49,501,654.09,499.87Z" transform="translate(-468.5 -297.97)"/><path class="cls-6" d="M641.5,507.5c.5-.73,11,7.9,27,14,4.26,1.62,14.38,5.2,45,7,21,1.24,35.57,2.1,56,0,17.75-1.82,32.73-3.36,51-11,13.23-5.53,22.44-11.87,23-11s-9.43,9.74-22,16c-2.67,1.33-10.63,5.08-32,9a293,293,0,0,1-51,5,259.33,259.33,0,0,1-33-2c-16.41-2.07-28-3.62-41-10C650.51,517.64,641,508.22,641.5,507.5Z" transform="translate(-468.5 -297.97)"/><path class="cls-7" d="M686.24,527.35c-1,.8-1.6,2.26-1,3.26s2.45,1.16,6.93,1.63c4.9.51,7.35.77,7.92.81,5.54.44,6.42,1,11.88,1.63s10,.72,18.81.82h21.78a8.63,8.63,0,0,0,4.95-1.63c.15-.12,2.5-2,2-3.26-.83-2-8.41-.7-21.78-.82-2.48,0-33.21-1.37-34.65-1.63a96.55,96.55,0,0,0-12.87-1.63A6,6,0,0,0,686.24,527.35Z" transform="translate(-468.5 -297.97)"/><polygon class="cls-8" points="173 232.53 179 242.53 186 248.53 210 256.53 210 232.53 196 226.53 182 217.53 173 232.53"/><polygon class="cls-8" points="173 210.53 173 232.53 182 221.53 182 217.53 173 210.53"/><polygon class="cls-8" points="374.52 208.53 358.71 221.4 342.9 228.32 335 256.03 348.83 253.06 358.71 250.09 374.52 241.19 376.5 230.3 376.5 214.47 374.52 208.53"/><polygon class="cls-9" points="316 235.53 306 260.53 323 258.53 335 256.53 343 228.53 316 235.53"/><polygon class="cls-9" points="210 256.53 233 260.53 248 261.53 238 242.53 235 236.53 210 232.53 210 256.53"/><polygon class="cls-9" points="245 258.53 265 259.53 287 259.53 308 257.53 309 259.53 306 260.53 296 261.53 276 262.53 260 262.53 246.75 261.53 245 258.53"/><path class="cls-8" d="M641.5,530.5c-.56.14-.52,2.79,0,5a15,15,0,0,0,3,6c4.57,5.6,13.25,9,16,10,2.23.84,4.33,1.61,8.58,3,2.59.87,5.12,1.67,8.31,2.46,0,0,1,.26,2.11.5,9,2,27,3.9,28,4,4.47.46,6.71.69,10,1,.78.06,9.39.77,17,1a281.86,281.86,0,0,0,33-1c15.83-1.39,19.41-3,35-5a88.55,88.55,0,0,0,11-2c2.5-.62,4.64-1.28,7-2,1.41-.43,4.66-1.44,9-3a45.57,45.57,0,0,0,9-4c1.91-1.16,3.3-2.23,4-4s.57-3.81,0-4-1.09,1.46-3,3c-1.22,1-1.56.78-4,2-3.46,1.73-3.87,2.71-7,4a26.92,26.92,0,0,1-3,1c-11.89,3.37-10.29,3.08-14,4-1.34.33-6.87,1.7-14,3a303.88,303.88,0,0,1-33,4c-40.7,2.61-73.58-1.08-87-5-1.37-.4-.79-.29-12-4-9-3-11.22-3.66-14-6a32.73,32.73,0,0,1-6-7C643,533.57,642.14,530.34,641.5,530.5Z" transform="translate(-468.5 -297.97)"/><path class="cls-1" d="M648.5,473.5c-1,.34-.16,4.15,0,11,.19,8.21-.85,9.43,0,13,.29,1.2,2,5.69,9,12s14.8,8.87,35,12a309.23,309.23,0,0,0,35,4c13.88.74,24.1.4,35,0a407.07,407.07,0,0,0,50-5,74.32,74.32,0,0,0,25-8c10.1-5.48,12.29-8.49,13-10a14.69,14.69,0,0,0,.73-2.07c1.54-4.88,1.5-8.95,1.27-13.93-.43-9.06-.67-13.6-2-14-1.49-.44-2.91,2.14-7,6a43.19,43.19,0,0,1-11,8,110.67,110.67,0,0,1-28,10c-4,.88-9,1.59-19,3-12.37,1.75-18.73,2.63-27,3-8,.36-14.51.15-19,0-3.23-.11-9.21-.32-16-1a208.14,208.14,0,0,1-32-6c-19-4.74-26.38-8.37-31-11a25,25,0,0,1-6.37-4.92C650.55,476,649.42,473.2,648.5,473.5Z" transform="translate(-468.5 -297.97)"/><path class="cls-2" d="M850.5,467.5c.33-4.48-3.51-8.43-6-11-5.23-5.39-11.3-7.18-18-9-14.81-4-22.21-6-29-7a304.22,304.22,0,0,0-47-3,347.7,347.7,0,0,0-47,4c-24.7,3.47-40.9,7.82-50,18-1.91,2.14-6.14,7-5,12,.82,3.62,4.12,5.83,8,8,14.85,8.32,25,10,25,10a389.06,389.06,0,0,0,47,5c21,.61,34.76,1,54-1a184.64,184.64,0,0,0,39-8C834.22,481.37,849.86,476.11,850.5,467.5Z" transform="translate(-468.5 -297.97)"/><path class="cls-3" d="M681.46,449.35c5.4-1.53,9.39-2,17.43-3,16.2-1.9,24.3-2.85,26.15-3,13-.88,22.31-.27,40.31,1,17.75,1.23,26.71,1.69,39.23,3.93s28.54,5.76,28.33,6.9c-.26,1.35-22.72-2.33-59.93-3.93-1.13-.05-16.73,0-47.94,0-15.18,0-27.88.16-42.49,5.93,0,0-10.06,1.51-11.94,5.84l0,.09c-1.22,2.94.61,6.08,1.09,6.9,2.38,4.07,9.17,5.56,10.9,5.92,19.83,4.12,31.59,3.94,31.59,3.94,25.47-.4,19.67,1.56,43.59,1,20.88-.52,36.84-2.3,42.49-3,21.3-2.53,33.59-5.6,33.77-4.94s-17.33,6.31-38.13,9.87c-17,2.93-30.14,3.48-42.49,4-14.81.58-28-.27-54.48-2-16.22-1-24.42-1.91-30.51-7.88-4.42-4.35-8.22-11.86-5.45-17.76C665.44,453.9,672.31,452,681.46,449.35Z" transform="translate(-468.5 -297.97)"/><path class="cls-3" d="M801.5,450.5c-.06.51,3.18,1,12,4a39.12,39.12,0,0,1,9,4c3.1,1.95,5.76,3.63,6,6,.28,2.76-2.81,5.47-7,8-15.33,9.25-33,8.6-33,9s11.23.92,27-2c14.91-2.77,18.89-5.37,21-9,.14-.24,3.34-5.92,1-11-2.17-4.71-7.77-6-17-8C810.8,449.4,801.6,449.65,801.5,450.5Z" transform="translate(-468.5 -297.97)"/><path class="cls-4" d="M680.16,453.33A53,53,0,0,1,701.5,449c19.29-.51,12.32-1.75,30.9-2a370.05,370.05,0,0,1,50,2.63c14.64,1.83,27.85,4.43,27.79,4.89s-8.63-.82-22.11-1.71c-10.82-.72-18.44-.83-29.84-1-15.9-.21-24.84.09-41.46.64-1.72.06-9.53,1.1-25.16,3.17-6.9.91-13.53,1.88-15.63,6.47-1.43,3.14-.07,6.53-1.19,6.94-1.29.47-4.91-3.43-4.58-7.13C670.62,457.66,676.24,455.08,680.16,453.33Z" transform="translate(-468.5 -297.97)"/><path class="cls-5" d="M670.19,468.81c2.55,6.77,29.7,1.32,64.89-3.06,53.4-6.64,83.42-5.6,83.42-8.14s-33.57-4.44-45.32-5.1c-39.64-2.2-25.24,2-65.91,1-11.87-.28-26.13-.95-34,8.15C672,463.19,669.26,466.33,670.19,468.81Z" transform="translate(-468.5 -297.97)"/><path class="cls-5" d="M660.5,463.5" transform="translate(-468.5 -297.97)"/><path class="cls-5" d="M660.5,459.5c-2.12-1.77-8.44.42-11,5a10,10,0,0,0-1,7c.75,3,2.87,4.61,6,7,2.77,2.11,4.15,3.17,6,3,3.16-.28,6.16-3.89,6-7s-3.53-3.5-5-8C660.25,462.68,661.93,460.69,660.5,459.5Z" transform="translate(-468.5 -297.97)"/><path class="cls-4" d="M661.09,465.87c-.57-1.63-7.88-2.52-10.51-1.31a6,6,0,0,0-1.22.75,3.58,3.58,0,0,0-1.33,3.17c0,2.64.14,4,.47,4,.15,0,.33-.23.55-.74C658.38,468.92,661.49,467,661.09,465.87Z" transform="translate(-468.5 -297.97)"/><path class="cls-6" d="M648.5,473.5c.5-.73,11,7.9,27,14,4.26,1.62,14.38,5.2,45,7,21,1.24,35.57,2.1,56,0,17.75-1.82,32.73-3.36,51-11,13.23-5.53,22.44-11.87,23-11s-9.43,9.74-22,16c-2.67,1.33-10.63,5.08-32,9a293,293,0,0,1-51,5,259.33,259.33,0,0,1-33-2c-16.41-2.07-28-3.62-41-10C657.51,483.64,648,474.22,648.5,473.5Z" transform="translate(-468.5 -297.97)"/><path class="cls-7" d="M693.24,493.35c-1,.8-1.6,2.26-1,3.26s2.45,1.16,6.93,1.63c4.9.51,7.35.77,7.92.81,5.54.44,6.42,1,11.88,1.63s10,.72,18.81.82h21.78a8.63,8.63,0,0,0,4.95-1.63c.15-.12,2.5-2,2-3.26-.83-2-8.41-.7-21.78-.82-2.48,0-33.21-1.37-34.65-1.63a96.55,96.55,0,0,0-12.87-1.63A6,6,0,0,0,693.24,493.35Z" transform="translate(-468.5 -297.97)"/><polygon class="cls-8" points="180 198.53 186 208.53 193 214.53 217 222.53 217 198.53 203 192.53 189 183.53 180 198.53"/><polygon class="cls-8" points="180 176.53 180 198.53 189 187.53 189 183.53 180 176.53"/><polygon class="cls-8" points="381.52 174.53 365.71 187.4 349.9 194.32 342 222.03 355.83 219.06 365.71 216.09 381.52 207.19 383.5 196.3 383.5 180.47 381.52 174.53"/><polygon class="cls-9" points="323 201.53 313 226.53 330 224.53 342 222.53 350 194.53 323 201.53"/><polygon class="cls-9" points="217 222.53 240 226.53 255 227.53 245 208.53 242 202.53 217 198.53 217 222.53"/><polygon class="cls-9" points="252 224.53 272 225.53 294 225.53 315 223.53 316 225.53 313 226.53 303 227.53 283 228.53 267 228.53 253.75 227.53 252 224.53"/><path class="cls-8" d="M648.5,496.5c-.56.14-.52,2.79,0,5a15,15,0,0,0,3,6c4.57,5.6,13.25,9,16,10,2.23.84,4.33,1.61,8.58,3,2.59.87,5.12,1.67,8.31,2.46,0,0,1,.26,2.11.5,9,2,27,3.9,28,4,4.47.46,6.71.69,10,1,.78.06,9.39.77,17,1a281.86,281.86,0,0,0,33-1c15.83-1.39,19.41-3,35-5a88.55,88.55,0,0,0,11-2c2.5-.62,4.64-1.28,7-2,1.41-.43,4.66-1.44,9-3a45.57,45.57,0,0,0,9-4c1.91-1.16,3.3-2.23,4-4s.57-3.81,0-4-1.09,1.46-3,3c-1.22,1-1.56.78-4,2-3.46,1.73-3.87,2.71-7,4a26.92,26.92,0,0,1-3,1c-11.89,3.37-10.29,3.08-14,4-1.34.33-6.87,1.7-14,3a303.88,303.88,0,0,1-33,4c-40.7,2.61-73.58-1.08-87-5-1.37-.4-.79-.29-12-4-9-3-11.22-3.66-14-6a32.73,32.73,0,0,1-6-7C650,499.57,649.14,496.34,648.5,496.5Z" transform="translate(-468.5 -297.97)"/><path class="cls-1" d="M638.5,432.5c-1,.34-.16,4.15,0,11,.19,8.21-.85,9.43,0,13,.29,1.2,2,5.69,9,12s14.8,8.87,35,12a309.23,309.23,0,0,0,35,4c13.88.74,24.1.4,35,0a407.07,407.07,0,0,0,50-5,74.32,74.32,0,0,0,25-8c10.1-5.48,12.29-8.49,13-10a14.69,14.69,0,0,0,.73-2.07c1.54-4.88,1.5-8.95,1.27-13.93-.43-9.06-.67-13.6-2-14-1.49-.44-2.91,2.14-7,6a43.19,43.19,0,0,1-11,8,110.67,110.67,0,0,1-28,10c-4,.88-9,1.59-19,3-12.37,1.75-18.73,2.63-27,3-8,.36-14.51.15-19,0-3.23-.11-9.21-.32-16-1a208.14,208.14,0,0,1-32-6c-19-4.74-26.38-8.37-31-11a25,25,0,0,1-6.37-4.92C640.55,435,639.42,432.2,638.5,432.5Z" transform="translate(-468.5 -297.97)"/><path class="cls-2" d="M840.5,426.5c.33-4.48-3.51-8.43-6-11-5.23-5.39-11.3-7.18-18-9-14.81-4-22.21-6-29-7a304.22,304.22,0,0,0-47-3,347.7,347.7,0,0,0-47,4c-24.7,3.47-40.9,7.82-50,18-1.91,2.14-6.14,7-5,12,.82,3.62,4.12,5.83,8,8,14.85,8.32,25,10,25,10a389.06,389.06,0,0,0,47,5c21,.61,34.76,1,54-1a184.64,184.64,0,0,0,39-8C824.22,440.37,839.86,435.11,840.5,426.5Z" transform="translate(-468.5 -297.97)"/><path class="cls-3" d="M671.46,408.35c5.4-1.53,9.39-2,17.43-3,16.2-1.9,24.3-2.85,26.15-3,13-.88,22.31-.27,40.31,1,17.75,1.23,26.71,1.69,39.23,3.93s28.54,5.76,28.33,6.9c-.26,1.35-22.72-2.33-59.93-3.93-1.13-.05-16.73,0-47.94,0-15.18,0-27.88.16-42.49,5.93,0,0-10.06,1.51-11.94,5.84l0,.09c-1.22,2.94.61,6.08,1.09,6.9,2.38,4.07,9.17,5.56,10.9,5.92,19.83,4.12,31.59,3.94,31.59,3.94,25.47-.4,19.67,1.56,43.59,1,20.88-.52,36.84-2.3,42.49-3,21.3-2.53,33.59-5.6,33.77-4.94s-17.33,6.31-38.13,9.87c-17,2.93-30.14,3.48-42.49,4-14.81.58-28-.27-54.48-2-16.22-1-24.42-1.91-30.51-7.88-4.42-4.35-8.22-11.86-5.45-17.76C655.44,412.9,662.31,411,671.46,408.35Z" transform="translate(-468.5 -297.97)"/><path class="cls-3" d="M791.5,409.5c-.06.51,3.18,1,12,4a39.12,39.12,0,0,1,9,4c3.1,1.95,5.76,3.63,6,6,.28,2.76-2.81,5.47-7,8-15.33,9.25-33,8.6-33,9s11.23.92,27-2c14.91-2.77,18.89-5.37,21-9,.14-.24,3.34-5.92,1-11-2.17-4.71-7.77-6-17-8C800.8,408.4,791.6,408.65,791.5,409.5Z" transform="translate(-468.5 -297.97)"/><path class="cls-4" d="M670.16,412.33A53,53,0,0,1,691.5,408c19.29-.51,12.32-1.75,30.9-2a370.05,370.05,0,0,1,50,2.63c14.64,1.83,27.85,4.43,27.79,4.89s-8.63-.82-22.11-1.71c-10.82-.72-18.44-.83-29.84-1-15.9-.21-24.84.09-41.46.64-1.72.06-9.53,1.1-25.16,3.17-6.9.91-13.53,1.88-15.63,6.47-1.43,3.14-.07,6.53-1.19,6.94-1.29.47-4.91-3.43-4.58-7.13C660.62,416.66,666.24,414.08,670.16,412.33Z" transform="translate(-468.5 -297.97)"/><path class="cls-5" d="M660.19,427.81c2.55,6.77,29.7,1.32,64.89-3.06,53.4-6.64,83.42-5.6,83.42-8.14s-33.57-4.44-45.32-5.1c-39.64-2.2-25.24,2-65.91,1-11.87-.28-26.13-.95-34,8.15C662,422.19,659.26,425.33,660.19,427.81Z" transform="translate(-468.5 -297.97)"/><path class="cls-5" d="M650.5,422.5" transform="translate(-468.5 -297.97)"/><path class="cls-5" d="M650.5,418.5c-2.12-1.77-8.44.42-11,5a10,10,0,0,0-1,7c.75,3,2.87,4.61,6,7,2.77,2.11,4.15,3.17,6,3,3.16-.28,6.16-3.89,6-7s-3.53-3.5-5-8C650.25,421.68,651.93,419.69,650.5,418.5Z" transform="translate(-468.5 -297.97)"/><path class="cls-4" d="M651.09,424.87c-.57-1.63-7.88-2.52-10.51-1.31a6,6,0,0,0-1.22.75,3.58,3.58,0,0,0-1.33,3.17c0,2.64.14,4,.47,4,.15,0,.33-.23.55-.74C648.38,427.92,651.49,426,651.09,424.87Z" transform="translate(-468.5 -297.97)"/><path class="cls-6" d="M638.5,432.5c.5-.73,11,7.9,27,14,4.26,1.62,14.38,5.2,45,7,21,1.24,35.57,2.1,56,0,17.75-1.82,32.73-3.36,51-11,13.23-5.53,22.44-11.87,23-11s-9.43,9.74-22,16c-2.67,1.33-10.63,5.08-32,9a293,293,0,0,1-51,5,259.33,259.33,0,0,1-33-2c-16.41-2.07-28-3.62-41-10C647.51,442.64,638,433.22,638.5,432.5Z" transform="translate(-468.5 -297.97)"/><path class="cls-7" d="M683.24,452.35c-1,.8-1.6,2.26-1,3.26s2.45,1.16,6.93,1.63c4.9.51,7.35.77,7.92.81,5.54.44,6.42,1,11.88,1.63s10,.72,18.81.82h21.78a8.63,8.63,0,0,0,4.95-1.63c.15-.12,2.5-2,2-3.26-.83-2-8.41-.7-21.78-.82-2.48,0-33.21-1.37-34.65-1.63a96.55,96.55,0,0,0-12.87-1.63A6,6,0,0,0,683.24,452.35Z" transform="translate(-468.5 -297.97)"/><polygon class="cls-8" points="170 157.53 176 167.53 183 173.53 207 181.53 207 157.53 193 151.53 179 142.53 170 157.53"/><polygon class="cls-8" points="170 135.53 170 157.53 179 146.53 179 142.53 170 135.53"/><polygon class="cls-8" points="371.52 133.53 355.71 146.4 339.9 153.32 332 181.03 345.83 178.06 355.71 175.09 371.52 166.19 373.5 155.3 373.5 139.47 371.52 133.53"/><polygon class="cls-9" points="313 160.53 303 185.53 320 183.53 332 181.53 340 153.53 313 160.53"/><polygon class="cls-9" points="207 181.53 230 185.53 245 186.53 235 167.53 232 161.53 207 157.53 207 181.53"/><polygon class="cls-9" points="242 183.53 262 184.53 284 184.53 305 182.53 306 184.53 303 185.53 293 186.53 273 187.53 257 187.53 243.75 186.53 242 183.53"/><path class="cls-8" d="M638.5,455.5c-.56.14-.52,2.79,0,5a15,15,0,0,0,3,6c4.57,5.6,13.25,9,16,10,2.23.84,4.33,1.61,8.58,3,2.59.87,5.12,1.67,8.31,2.46,0,0,1,.26,2.11.5,9,2,27,3.9,28,4,4.47.46,6.71.69,10,1,.78.06,9.39.77,17,1a281.86,281.86,0,0,0,33-1c15.83-1.39,19.41-3,35-5a88.55,88.55,0,0,0,11-2c2.5-.62,4.64-1.28,7-2,1.41-.43,4.66-1.44,9-3a45.57,45.57,0,0,0,9-4c1.91-1.16,3.3-2.23,4-4s.57-3.81,0-4-1.09,1.46-3,3c-1.22,1-1.56.78-4,2-3.46,1.73-3.87,2.71-7,4a26.92,26.92,0,0,1-3,1c-11.89,3.37-10.29,3.08-14,4-1.34.33-6.87,1.7-14,3a303.88,303.88,0,0,1-33,4c-40.7,2.61-73.58-1.08-87-5-1.37-.4-.79-.29-12-4-9-3-11.22-3.66-14-6a32.73,32.73,0,0,1-6-7C640,458.57,639.14,455.34,638.5,455.5Z" transform="translate(-468.5 -297.97)"/><path class="cls-1" d="M835.35,525.74c-1.06-.28-2.4,3.4-6,9.23-4.31,7-5.84,7.45-7.07,10.91-.41,1.16-1.42,5.86,1,15,2.39,8.91,7.59,15.5,22.84,29.11a311.43,311.43,0,0,0,27.19,22.39c11.24,8.18,20,13.45,29.37,19a405.75,405.75,0,0,0,44.68,23,74.18,74.18,0,0,0,25.33,6.89c11.45.9,14.92-.44,16.34-1.32a14.67,14.67,0,0,0,1.74-1.34c4-3.26,6.13-6.69,8.65-11,4.57-7.84,6.84-11.78,5.93-12.84s-3.61.22-9.13,1.23a43.3,43.3,0,0,1-13.59.73,110.4,110.4,0,0,1-28.93-6.84c-3.82-1.42-8.41-3.55-17.58-7.82-11.33-5.26-17.14-8-24.28-12.16-6.91-4-12.26-7.77-16-10.34-2.65-1.85-7.55-5.28-12.88-9.54a207.77,207.77,0,0,1-23.59-22.44c-13.38-14.32-17.58-21.38-20-26.09a24.9,24.9,0,0,1-2.67-7.59C835.69,529,836.28,526,835.35,525.74Z" transform="translate(-468.5 -297.97)"/><path class="cls-2" d="M1008.11,630.58c2.72-3.58,1.65-9,.95-12.5-1.46-7.36-5.57-12.17-10.21-17.34-10.24-11.43-15.36-17.14-20.52-21.65A305.72,305.72,0,0,0,940.52,551,348.1,348.1,0,0,0,898.9,528.8c-22.61-10.52-38.57-15.68-51.74-12.09-2.77.75-9,2.53-10.73,7.35-1.28,3.49.29,7.13,2.37,11.06,7.93,15.06,15.53,22,15.53,22a388.49,388.49,0,0,0,36.72,29.76c17.31,12,28.62,19.76,45.86,28.54A184.55,184.55,0,0,0,974,629.91C986.91,633.36,1002.89,637.46,1008.11,630.58Z" transform="translate(-468.5 -297.97)"/><path class="cls-3" d="M876.14,523.4c5.36,1.65,9,3.41,16.24,7,14.62,7.22,21.94,10.83,23.55,11.73,11.42,6.35,18.88,11.91,33.3,22.75,14.22,10.68,21.49,15.94,30.77,24.63s20.83,20.36,20,21.2c-.95,1-17.79-14.31-48.14-35.89-.92-.65-14-9.13-40.24-26.07-12.75-8.24-23.48-15-38.88-18.13,0,0-9.26-4.21-13.19-1.61l-.08.06c-2.63,1.81-2.8,5.44-2.84,6.39-.23,4.71,4.67,9.65,5.92,10.89,14.4,14.25,24.37,20.49,24.37,20.49,21.59,13.52,15.66,12,36,24.53,17.81,10.92,32.17,18.11,37.27,20.61,19.26,9.47,31.24,13.58,31,14.23s-18-4.13-37.37-12.46c-15.89-6.82-27.18-13.47-37.8-19.79-12.74-7.57-23.38-15.47-44.65-31.27C858.41,553,852,547.8,850.15,539.48c-1.35-6.06-.45-14.42,5.08-17.87C860.22,518.5,867.05,520.6,876.14,523.4Z" transform="translate(-468.5 -297.97)"/><path class="cls-3" d="M976.24,589.66c-.33.4,2.14,2.54,7.9,9.88a39.63,39.63,0,0,1,5.37,8.26c1.54,3.32,2.86,6.18,1.77,8.29-1.26,2.47-5.33,3.07-10.22,2.91-17.89-.57-32.38-10.74-32.59-10.4s8.92,6.88,23.75,13c14,5.79,18.77,5.77,22.51,3.87.25-.13,6-3.15,6.83-8.69.73-5.13-3.26-9.26-9.92-16C984.64,593.8,976.79,589,976.24,589.66Z" transform="translate(-468.5 -297.97)"/><path class="cls-4" d="M872.88,526a53,53,0,0,1,20.24,8c16.47,10.06,11.29,5.24,27,15.14a372.72,372.72,0,0,1,40.55,29.42c11.28,9.5,21,18.87,20.65,19.23s-6.79-5.39-17.62-13.47c-8.69-6.49-15-10.72-24.51-17.05-13.22-8.83-20.89-13.44-35.13-22-1.48-.89-8.6-4.26-22.84-11-6.29-3-12.38-5.78-16.63-3.08-2.92,1.86-3.62,5.45-4.78,5.18-1.34-.31-2.26-5.55,0-8.48C862.52,524.48,868.64,525.36,872.88,526Z" transform="translate(-468.5 -297.97)"/><path class="cls-5" d="M856.1,533.6c-1.55,7.07,24.2,17.26,56.11,32.73,48.42,23.47,73,40.67,74.43,38.54s-25.75-22-35.25-28.92c-32.07-23.42-22.26-12.08-55.87-35-9.81-6.69-21.4-15-32.95-11.65C860.66,529.85,856.66,531,856.1,533.6Z" transform="translate(-468.5 -297.97)"/><path class="cls-5" d="M850.85,523.87" transform="translate(-468.5 -297.97)"/><path class="cls-5" d="M853,520.52c-.81-2.64-7.31-4.25-11.95-1.79a10,10,0,0,0-4.65,5.33c-1,2.93-.1,5.43,1.23,9.14,1.17,3.27,1.76,4.91,3.4,5.78,2.81,1.48,7.29.08,8.85-2.61s-1.06-4.86.15-9.44C851.09,523.05,853.58,522.29,853,520.52Z" transform="translate(-468.5 -297.97)"/><path class="cls-4" d="M850.06,526.19c.41-1.68-5.24-6.4-8.11-6.83a6,6,0,0,0-1.42,0,3.55,3.55,0,0,0-2.84,1.94q-2.18,3.3-1.8,3.63c.11.1.4,0,.86-.32C846.13,527.26,849.76,527.37,850.06,526.19Z" transform="translate(-468.5 -297.97)"/><path class="cls-6" d="M835.35,525.74c.81-.35,4.91,12.6,15,26.43,2.69,3.68,9.24,12.18,34,30.35,16.95,12.46,28.71,21.11,47,30.46,15.89,8.13,29.29,15,48.78,18.51,14.11,2.56,25.29,2.25,25.28,3.28s-13.21,3.05-27.16,1.46c-3-.33-11.68-1.51-31.75-9.85A291.74,291.74,0,0,1,901,602.83a260.5,260.5,0,0,1-26.61-19.62c-12.65-10.67-21.51-18.27-29-30.7C837.39,539.15,834.54,526.08,835.35,525.74Z" transform="translate(-468.5 -297.97)"/><path class="cls-7" d="M862.09,566.73c-1.29.11-2.57,1-2.6,2.2s1.42,2.3,4.92,5.13c3.84,3.1,5.75,4.65,6.21,5,4.41,3.38,4.86,4.3,9.08,7.83s8,6,15.34,10.91l10,6.46,8.31,5.39a8.56,8.56,0,0,0,5,1.32c.18,0,3.19-.32,3.43-1.66.4-2.14-6.67-5.16-17.83-12.53-2.07-1.37-27.12-19.22-28.19-20.21a96.44,96.44,0,0,0-9.91-8.37A5.91,5.91,0,0,0,862.09,566.73Z" transform="translate(-468.5 -297.97)"/><polygon class="cls-8" points="354.33 247.07 353.93 258.72 356.54 267.56 372.33 287.33 385.38 267.19 376.9 254.54 370.04 239.38 354.33 247.07"/><polygon class="cls-8" points="366.3 228.61 354.33 247.07 367.87 242.73 370.04 239.38 366.3 228.61"/><polygon class="cls-8" points="536.49 336.55 516.23 338.74 499.19 335.95 477.49 354.91 490.71 359.94 500.62 362.82 518.73 363.95 526.31 355.89 534.92 342.6 536.49 336.55"/><polygon class="cls-9" points="472.69 327.37 450.71 342.91 466.06 350.48 477.22 355.32 499.16 336.18 472.69 327.37"/><polygon class="cls-9" points="372.33 287.33 389.45 303.2 401.49 312.2 403.44 290.81 404.18 284.15 385.38 267.19 372.33 287.33"/><polygon class="cls-9" points="400.61 308.05 416.85 319.77 435.31 331.73 454.02 341.48 453.77 343.7 450.71 342.91 441.77 338.31 424.44 328.27 411.02 319.56 400.44 311.52 400.61 308.05"/><path class="cls-8" d="M822.84,545c-.56-.19-2,2.06-2.72,4.19a14.77,14.77,0,0,0-.75,6.67c.78,7.18,6.24,14.73,8,17.09,1.41,1.93,2.75,3.71,5.54,7.22,1.7,2.14,3.39,4.19,5.63,6.59,0,0,.73.77,1.51,1.56,6.48,6.63,20.53,18,21.32,18.59,3.5,2.82,5.25,4.23,7.89,6.27.62.48,7.45,5.75,13.67,10.09a283.42,283.42,0,0,0,28.24,17.12c14,7.44,17.94,8,32.09,14.84a87.81,87.81,0,0,0,10.32,4.3c2.44.84,4.58,1.46,7,2.13,1.41.41,4.69,1.33,9.18,2.38a45.28,45.28,0,0,0,9.73,1.54c2.23.07,4-.08,5.53-1.18s2.56-2.89,2.18-3.36-1.71.63-4.15.89c-1.57.16-1.74-.2-4.45-.5-3.84-.43-4.72.17-8-.45a24.47,24.47,0,0,1-3.06-.79c-11.81-3.64-10.31-3-13.92-4.26-1.3-.45-6.69-2.32-13.38-5.1a306.14,306.14,0,0,1-29.87-14.59c-35.57-19.95-61.15-40.93-70.28-51.52-.93-1.08-.5-.68-7.89-9.89-6-7.41-7.43-9.17-8.49-12.65a33.17,33.17,0,0,1-1.23-9.13C822.42,548.43,823.46,545.25,822.84,545Z" transform="translate(-468.5 -297.97)"/><path class="cls-1" d="M717.5,666.5c-1,.34-.16,4.15,0,11,.19,8.21-.85,9.43,0,13,.29,1.2,2,5.69,9,12s14.8,8.87,35,12a309.23,309.23,0,0,0,35,4c13.88.74,24.1.4,35,0a407.07,407.07,0,0,0,50-5,74.32,74.32,0,0,0,25-8c10.1-5.48,12.29-8.49,13-10a14.69,14.69,0,0,0,.73-2.07c1.54-4.88,1.5-8.95,1.27-13.93-.43-9.06-.67-13.6-2-14-1.49-.44-2.91,2.14-7,6a43.19,43.19,0,0,1-11,8,110.67,110.67,0,0,1-28,10c-4,.88-9,1.59-19,3-12.37,1.75-18.73,2.63-27,3-8,.36-14.51.15-19,0-3.23-.11-9.21-.32-16-1a208.14,208.14,0,0,1-32-6c-19-4.74-26.38-8.37-31-11a25,25,0,0,1-6.37-4.92C719.55,669,718.42,666.2,717.5,666.5Z" transform="translate(-468.5 -297.97)"/><path class="cls-2" d="M919.5,660.5c.33-4.48-3.51-8.43-6-11-5.23-5.39-11.3-7.18-18-9-14.81-4-22.21-6-29-7a304.22,304.22,0,0,0-47-3,347.7,347.7,0,0,0-47,4c-24.7,3.47-40.9,7.82-50,18-1.91,2.14-6.14,7-5,12,.82,3.62,4.12,5.83,8,8,14.85,8.32,25,10,25,10a389.06,389.06,0,0,0,47,5c21,.61,34.76,1,54-1a184.64,184.64,0,0,0,39-8C903.22,674.37,918.86,669.11,919.5,660.5Z" transform="translate(-468.5 -297.97)"/><path class="cls-3" d="M750.46,642.35c5.4-1.53,9.39-2,17.43-3,16.2-1.9,24.3-2.85,26.15-3,13-.88,22.31-.27,40.31,1,17.75,1.23,26.71,1.69,39.23,3.93s28.54,5.76,28.33,6.9c-.26,1.35-22.72-2.33-59.93-3.93-1.13,0-16.73,0-47.94,0-15.18,0-27.88.16-42.49,5.93,0,0-10.06,1.51-11.94,5.84l0,.09c-1.22,2.94.61,6.08,1.09,6.9,2.38,4.07,9.17,5.56,10.9,5.92,19.83,4.12,31.59,3.94,31.59,3.94,25.47-.4,19.67,1.56,43.59,1,20.88-.52,36.84-2.3,42.49-3,21.3-2.53,33.59-5.6,33.77-4.94s-17.33,6.31-38.13,9.87c-17,2.93-30.14,3.48-42.49,4-14.81.58-28-.27-54.48-2-16.22-1-24.42-1.91-30.51-7.88-4.42-4.35-8.22-11.86-5.45-17.76C734.44,646.9,741.31,645,750.46,642.35Z" transform="translate(-468.5 -297.97)"/><path class="cls-3" d="M870.5,643.5c-.06.51,3.18,1,12,4a39.12,39.12,0,0,1,9,4c3.1,2,5.76,3.63,6,6,.28,2.76-2.81,5.47-7,8-15.33,9.25-33,8.6-33,9s11.23.92,27-2c14.91-2.77,18.89-5.37,21-9,.14-.24,3.34-5.92,1-11-2.17-4.71-7.77-6-17-8C879.8,642.4,870.6,642.65,870.5,643.5Z" transform="translate(-468.5 -297.97)"/><path class="cls-4" d="M749.16,646.33A53,53,0,0,1,770.5,642c19.29-.51,12.32-1.75,30.9-2a370.05,370.05,0,0,1,50,2.63c14.64,1.83,27.85,4.43,27.79,4.89s-8.63-.82-22.11-1.71c-10.82-.72-18.44-.83-29.84-1-15.9-.21-24.84.09-41.46.64-1.72.06-9.53,1.1-25.16,3.17-6.9.91-13.53,1.88-15.63,6.47-1.43,3.14-.07,6.53-1.19,6.94-1.29.47-4.91-3.43-4.58-7.13C739.62,650.66,745.24,648.08,749.16,646.33Z" transform="translate(-468.5 -297.97)"/><path class="cls-5" d="M739.19,661.81c2.55,6.77,29.7,1.32,64.89-3.06,53.4-6.64,83.42-5.6,83.42-8.14s-33.57-4.44-45.32-5.1c-39.64-2.2-25.24,2-65.91,1-11.87-.28-26.13-.95-34,8.15C741,656.19,738.26,659.33,739.19,661.81Z" transform="translate(-468.5 -297.97)"/><path class="cls-5" d="M729.5,656.5" transform="translate(-468.5 -297.97)"/><path class="cls-5" d="M729.5,652.5c-2.12-1.77-8.44.42-11,5a10,10,0,0,0-1,7c.75,3,2.87,4.61,6,7,2.77,2.11,4.15,3.17,6,3,3.16-.28,6.16-3.89,6-7s-3.53-3.5-5-8C729.25,655.68,730.93,653.69,729.5,652.5Z" transform="translate(-468.5 -297.97)"/><path class="cls-4" d="M730.09,658.87c-.57-1.63-7.88-2.52-10.51-1.31a6,6,0,0,0-1.22.75,3.58,3.58,0,0,0-1.33,3.17c0,2.64.14,4,.47,4,.15,0,.33-.23.55-.74C727.38,661.92,730.49,660,730.09,658.87Z" transform="translate(-468.5 -297.97)"/><path class="cls-6" d="M717.5,666.5c.5-.73,11,7.9,27,14,4.26,1.62,14.38,5.2,45,7,21,1.24,35.57,2.1,56,0,17.75-1.82,32.73-3.36,51-11,13.23-5.53,22.44-11.87,23-11s-9.43,9.74-22,16c-2.67,1.33-10.63,5.08-32,9a293,293,0,0,1-51,5,259.33,259.33,0,0,1-33-2c-16.41-2.07-28-3.62-41-10C726.51,676.64,717,667.22,717.5,666.5Z" transform="translate(-468.5 -297.97)"/><path class="cls-7" d="M762.24,686.35c-1,.8-1.6,2.26-1,3.26s2.45,1.16,6.93,1.63c4.9.51,7.35.77,7.92.81,5.54.44,6.42,1,11.88,1.63s10,.72,18.81.82h21.78a8.63,8.63,0,0,0,4.95-1.63c.15-.12,2.5-2,2-3.26-.83-2-8.41-.7-21.78-.82-2.48,0-33.21-1.37-34.65-1.63a96.55,96.55,0,0,0-12.87-1.63A6,6,0,0,0,762.24,686.35Z" transform="translate(-468.5 -297.97)"/><polygon class="cls-8" points="249 391.53 255 401.53 262 407.53 286 415.53 286 391.53 272 385.53 258 376.53 249 391.53"/><polygon class="cls-8" points="249 369.53 249 391.53 258 380.53 258 376.53 249 369.53"/><polygon class="cls-8" points="450.52 367.53 434.71 380.39 418.9 387.32 411 415.03 424.83 412.06 434.71 409.09 450.52 400.19 452.5 389.3 452.5 373.47 450.52 367.53"/><polygon class="cls-9" points="392 394.53 382 419.53 399 417.53 411 415.53 419 387.53 392 394.53"/><polygon class="cls-9" points="286 415.53 309 419.53 324 420.53 314 401.53 311 395.53 286 391.53 286 415.53"/><polygon class="cls-9" points="321 417.53 341 418.53 363 418.53 384 416.53 385 418.53 382 419.53 372 420.53 352 421.53 336 421.53 322.75 420.53 321 417.53"/><path class="cls-8" d="M717.5,689.5c-.56.14-.52,2.79,0,5a15,15,0,0,0,3,6c4.57,5.6,13.25,9,16,10,2.23.84,4.33,1.61,8.58,3,2.59.87,5.12,1.67,8.31,2.46,0,0,1,.26,2.11.5,9,2,27,3.9,28,4,4.47.46,6.71.69,10,1,.78.06,9.39.77,17,1a281.86,281.86,0,0,0,33-1c15.83-1.39,19.41-3,35-5a88.55,88.55,0,0,0,11-2c2.5-.62,4.64-1.28,7-2,1.41-.43,4.66-1.44,9-3a45.57,45.57,0,0,0,9-4c1.91-1.16,3.3-2.23,4-4s.57-3.81,0-4-1.09,1.46-3,3c-1.22,1-1.56.78-4,2-3.46,1.73-3.87,2.71-7,4a26.92,26.92,0,0,1-3,1c-11.89,3.37-10.29,3.08-14,4-1.34.33-6.87,1.7-14,3a303.88,303.88,0,0,1-33,4c-40.7,2.61-73.58-1.08-87-5-1.37-.4-.79-.29-12-4-9-3-11.22-3.66-14-6a32.73,32.73,0,0,1-6-7C719,692.57,718.14,689.34,717.5,689.5Z" transform="translate(-468.5 -297.97)"/><path class="cls-1" d="M694.5,624.5c-1,.34-.16,4.15,0,11,.19,8.21-.85,9.43,0,13,.29,1.2,2,5.69,9,12s14.8,8.87,35,12a309.23,309.23,0,0,0,35,4c13.88.74,24.1.4,35,0a407.07,407.07,0,0,0,50-5,74.32,74.32,0,0,0,25-8c10.1-5.48,12.29-8.49,13-10a14.69,14.69,0,0,0,.73-2.07c1.54-4.88,1.5-8.95,1.27-13.93-.43-9.06-.67-13.6-2-14-1.49-.44-2.91,2.14-7,6a43.19,43.19,0,0,1-11,8,110.67,110.67,0,0,1-28,10c-4,.88-9,1.59-19,3-12.37,1.75-18.73,2.63-27,3-8,.36-14.51.15-19,0-3.23-.11-9.21-.32-16-1a208.14,208.14,0,0,1-32-6c-19-4.74-26.38-8.37-31-11a25,25,0,0,1-6.37-4.92C696.55,627,695.42,624.2,694.5,624.5Z" transform="translate(-468.5 -297.97)"/><path class="cls-2" d="M896.5,618.5c.33-4.48-3.51-8.43-6-11-5.23-5.39-11.3-7.18-18-9-14.81-4-22.21-6-29-7a304.22,304.22,0,0,0-47-3,347.7,347.7,0,0,0-47,4c-24.7,3.47-40.9,7.82-50,18-1.91,2.14-6.14,7-5,12,.82,3.62,4.12,5.83,8,8,14.85,8.32,25,10,25,10a389.06,389.06,0,0,0,47,5c21,.61,34.76,1,54-1a184.64,184.64,0,0,0,39-8C880.22,632.37,895.86,627.11,896.5,618.5Z" transform="translate(-468.5 -297.97)"/><path class="cls-3" d="M727.46,600.35c5.4-1.53,9.39-2,17.43-3,16.2-1.9,24.3-2.85,26.15-3,13-.88,22.31-.27,40.31,1,17.75,1.23,26.71,1.69,39.23,3.93s28.54,5.76,28.33,6.9c-.26,1.35-22.72-2.33-59.93-3.93-1.13,0-16.73,0-47.94,0-15.18,0-27.88.16-42.49,5.93,0,0-10.06,1.51-11.94,5.84l0,.09c-1.22,2.94.61,6.08,1.09,6.9,2.38,4.07,9.17,5.56,10.9,5.92,19.83,4.12,31.59,3.94,31.59,3.94,25.47-.4,19.67,1.56,43.59,1,20.88-.52,36.84-2.3,42.49-3,21.3-2.53,33.59-5.6,33.77-4.94s-17.33,6.31-38.13,9.87c-17,2.93-30.14,3.48-42.49,4-14.81.58-28-.27-54.48-2-16.22-1-24.42-1.91-30.51-7.88-4.42-4.35-8.22-11.86-5.45-17.76C711.44,604.9,718.31,603,727.46,600.35Z" transform="translate(-468.5 -297.97)"/><path class="cls-3" d="M847.5,601.5c-.06.51,3.18,1,12,4a39.12,39.12,0,0,1,9,4c3.1,2,5.76,3.63,6,6,.28,2.76-2.81,5.47-7,8-15.33,9.25-33,8.6-33,9s11.23.92,27-2c14.91-2.77,18.89-5.37,21-9,.14-.24,3.34-5.92,1-11-2.17-4.71-7.77-6-17-8C856.8,600.4,847.6,600.65,847.5,601.5Z" transform="translate(-468.5 -297.97)"/><path class="cls-4" d="M726.16,604.33A53,53,0,0,1,747.5,600c19.29-.51,12.32-1.75,30.9-2a370.05,370.05,0,0,1,50,2.63c14.64,1.83,27.85,4.43,27.79,4.89s-8.63-.82-22.11-1.71c-10.82-.72-18.44-.83-29.84-1-15.9-.21-24.84.09-41.46.64-1.72.06-9.53,1.1-25.16,3.17-6.9.91-13.53,1.88-15.63,6.47-1.43,3.14-.07,6.53-1.19,6.94-1.29.47-4.91-3.43-4.58-7.13C716.62,608.66,722.24,606.08,726.16,604.33Z" transform="translate(-468.5 -297.97)"/><path class="cls-5" d="M716.19,619.81c2.55,6.77,29.7,1.32,64.89-3.06,53.4-6.64,83.42-5.6,83.42-8.14s-33.57-4.44-45.32-5.1c-39.64-2.2-25.24,2-65.91,1-11.87-.28-26.13-.95-34,8.15C718,614.19,715.26,617.33,716.19,619.81Z" transform="translate(-468.5 -297.97)"/><path class="cls-5" d="M706.5,614.5" transform="translate(-468.5 -297.97)"/><path class="cls-5" d="M706.5,610.5c-2.12-1.77-8.44.42-11,5a10,10,0,0,0-1,7c.75,3,2.87,4.61,6,7,2.77,2.11,4.15,3.17,6,3,3.16-.28,6.16-3.89,6-7s-3.53-3.5-5-8C706.25,613.68,707.93,611.69,706.5,610.5Z" transform="translate(-468.5 -297.97)"/><path class="cls-4" d="M707.09,616.87c-.57-1.63-7.88-2.52-10.51-1.31a6,6,0,0,0-1.22.75,3.58,3.58,0,0,0-1.33,3.17c0,2.64.14,4,.47,4,.15,0,.33-.23.55-.74C704.38,619.92,707.49,618,707.09,616.87Z" transform="translate(-468.5 -297.97)"/><path class="cls-6" d="M694.5,624.5c.5-.73,11,7.9,27,14,4.26,1.62,14.38,5.2,45,7,21,1.24,35.57,2.1,56,0,17.75-1.82,32.73-3.36,51-11,13.23-5.53,22.44-11.87,23-11s-9.43,9.74-22,16c-2.67,1.33-10.63,5.08-32,9a293,293,0,0,1-51,5,259.33,259.33,0,0,1-33-2c-16.41-2.07-28-3.62-41-10C703.51,634.64,694,625.22,694.5,624.5Z" transform="translate(-468.5 -297.97)"/><path class="cls-7" d="M739.24,644.35c-1,.8-1.6,2.26-1,3.26s2.45,1.16,6.93,1.63c4.9.51,7.35.77,7.92.81,5.54.44,6.42,1,11.88,1.63s10,.72,18.81.82h21.78a8.63,8.63,0,0,0,4.95-1.63c.15-.12,2.5-2,2-3.26-.83-2-8.41-.7-21.78-.82-2.48,0-33.21-1.37-34.65-1.63a96.55,96.55,0,0,0-12.87-1.63A6,6,0,0,0,739.24,644.35Z" transform="translate(-468.5 -297.97)"/><polygon class="cls-8" points="226 349.53 232 359.53 239 365.53 263 373.53 263 349.53 249 343.53 235 334.53 226 349.53"/><polygon class="cls-8" points="226 327.53 226 349.53 235 338.53 235 334.53 226 327.53"/><polygon class="cls-8" points="427.52 325.53 411.71 338.39 395.9 345.32 388 373.03 401.83 370.06 411.71 367.09 427.52 358.19 429.5 347.3 429.5 331.47 427.52 325.53"/><polygon class="cls-9" points="369 352.53 359 377.53 376 375.53 388 373.53 396 345.53 369 352.53"/><polygon class="cls-9" points="263 373.53 286 377.53 301 378.53 291 359.53 288 353.53 263 349.53 263 373.53"/><polygon class="cls-9" points="298 375.53 318 376.53 340 376.53 361 374.53 362 376.53 359 377.53 349 378.53 329 379.53 313 379.53 299.75 378.53 298 375.53"/><path class="cls-8" d="M694.5,647.5c-.56.14-.52,2.79,0,5a15,15,0,0,0,3,6c4.57,5.6,13.25,9,16,10,2.23.84,4.33,1.61,8.58,3,2.59.87,5.12,1.67,8.31,2.46,0,0,1,.26,2.11.5,9,2,27,3.9,28,4,4.47.46,6.71.69,10,1,.78.06,9.39.77,17,1a281.86,281.86,0,0,0,33-1c15.83-1.39,19.41-3,35-5a88.55,88.55,0,0,0,11-2c2.5-.62,4.64-1.28,7-2,1.41-.43,4.66-1.44,9-3a45.57,45.57,0,0,0,9-4c1.91-1.16,3.3-2.23,4-4s.57-3.81,0-4-1.09,1.46-3,3c-1.22,1-1.56.78-4,2-3.46,1.73-3.87,2.71-7,4a26.92,26.92,0,0,1-3,1c-11.89,3.37-10.29,3.08-14,4-1.34.33-6.87,1.7-14,3a303.88,303.88,0,0,1-33,4c-40.7,2.61-73.58-1.08-87-5-1.37-.4-.79-.29-12-4-9-3-11.22-3.66-14-6a32.73,32.73,0,0,1-6-7C696,650.57,695.14,647.34,694.5,647.5Z" transform="translate(-468.5 -297.97)"/></g></svg>