<svg xmlns:xlink="http://www.w3.org/1999/xlink" xmlns="http://www.w3.org/2000/svg" data-bbox="0 0 1024.648 417.633" viewBox="0 0 1024.649 417.633" data-type="shape" width="1024.649"  height="417.633" >
    <g>
        <path d="M679.72 261.881a12.778 12.778 0 0 1 4.399 10.264q0 16.614-19.223 16.614H554.772a15.366 15.366 0 0 1-16.29-15.964 20.596 20.596 0 0 1 6.516-14.988l90.9-97.74h-70.374a19.334 19.334 0 0 1-12.869-3.747 13.153 13.153 0 0 1-4.398-10.592q0-16.286 19.221-16.286h105.236a15.473 15.473 0 0 1 11.892 4.723 15.935 15.935 0 0 1 4.399 11.24 22.458 22.458 0 0 1-6.516 15.311l-90.575 97.418h74.936a19.387 19.387 0 0 1 12.87 3.747z"/>
        <path d="M842.949 212.682a13.003 13.003 0 0 1-9.612 3.747h-96.764a46.934 46.934 0 0 0 12.217 32.581 43.316 43.316 0 0 0 31.767 11.08 72.226 72.226 0 0 0 20.689-2.771 78.701 78.701 0 0 0 18.408-8.309 17.205 17.205 0 0 1 8.145-2.279 10.235 10.235 0 0 1 8.634 4.074 15.959 15.959 0 0 1 3.095 9.934 18.896 18.896 0 0 1-8.145 15.641 73.737 73.737 0 0 1-23.297 10.75 106.933 106.933 0 0 1-30.137 4.235 90.291 90.291 0 0 1-42.681-9.608 68.014 68.014 0 0 1-28.181-27.209 82.022 82.022 0 0 1-9.938-41.051 99.572 99.572 0 0 1 10.099-45.448 76.04 76.04 0 0 1 28.346-31.279 77.87 77.87 0 0 1 41.703-11.24 65.866 65.866 0 0 1 51.317 19.875 81.333 81.333 0 0 1 18.08 56.689 14.32 14.32 0 0 1-3.745 10.588zM737.876 194.6h74.284a44.024 44.024 0 0 0-8.472-30.137 30.851 30.851 0 0 0-24.761-10.261q-34.54 0-41.051 40.398z"/>
        <path d="M1010.641 140.028a59.806 59.806 0 0 1 13.846 42.843q0 6.195-.326 9.45l-6.518 78.844a20.229 20.229 0 0 1-6.513 14.335 21.741 21.741 0 0 1-14.988 5.215 19.822 19.822 0 0 1-14.661-5.215 17.454 17.454 0 0 1-4.562-14.335l6.518-77.215q2.602-36.167-28.673-36.167a36.574 36.574 0 0 0-28.02 10.753 48.31 48.31 0 0 0-11.729 29.976l-6.191 72.653a20.228 20.228 0 0 1-6.514 14.335 21.741 21.741 0 0 1-14.987 5.215 19.264 19.264 0 0 1-14.5-5.215 18.69 18.69 0 0 1-4.723-14.335l10.426-126.413a17.474 17.474 0 0 1 6.514-13.52 23.45 23.45 0 0 1 15.314-5.05 18.514 18.514 0 0 1 13.685 4.885 14.92 14.92 0 0 1 3.908 13.035l-.327 6.188a54.575 54.575 0 0 1 21.829-18.243 70.353 70.353 0 0 1 30.629-6.518 53.523 53.523 0 0 1 40.563 14.5z"/>
        <path d="M397.748 121.139a60.489 60.489 0 0 0-77.413-21.361 59.631 59.631 0 0 0 16.64 111.903 128.233 128.233 0 0 1-256.395-2.897 126.361 126.361 0 0 1 82.547-118.813 20.221 20.221 0 0 0 12.866-23.383l-.144-.632a20.138 20.138 0 0 1 17.917-24.483q7.484-.683 15.049-.688a170.625 170.625 0 0 1 18.674 1.023 20.416 20.416 0 0 0 22.513-18.077q.06-.552.09-1.107a20.977 20.977 0 0 0-19.206-21.469A211.524 211.524 0 0 0 208.816 0C93.489.001-.001 93.492 0 208.818s93.491 208.816 208.818 208.815c115.325 0 208.814-93.49 208.815-208.815 0-20.418-4.104-64.428-19.885-87.679z"/>
        <path d="M309.208 37.484c0 11.947-9.685 21.632-21.632 21.632-11.947 0-21.632-9.685-21.632-21.632 0-11.947 9.685-21.632 21.632-21.632 11.947 0 21.632 9.685 21.632 21.632z"/>
    </g>
</svg>